<svg id="Layer_1" data-name="Layer 1" xmlns="http://www.w3.org/2000/svg" viewBox="0 0 242.35 53.52"><defs><style>.cls-1{fill:#282829;}.cls-2{fill:#fff212;}.cls-3{fill:#ed3237;}.cls-4{fill:#00afef;}.cls-5{fill:#d2d3d5;}.cls-6{fill:none;stroke:#1d1d1b;stroke-miterlimit:10;}.cls-7{fill:#1d3f96;}</style></defs><polygon class="cls-1" points="71.46 50.52 46.63 50.52 36.68 40.22 24.27 27.36 49.1 27.36 71.46 50.52"/><polygon class="cls-2" points="49.1 27.36 26.73 4.2 1.9 4.2 24.27 27.36 49.1 27.36"/><polygon class="cls-3" points="71.46 4.2 49.1 27.36 24.27 27.36 36.68 14.51 46.63 4.2 71.46 4.2"/><polygon class="cls-4" points="49.1 27.36 26.73 50.52 1.9 50.52 24.27 27.36 49.1 27.36"/><polygon class="cls-5" points="76.46 4.2 76.46 50.52 54.1 27.36 76.46 4.2"/><line class="cls-6" x1="101.92" y1="26.04" x2="101.92" y2="26.02"/><path class="cls-7" d="M122.07,11.24V34.45a.47.47,0,0,1-.49.45h-7.35a.47.47,0,0,1-.49-.45V13.33a.62.62,0,0,0-1.2-.16L105.61,34.5a.63.63,0,0,1-.6.4h-2.49l-.1,0-.1,0H99.83a.61.61,0,0,1-.59-.4L92.3,13.17a.62.62,0,0,0-1.2.16V34.45a.46.46,0,0,1-.49.45H83.27a.47.47,0,0,1-.5-.45V11.24a5,5,0,0,1,1.55-3.56c2.16-2.1,8.26-4.57,12.17-.61a2.06,2.06,0,0,1,.42.62l.23.49c0,.06,0,.12.07.19L102,22.57a.51.51,0,0,0,.94,0l4.74-14.2c0-.07.05-.13.07-.19l.24-.49a1.75,1.75,0,0,1,.42-.62c3.91-4,10-1.49,12.17.61A5,5,0,0,1,122.07,11.24Z"/><path class="cls-7" d="M152.77,11.05V5h-21s-4.86.5-4.86,5V32A4,4,0,0,0,131,35.09h21.79V28.94l-16.46-.1v-6l16.46.1V17h-16.5V10.93Z"/><path class="cls-7" d="M187.63,31.64V9.17c0-4.26-4.36-4.14-4.36-4.14L159.4,5V34.9h23.75C188,34.9,187.63,31.64,187.63,31.64Zm-8.21-4A1.39,1.39,0,0,1,178,29H167.36V11.05H178.1s1.32,0,1.32,1.7Z"/><rect class="cls-7" x="193.44" y="4.96" width="8.53" height="29.93"/><path class="cls-7" d="M226.28,6A8.49,8.49,0,0,0,218.5,6a2.2,2.2,0,0,0-1,1.09L205.19,34.9h8.33l2.85-5.73h12.56l2.28,5.72h8.65L227.33,7.09A2.44,2.44,0,0,0,226.28,6ZM219,22.85l3.27-8.42a.33.33,0,0,1,.61,0l3.73,8.48a.56.56,0,0,1-.53.78h-6.48A.62.62,0,0,1,219,22.85Z"/><path d="M88.54,49.6a.82.82,0,0,1-.94.92H84.33a.82.82,0,0,1-.93-.92V41.38a.83.83,0,0,1,.95-.93H87.6a.83.83,0,0,1,.94.93v2.15H87V41.75H85v7.48h2V46.41H85.83V45.13h2.71Z"/><path d="M103.35,50.52h-1.62L100,45.84v-.9h1.52V41.75h-2v8.77H98V40.45h4.12a.83.83,0,0,1,.94.93V45a.79.79,0,0,1-.44.82,3.11,3.11,0,0,1-1,.1Z"/><path d="M117.81,50.52h-1.54L116,48.61H114l-.31,1.91h-1.54v0l2-10.06h1.63Zm-2.07-3.2L115,42.78l-.76,4.54Z"/><path d="M131.94,45.93a.83.83,0,0,1-.95.94h-2.51v3.65h-1.56V40.45H131a.83.83,0,0,1,.95.93Zm-1.57-.35V41.75h-1.89v3.83Z"/><path d="M146.51,50.52H145V46h-2.11v4.51h-1.55V40.45h1.55V44.6H145V40.45h1.56Z"/><path d="M157.57,50.52H156V40.45h1.55Z"/><path d="M172.2,49.6a.83.83,0,0,1-.95.92H168a.82.82,0,0,1-.92-.92V41.38a.82.82,0,0,1,.92-.93h3.24a.83.83,0,0,1,.95.93v2.35h-1.54v-2h-2v7.48h2V47.11h1.54Z"/><path d="M186.65,49.6a.82.82,0,0,1-.94.92h-3.13a.83.83,0,0,1-.94-.92V47.2h1.56v2h1.9v-2L182,44.42a1.07,1.07,0,0,1-.34-.8V41.38a.83.83,0,0,1,.94-.93h3.13a.82.82,0,0,1,.94.92v2.25H185.1v-1.9h-1.9v1.82l3.11,2.84a1.05,1.05,0,0,1,.34.82Z"/><path d="M203.23,50.52h-1.55V40.45h1.55Z"/><path d="M218,50.52h-1.37l-2.49-6.33a3.36,3.36,0,0,1,.1.72v5.61h-1.51V40.45h1.36l2.49,6.21a4.25,4.25,0,0,1-.1-.73V40.45H218Z"/><path d="M232.62,49.6a.83.83,0,0,1-1,.92h-3.24a.81.81,0,0,1-.92-.92V41.38a.81.81,0,0,1,.92-.93h3.24a.83.83,0,0,1,1,.93v2.35h-1.55v-2h-2v7.48h2V47.11h1.55Z"/><path d="M237.94,50.52h-1.5V49h1.5Z"/></svg>