<svg id="Layer_1" data-name="Layer 1" xmlns="http://www.w3.org/2000/svg" viewBox="0 0 733 1226"><defs><style>.cls-1{fill:#ccc;stroke:#fff;stroke-width:0.5px;}</style></defs><path id="PH-SUR" class="cls-1" d="M672.34,864.78l2.26,1.56.67.3-.92.84-1.71-.44-1.92,1.12-.1,1.14,1.66,1.7,1-.44,1.2,2.28,2-1-.33-1.19,1.14-.74-.05,1.74-1.29.87,1.21,2.22,2.46,5.08-1,.08,3.07,2.42,5.07-1.64,3.61-3.78,2.82.11-1.15,1.38.45,1.28-1.73,5,.42,3.07-1.52,4.17L692,894l.54-1.12,2.92,5,2.83,2.9.95.33,1.33,1.52.24,1.56-1.43.65,2.52.57-1.33,2.76,2,2.94-1.45.26.89.85-2,1.44.2,1.58-3.57.77-1.15.75-.08,1.64-1.81.61,0,1.49,2.38,1.16-4.19-.18-6,3.46-1.61,2.84,3.08,2.11-.83,1.24,2.16,2.61,1.45-.08-.26-.77,4.29,1.34.44-.69-2.82-1.26,1.61-.61,3.87.55,2,1.54,1.84-.69,1.69.64,1.21-1.35.68.83-.82,1.34,2.86.18.4,1.74-1,.73,1,1.09-2.5-.34-1.07,3.16,1.85-.18.5,1.56-1.73,3-2.72.94,1.34,1.63-.79.3.25,1.17,3.31.3,1,1.32-5.44,4.67,2.14,3.2,3.37-1.44,3.59-3.16,1.21.18-2,9.59,1.73,1.05-2.67,3.17.52,3-1.17.3.67,1.82,2.46-.25-3.13,2.49h-1.41L704.45,979h0l-.7-6.63h0l-.39-3.68-3.31-1,4.35-4.24-4.81.51-4.43-4.21-1.88-.26,1-3.75,3.67-4.18,1.38,0,0-1.74-1.69-2.12.86-4.63-1.47,2.12-5.79.38-5.89-.71-2.79-2.72,3.51-3.9-4.81.46-1.25-7.6-1.8-.14-.16-1.06-.38-4.65,1.71-1.16-.26-.84-3.11-4.7-1.64-5.7-3.57-4.09-1.46-14.2L666.25,889l-5.76-6.65h0l-.54-6.53h0l12.34-12.47h0Z"/><path id="PH-TAR" class="cls-1" d="M287.23,394.57l3,12.65,3.11,3.28,4.15,1.13-2.33,4.17,3.11,9.85-1.62,2.64-.24,3.28,3.1,2.35-.73,2.92h0l-2,.31-.2-1.25-3.07,1.7-3-1.05-1.38.92-4.73,0L271,444.51l-1.3-.21h0l-2.42-4.83-3.78-4.25-8.87-5.33,1.65-11,2.63-5.13,3-1.75-.7-1.44h0l5.08-2.36-.52-1.36,2.55-2.2.49-2.43,2.47-2.67,6.42,2.68,4.85-3.07,2.91-8.87Z"/><path id="PH-TAW" class="cls-1" d="M200.73,1207.16l-1.45,7-.56-2.53,1-1.87-1.39-1.19,2.42-3.16Zm29.44-4.24,3,2-3.77-.16-.54-1.43Zm-26.9-6.58,2.82,5.67.89,5.45-1.83,6.65-1.67,1.91.5-10.77-1.53-8.06Zm25.13-.82,3.63,1.87,0,2.55-3.61.54-1-4.28Zm15.72-6.13-.9,3.46-1.41.29.24-3.5Zm-17.52-1.53-.42,1.37-2.56-.2.32-1.39Zm25,.08,1.12.67-.21,1.15-2.58-2Zm7.39.32-.7.69-2.11-.57,1.76-1.56,1.4.76Zm-30-6.77.52,4.34-1.15.52-.75-.95-.4,1.67-3.17.46L226,1183Zm36.27-.33.64,1.47-1.18.84-2.56-.14Zm2.62-1.77-.58,1.95-1.1-.38.15-2.17,1.14-.5Zm-2.6-3.44-2.56,1.53-.45-1-1.55.35,1.66-5.24,2.83,2.42Zm3.75-4.51-1.54,5.38-.66-2.93Zm-11-6.61.34,3.42,2.8,1.87-1.7,3.07.65,3.73-1.49,2.53.34,1.65-4.17-1.47,2-2.81-1.72-.73-.85,2.17-2.6-1.67-1.81,2.58-.77-.7-.89-.54-1.09.42-.17-1.28-1.24-.08-3.19,1.92.3,1.71-.66.62-2.17,3.31-2.2-.78-3,1.72-.6.34-1.49.9-2.93-.64.35-4-1-1,1.38-1.75,2,.2,6.09-3.07,2.75-3.5,3.65.36,2.9-2.76.56-.74,6.85-4.54Zm7.73-2.7,1.26.34-1.68,1.23-1.74-.5Zm20.18-1.06-1.75-.85.7-1.81,1.93,1.68ZM134.31,1041.51l1.53,1.53-1.27,2.6,1.89,2.08-7.63-1.81,0-1.33-1.59-1,3.31-1.15,1.69.56Z"/><path id="PH-ZMB" class="cls-1" d="M234.64,396.47l1.78.92,2.65-1.21.71,1.37h2.3l2.76-4,4.11,2.57,4.6-1,2.7,7.29,4.93,8.11h0l.7,1.44-3,1.75-2.63,5.14-1.65,11,8.87,5.33,3.78,4.26,2.42,4.83h0l-.91,2.36.56,2.26,2.82,2.05,1.26,2.56-.12,4,2.25,2.08.67,2.51h0l-1.8,3.56-4.35-.68-1.29,3.14-4,3.17-.53.41.16-1.19-1.9-.31-.3-1.89-1.73-.1L259,465.93l-1.65.91.91,3.73-2.56,5.62-4.59-1.59,1.45-.31L251.46,473l-2.68-.31,1.94-2.6-2.2.59.35-2.95-1,0,.07-1.86-1.45-1.33,1-9-.87-6.39-3.08-9.9.34-2.43-2-2.45-1.71-2,.11-1.57L237.61,428l.63-.42-2.32-.71.14-1.27-1.29-1,2-1.33-1.15-1.73.29-1.64,1,1.24,1.75-.08.25-1.43,1.59-.8-2.3-3.56L239,414l-1.5.08.08,1.19-.9-.34.6-2.64-1.52-2,1.55-1.65L238,405l-1.22-1-1.21.39-2.28-2.55,3-1.49Z"/><path id="PH-ZAN" class="cls-1" d="M489,919.4l3.18.8,1.13,2.39,3.62-1.3.47,1.37-1.63,1.84.22,1,1.75,1.52,1.57-.75.11.89,1.36-.14h0l-.37,29.59h0l-12.14,0-2.46-1.23-10.72-.56-.55,9.71-1.9,4v4l-6.47-.18-8.39,6.12-3.37-.31h0l-11.8-1.81-6.56,1-8.08,3.8-7.26,6-6.8,3.29L408,999.4l-3.35,7.16-.81,5h0l-3.6,7-.24,6.6-1.47,4-5.35,5.09-12.38.25h0L386,1027l2.43-1,.37-1.25,3.71-1.13.12-1.37-2-1-.54-2.32,2-3-.15-3.39,2.56-3.6-1.21-2,2.06-.1,3-3.58-.57-1.11-.91.58-1.26-1.08,2.1-3.18.05-2-1.34-4-2.27-1,1.31-1.92.61,1,.91-.59-.33-1.46.12-1.75,1.47-.39,1.35-3.81,4.81-3.63,0-3.8,8.65-5.66,8.47-2.47,3.51.53,5.32-1.32,3.27-2.18,2.38-3.58,1.78,3,2.46.65,6.78-.65,3.35-1.9,3.87,0,6.05-4.92-.08-2.61-2-.79-2.2-3.38,3.37-1.48-.21-6.3,2.07-1,1.62-4.52,2.39-1.83,8.63-1.29,6.29,1.54,2.18-.54,2.25-3.17,1.43-5.26,1.48-.63,1.6,1.36,1.58-.59.43-2.14-1.64-.93-.28-.62L488,921v-1.57Z"/><path id="PH-ZSI" class="cls-1" d="M407.59,1045.16l.61.74-.46,2.27-3.14-.52.5,1.06-2.72,2.25,1.07-2.75-.57-.68,1.21-1.51,1.37.59ZM456,1016l.67-.53-1.17-1.37-2.24-1-.88,1,.28,3.53-.93.71-3-4.77-2.52.89-1.07,5.59,1.61.59-.32,3,1.85,1.41,1.17-2.24,3.83-.85,1.39-2.1,2.24.73-1.83-2.36,3.67.61Zm10.76-29.78-12.31-1.56V978.3l-11.8-1.81-6.56,1-8.08,3.8-7.26,6-6.8,3.29-5.94,8.8-3.35,7.16-.81,5-3.6,7-.24,6.6-1.47,4-5.35,5.09-12.38.25-.28,5,2.93,8.2,12.37,5.56,3.09-1.39.44-1.17,2.06-2.14,2-6.11.06-.87-.58-1.49,3.77-3.07-.06-1.31-1.1-.14,1.38-2-1-2.17,1.33-.4-.18-.67.29-1.7,1-.28.78-6.54,2-1.11.77.52-.24,1.63,1.09-.51,3.82-5.54-3.54-.51.94-4.76-.1-.14,3.42-1.82,1.36-1,1.9-2.23,1.35-.3,1.3,0,.16-1.76,1.37-1.25-4,.88-1.28-.34-.19-1.14,4.28-3.23-.55-1.5,2-2.78,1.16-.19,1.28-3,5.55-1.75.34-1.25,1.15.4,1.29-1.31,1,1.68,1.47-1.63,1.9.34,1.89,2.48,1.65-.93,3.25,1.29.54,2.28-1.45-.91-.2,1.54L444.67,996l1,2.67-.69,1.7.16,1.66,1.68.89.78,2.93-.76,1.27-1-1.71-.74.49-.66,3.79.12,1.21,1.39-1.37,1.32.78-.27,3.25,1.32-.89.69.76,2.39-2.09v-1.6l-1.37-.64,2.07-1,.34-2.26,1-.33,1.24.54,2.16,4.19,1.65-.55,1.38,2.15.86-1.59-.54-1.49,2.84-5.72-.62-3.48,2.26,0-.32-1.93.5-.56.1-1.39,1.64.22.95-2.06Z"/><path id="PH-ABR" class="cls-1" d="M310.1,232.75l4.31,2.92,1.67,7.27,4.1-.33,2.4,1.81L324.24,255h0L322,256.35l2,5.86-.69,2.15-8.15,5.26-.26,6.25-5.78,12.18h0l0,2.58-1.27,1.71-2.86.19h0l-4.31,0-3.06,2.26-4.5-.2-2-2.52,1-.37.07-4.3-5-4.15-4.09.22-1.39-3.77,2.9-5.51.49-3.46L280.88,269l-3.1,1.42-1.12-1.57,1.48-3.27,1.08-7.16,2.36-4.85h0l3.4-7.24,7.87-2.7,2.71-4.4,4-1.42,3.63-3.66,5.56.71Z"/><path id="PH-AGN" class="cls-1" d="M638.57,867.34l2.66-1.2,5.23-.18,9.07,1.67,3.9,3.26.53,4.86h0l.54,6.53h0l.89,5.22-1.51,6.63-3.69,6.41-1.87,5.57.09,3.18-2.3,4.11,2.54,8.07-12.9-.19-4.31,3-14.17,0h0L622.49,910l1.74-1.39L621.59,905l1.24-2.46-2.22-9.88h0l1,.4,1.29,4.12,3,2.81,3.77.11,0,1.58.62-1.53,6.32,1,6.7-2.94-.61-.89,1.72-3.23-1.15-5.09.8-3.81-1.85-3.7,0-3.69-3.18-6.5Z"/><path id="PH-AGS" class="cls-1" d="M660.5,882.28l5.76,6.65,3.16,5.49,1.45,14.2,3.57,4.09,1.64,5.7,3.11,4.7.26.84-1.71,1.16.38,4.65.16,1.07,1.8.14,1.25,7.6,4.81-.46-3.51,3.9,2.79,2.72,5.89.72,5.78-.38,1.48-2.12-.86,4.63,1.69,2.12,0,1.74-1.38,0-3.67,4.18-1,3.75,1.88.26,4.43,4.21,4.81-.5-4.35,4.24,3.31,1,.39,3.68h0l-13.67.07h0l-6.85,3-1.65,1.75-3.46-2-1.25-2.59H654.7l-21.31.92h0l-.46-2.92.91-3.78-1.42-1.63.28-3.83-1.42-3.06.79-3.07-1.39-1-1-3.61-3.85-2.65-1.21-2.47L623.41,930h0l-.14-5.68h0l14.17,0,4.31-3,12.9.19-2.54-8.07,2.3-4.11-.09-3.18,1.87-5.57,3.69-6.41,1.51-6.63Z"/><path id="PH-AKL" class="cls-1" d="M384.91,684l8.84,7.33,6.05.86,2.48,1.37,1.78-.47,1.21,2,1.41-.61,3.71,4.43,2.28-.14,1.67-.1-.6,1.95,2-1.07,2.52,4.29,5.58,4.57-1,.75L418,704.29l-2,.78,2.34,2,.12,2.31,1.59.33.44-1.52.87,2.11-1.27.1.62,1.71,2.11.06,1.06-3,3.06,1.19,2,.92-2,.67,2.74.45h0v1.23l-4.69,4-8.43.09L414.78,721l-1.45-.35-1.39,4.06L409.87,727l-2,1.58L402.44,730h0l-1.29-2.22.61-3.17-1.59-.91-.25-3.12-2.21-2.41,1.44-4.39-1-1.84.71-2.78-.64-3.6,2.71-5.48-1.21-2.86L387,692.06l-3.86.5-3.23,3-3.32,1.29h0l2.67-3.9.31-6.17,4.39-1.26Zm-2.58-4.56.47,2.52,1.35.77-.55,1.12L381,680.26Z"/><path id="PH-ALB" class="cls-1" d="M542.48,588l5.4,1.81,1,2.68-8.12-.86-3.41-1.47Zm-11.07-3.3.59,1.51,1.34-2,1.87,2.11,1.13-1.52,4,1.55-2.4.51.37,1-3.51,1.58-2.16-.72-.06-.9-3,.34L526.92,586l.48-1.07-.95-.64,4.45.48Zm-8.88-5.43,5.5,1.94-3.27,3.47,1.84,3.09-1.92,1.08-.87.09-.17-2.27-.73-.06-1.52-1.37,1.68-3.13-1.6-1.53Zm-6.4-4,3,1,1.45,1.88,1.78,0L521.15,580l-2.55-1.5Zm-11.71-8,1.44,1.76,3.81,1,5,11.57,4.9,2.44,1.3,1.6,2.54,2-.4,1.23-4.35-1-2,.73-1.48,4.42.18,1.75,2.11,2.26-.72,1.84h-1.78l1,1.09-.93.69,3.66,1.3,2.41-2.63.21-2,1.26.1.47-1.94,1.17-.57,4.43,1.86h0l-2.56,5.72-3.41,0-6.46,4.05-2.53-2.83-4.61-.15-3,1.16-4-1.53-6.79,3.12h0l-2.1-2.66L490,602.13l-6.17,3-1.71-3.59-1.15,0,1-2.11-.55-4.74,1.59-1.44-.43-1.51,1.67-.74-3.74-4.8h0l8.09-5.84,1.19.74,0-1.07,2.18-1.22,1.86-.58,2.08.74,6.84-2.76.29-3.25L500,568.16l.79-1.1,3.41-.32h0Z"/><path id="PH-ANT" class="cls-1" d="M376.57,696.91l3.32-1.29,3.23-3,3.86-.5,12.7,5.14,1.21,2.86-2.71,5.48.64,3.6-.71,2.78,1.05,1.84-1.44,4.39,2.21,2.41.25,3.12,1.59.91-.61,3.17,1.29,2.22h0l.12,7.2.62-.41.39,3.49,1.69,2.38h0l5.91,8.19-.52,5.21.77,1.74-2.08.49-1.15,2.59-1.31-.2-4.39,4.5-1.85,5.72-7.39,4.85-2.89,4.86-.89,3.63-.76,5.9.2,1.43,1.17.54h0l-5,4.47-3.59-3,.19-4.26,3.2-3.41,1.46-8.52-.93-3.56-3.06-3.52,2-3.37,2.46-8.85,5.07-7.49L390.29,739l1.43-2.55-.06-2.74-1.79-2.8,2.26-3.13-.44-9.2,1.65-.76.79-1.74-.54-3,1.73-7.67-.16-4.34-2.63-2.71-1.39.76L382,696.53l-2.42.83Zm-29.7-7.73,5.69.42,1.31,1.22-1.15,1.4L347,691l-1.61.59Zm8.73-6.84,1.67,1.82.38,2.21-2.17,1.07-1-.87-.17-3.43ZM341,670.79l2.36.35,1.72,5.26,1.26.77-2.79,3.49-2.4-5.22,1.86-1.15L340.31,673Z"/><path id="PH-APA" class="cls-1" d="M312.51,197.1l3.06-1.5,2.63-3,.3-1.76,3-.9.31,4.18,11.58,4.21,2.66,3.09,2.4.11,10.76,6.12,1.63,6.23-2.06,13.35-3.31,1.46-6.56,15.53-1.25.73,5,1.75,4,4.39.83,3.47h0l-3.19,1.92-.7,1.75L333.76,256l-1.91,3.53L324.24,255h0l-1.66-10.62-2.4-1.81-4.1.33-1.67-7.27-4.31-2.92h0l.92-1.44-.29-7.81,2.86-5.11L312.36,216l-1.22-12.88Z"/><path id="PH-AUR" class="cls-1" d="M406.78,343.14l-1.17.72-1.09,3.68-2.11,1.76,1.72,3.42,1.19-3,.29.69-1.36,4.83-2.4,1.61-.87,2.38,1.14,1,3.08-1.67-2.28,3.3-.08,2.07L393,373l.18,2.19-3,3.07-3.1,1.57,2.75-5.64,4.77-4.79.15-2.71,2.46-1.61.16-2.69-2.72-.19-1.63,1.67-.54,1.88,1.06,2-4.33.77-6,4.06-4.76.31-6.6,4.47-1.43-1.12-1.34.62-5.57,4.78-1,2.63-1.73.32,0,1.09-5.19,3.95-.12,8.32,1.34,2.68,2-.82,2.75,1,.16,3.37-2.12-.21.11,1.71.15,1,.2,1.73-2.39,1.17-3.87,6.54-2.69,1.61-1.32,8-1.52.48-1.64,3.49-2-1.56-1.44,1.47-.79,3.93,3.33,7.27h0l-1.32,1.1.22,1.56L343,444l1.33,1.29-.12,2.18-4.1,6.14.7,1.85-.69,1.63h0L338,442h0l4.68-21.25-6.86-21.49h0l13.5-11h0L376,364.91l16.67-19.55,4.84-3.18h0l10.2.49h0Z"/><path id="PH-BAN" class="cls-1" d="M276.19,462.09l2.68,1.37.4,3.23,1.61,2,1.94,1.21,1.87-.5h0l.3,1.2h-1.81l.12,2-.83-.08v4.79l2.56,5.61-.26,2.69,1.6,5.59.86.4-.28,4.07-3.3,4.15-5.37-.86.75,2.16-2.2-.61-1.71-2.4-1.56.43-.15-.93-2.43-.44-1.09-4.89,1.15-.91-.66-.87.89-2.9-1.88-2.9-1.37.52L266.85,484l-1.42.79v-1l-.79.4-3.87-4.3.42-3.19,1.83-.06-2.76-1.88,2.84-1.43-1.75-.62.7-1,2.06.08h0l4.63-3.63L270,465l4.35.68Z"/><path id="PH-BTN" class="cls-1" d="M376.69,51.1l3.23,3.56-2,3.81-1.6-2.08Zm11.5-10.25,2.3,1.91-5.24,4,1.28,1.58L386,50.23l-1.69,1.5-2.52,0,.83-4.83,2.88-2.75-.7-1.81ZM378,14.24l1.43,1.89-1.09,2.09.62,1.86-1.41.6-.83,2.87-3.33,1.95L372.05,23l2.38-3.09L376,15Z"/><path id="PH-BTG" class="cls-1" d="M321.53,563l1,2.91-1.35.62-2.8-3.36,1.37.62ZM303,554.47l2.06,1.77,5,.53,1.39,1.42-3,1.07-2.32-.74-2.34-1.2Zm-17-40.25,1.88.66h0l4.36,1.43-.69,1.8,2.47,2.68,4.28.24,5.28,3.69.48,2.06,2.88-1.83,1.15.57,4.13-1.14,6.83-3.84-.58-.69h0l4.71-.18,6.29,1.83,1.59,7.77,1.92,2.91,1.33-.22,0,2h0l.31,1.85-1.54,0-.48,1.19,2.53,3.52,7,.53,1.09,1.52,5.25,2.19h0l-1.76,4.34,1.25,3.06-.46,1.82,1.16-.32.74,1.2L346,557l-2.83-1-7.13,5.29-1.84,0L332.29,559h-2.23l-1.38-1.27-7.59,1.91L318,558.56l1.23-2.43.57-4-.72-1.23L318,548.8l-2.56-1.26-2.68.73-5.16,6.65-1.43-2.74,3.93-3.18-1.86-4.44,1-.62-.23-3.45-2.25-1.81-6.59-2-3.49-.62-2.54,1.14-.69,2.11,1.81,2.56-.33,1.23-4.71-1.42-.12,2.25,1.81,3.06-1.35,1.54-2.6-3.22.67-.85-.95-.87.08-8.77-1.21-1.55,2-.19-1.21-4.21.74-1.66-.28-4.53-3.84-1.58,1.45-.52,1.66-.1-2.69-1.9,2.92-.52-2.2-1.16Z"/><path id="PH-BEN" class="cls-1" d="M299,311.65l5,4.67.77,2.58,1.74.84h0l1.43,3.58.47,13.87h0L306.9,344l.55,5.42-3.33,8.49-2.87-.16-3.41,6,.72,3.13h0l-8.24,1L280,364.18h0l-3.13-19.58,2-3.29,4.51-4.2-1.23-.8,2.8-3.89h0l2.9-5.38,1.67-12.44,2-1.11,5.22-.24Z"/><path id="PH-BIL" class="cls-1" d="M564,701l2.91.1,5.1,2.22,3.35,7.84,2.51,1.86-.85,4.05-2,1.18-4.76.25-.58-.75L568,719l-2.74-1.84-1.46-3.9-1.16.33-1.08-1.71.3-2.62L559,705.64l.29-1-1.1-.93,2.09-1.73Zm-7.54-7.87,2,.8-.17,2.18-1.68,1L554.29,695Z"/><path id="PH-BOH" class="cls-1" d="M521.27,852.38l2.54,1.34-.17,1.57-5.15,3.83-3.35.4-.44-2.15-2.07-.86Zm-4.47-18,1.23.31-2,1.84-.46-2.12Zm3.51-1.55,2.8.31-1.93,1.6-2-1.58Zm57.59-17.68-2,3.08,1-.2.11,1.89-3.21-.28-.56,2.66h-1.26l-.57-1.93.9-1.53-1,.34,0-1.52,2,.34.22-1.42,1.45,1.57.38-2,.85-.52Zm-23.67-1.53,3.56,2.5.08,1.81,2-2.89,1.67,1.74.15,1.78,1.59.29,4.67,3.35,1.78-1.45,3.07,2.63,1.06,3.32-1.19.41.66,4.39-1.26.51,2.85.78-1.25,2.89-3.31,1.67,6,3.25-.45,3.79L574.51,846l-3.69.76-1.65-2.93-.92.09-2.71,2.87-2.83.85-.66,4.19-10.26,4-5.17-.86-9.31,1.54L522.45,853l-.68-2.27,1.87-3.65-.53-.49-1.75-1.29-3.74.17-.18-3.94,1.55-2.93-1.35-1,.1-1.16,2,.61-.41,1,1.86-1.47.3-1.65,2.33-.89-.41-1.14,1-1.27.8,1.23,5-3.28,4.77-.8,1.25-1.55,1.36-5.82,2.66.12,3.9-6.39,9.13-.11Zm-7.73-.32.57.46L546,815l-1.36-.7Zm5.47-2.13-1.79,2.12h-2.12l-.63-.67Zm-6.49-.37,1.07,1.12-2.5.45Z"/><path id="PH-BUK" class="cls-1" d="M574.12,955.23l1.22-2.14-.28-2.34.91.44,1-1.09-.43-2.73,1.18-1.8.2-4.15,14.43.2-.18-3.81,3.94-8.74,11.7,1.08,15.61-.17h0l1.23,15.4,1.21,2.47,3.85,2.65,1,3.61,1.39,1-.79,3.07,1.42,3.06-.28,3.83,1.42,1.63-.91,3.78.46,2.92h0l2.84,5.36-.25,6.89,1.84,3.81-.87,8-2.53,2.48-2.14-1.24-3.29.79-1.47-1.55-3.52.38-.14,4.68h0l-2.28-.92-.18,1.56-1.69-.11-2,3.57-.76,4.19-6.36,1-1.35,3.36-5.5.38-3.24-2.3-3.52,1.2-.14-1.24-2.76-1.34,0-2.07-1.63-1.19-2.11,1.13.84-2.7,1.84-1.75-1.33-4.52h0l-.31-1.43-3.54-2.18,0-1.94L586,994.11l-.08-3.08-1.39-.73-3.49-6-2.14-.76-1-1.77.49-1.46-1.88-1.05-3-5.74-1.79-7.89-2.69-3.32h0l4.71-1.51,1.06-2-1.05-1.74Z"/><path id="PH-BUL" class="cls-1" d="M312.1,440.54l4.77-2.56,8.9-1.5,7.07,5.1,5.12.36h0l2.19,15.1h0l.25,7.84h0l-6.31,3.8-5.52,1.1-.35,1.7-4.63,3.29h0l-2.91-.34-1-1.27-1.07.32-.29,1.57-2.41.6h0l-.26.26h0l-1.05,2.39-1.41.21-.29-1.4-1.37-.56-.88.4,1.62,3.21-.92.47-1.26-1.58-.79.77h0l-1.35-1.55-.93.25-3.31-2.36.07-1.87-1.1-.41-.54-.49-1.23,1.76-3.25-.08-1.27-.54-4-.54-.42-.88,2.28-1.31-.32-1.43,3.23-5.14-.08-2.35,6.36-.58,4.66-3.75-.19-2,1.49-.32.22,1,1.28-3.1,2.05.09.24-3.33,1.2-1.68-3.16-4,1-1.57Z"/><path id="PH-CAG" class="cls-1" d="M397.66,186.85l1.69.19-.24,4.38-2.84,1.65.79-3.47-1.09-.19.1-1.08Zm-73.28-3.49,5.31,1.5,7.71,6.21,6.45,3.11,1.3.57.57,1.46,2.67.38,11.09,6.31,20.67,7.66.63.73,8-2.06L394.5,204l.73-2,2.13.09-.4-3.22,1.64-6.34,1.38-1.09,5,.37,1,5.13,4.67,4.35,1.81,6.4-2.65,6.85L407,218.27l-3.36,1.28L400,224.82l.16,1.34,1.21.34-.8,2.08,1.15,1.22-.88,5,.5.57.28,3.16-1.88,1.85.44,2.44-1.41.76.54,1.41-1.44,1.79.5,4.1,1.76,3.05-.9,1.24.81,1-.32,4.37,2,4.79h0l-24.61,1-2.21,1.28-12,.74h0L350.12,255.9l-2.86.48.2-1.78h0l-.83-3.47-4-4.39-5-1.75,1.26-.73,6.56-15.53,3.31-1.47,2.06-13.35-1.63-6.23-10.76-6.12-2.4-.1-2.66-3.09-11.57-4.21L321.5,190l-3,.9-.3,1.75-2.63,3-3.06,1.51h0l.85-10.26h0l4.47-2.9,1.79,1,2.32-.56.42-.9Zm21.26-21.2,4.65,1.72,0,.73-2.14,1.48-7.67,1-3.9-.15-1.24-1.1.5-2,2.06.5Zm36.28-7.48,2.06,0,3.38,3.33-.24,1.41L385,160l-.47,2.41-4.34,2.46L379,168.3l-1.62,1.06-1.28-.66-.72-4.16,3-.93L377,161l1.49-2-.3-2Zm-50.73-12.74,2.2,5.07.06,7-3.87-4.15-.06-3.09ZM345.05,125l5.73,2,2.63-1.62-.17,5.07,1.46,3.68-2.28,1.13.08,1.15-7.9-3-1-3.57-3.19-2.08,2.44-.57.81-1.93Zm40.68-13.87,1.65,1.54.16,3.19L385,118.69l-4.13-3-.75-2Z"/><path id="PH-CAN" class="cls-1" d="M425.87,505.68l6.35,2.27-1,.83,1.71,1.06.8.31,1.24.57-.79-1,.83-1.8,1.14,1.05,2,1.28-1.83-4.05,1.4-.5,2,.43.62,2,2-1.23,2.93,1.26-.38,1.89,1.53.17,1.4-.17,2.73,1.12,3.64,3.8-.15.38.15,1.55,1.7.23,3.67,5,1.86.88.72-.12,1.4,1.08.38,2.25-1.2.29-.14,2.28,1.94,3.05,1.95.84.86,6.62-1,1.54-1.09-.16-.61,2.74h0l-8.52-6.88-10.83-6.29h0l-25.29-10-5.56,6.21-4.68-.21-.11-1.09h0l.68-1.62,2.17-.94.58-.49-.08-1.29-.78-1.06-.32-3.23,1-.89.2-1.17,2.43.77-1.7-2.44,1.49-.7.38-2.17,1.78.15.49-2.22,1,1.06,2.83-2.94,1.06.89,1-.74.93-.51Zm30.64-6.79,2.53,2.24-1.81-.18-2.2-1.86Zm.53-4.24.73.08-1,1,.74.68-1.34.29.31,1.11-3.11.31Z"/><path id="PH-CAS" class="cls-1" d="M520.11,533.18l1.38.42-.62,5.93-1.78-4ZM507.37,533l1.22,1.32.64-.43.54,1.7-3.84,2.67-1.78-.51.23-3.47,1.1,1.55,1.15-1.85,1.66,1.45Zm-22-9.42,1.29,2.09-.33,1.66,1.38,1-1.57.19-.69,1.86,1.51.31,1.73-1.9-.36,2,1.11-.22.52,1-.84.82,1.62.19-.58,3,1.59,1.37,1,.59.89-1.1-.79-.52.21-2.25,3.89,2.17-.89,2.1,2-1.31.3,1.17,1.6.43.15-1.79,2.1,1.21.65.17,1.43,1.58,3,.8,1.47-.82,1.16,1.17,2.5-.42-.9-.59,1.13-2.29-.7-1.55,1.66,1.69.86,2,1.26,2.15,1.59.29-.43.74,1.95.27,3.24,2.68,1.46-1.1,2.33,2.18,3.06,0,.51,3.1,1.54-.1,0,3.45-.37-1.3-2-.68-.33,1.21-4.3-1.37-2.68,3-2.47.74L515,552.85l-5.53-.76-1.21,1L501.2,551l.71,1.39,1-.46-2.42,3.57-1.15,4,.76,1.27.51.15-1.51,2.62,1.2,1.05,1.42-.75,1.19.64,1.23,2.26h0l-3.41.32-.79,1.1,3.08,4.73-.29,3.25-6.84,2.76-2.08-.74-1.86.58L489.78,580l.05,1.07-1.19-.74-8.09,5.84h0l-2.7-2.08-2.08-4.16-.22-3.72-1.34-2.79L464,567.9l-.9.52-2.44-1.57-1.93.08-1.95-2.13-4.45-2-4-4.67-2.47-.81,1.85,0,2.73-3-1.86-3.31L444,548l-1.64-1.05-1.66-2.19-1.87.4-1.51-.95,0,1.5-1.9-1-1.19-1.38,1-.93-.79-2.33-4.55-1.7.58-1.49-2.22.31,1-.9-1.47-1.16h0l17.73-4.83h0l10.83,6.29,8.52,6.88h0l-1,4.51,5.58,3.71,8-.31,3.15-1.52,3.3-3.76.27-1.9-3.05-5.14,3.51-3.19.62-2.41-1.15,1.36-.94,1.72-1.29.26-2.49-1.58.35-1.05-2.36-.4-.35-2.27,2.66-1-2.32-1.09,4-.39-2.3-3,1.54,0,3,2.81-.67-2.46,2.76-.08-1.31-1.65Zm-3.05-1.73,2,1.3-.72,1.61-2-2.45Z"/><path id="PH-CAM" class="cls-1" d="M584.64,880.66l5,3.92,1.41,4.16-.48,1.12,1.09.75-2.25,3L587,891.93l-4.82-1.16-3-3.72.57-4.61Z"/><path id="PH-CAP" class="cls-1" d="M439.86,708l5.6.31.08,1L448,708.1l.21,1.06,2,2.09.56.86-.68,1.58.8-.37.79-.39,3.84,2.1-1.07,1-.46.31-1.94.76.57,1.53-2.12,1,2.48,2.27.61-.86.77-1.27.26-2.29,1.25.53.52-.27,3.41-.25,7.81-4.5h0l-3.46,6.94,0,3.92-2.47,1.2-2.75-.15-3,1.74.84,4-4.23,2v2.94l-1.13-.26-1.64,3.62-5.07.74.12-2.75-1.46-.66-8.14,1.21-1.8-1.76,1.65-2.09-1.08-.23-3,3.3-1.2-.74.13-1.29-1.31.86-.87,2.62-3.92,1.77-3-1.08-4.52.15-5-2.61-6.05,6.34h0l-1.69-2.38-.39-3.49-.62.41-.12-7.2h0l5.43-1.45,2-1.58,2.07-2.27,1.39-4.06,1.45.35,1.79-3.24,8.43-.09,4.69-4v-1.23l1,1.33,0,1.1,2.66,0,2.08-1.39-1.59-.74,1.11-2,.73,2.35.81-.08,1-.25-.35-1.37,3.19-1.08-.65-1.3-.61-.77Z"/><path id="PH-CAT" class="cls-1" d="M557.38,533.53l1.46,1.82-2.16.28-1.26-2.86,1.23.49-.19.94.29-1.88ZM548.14,524l4.67,6.12,1,5.43,2.12.72-.37,3,1-.38.41-2.47,1.79-.52.23,2.52,2,.95.27,1.6.52-2.07.17,1.7.38-.79.85,1.52-1.09.48,1.57,1-1.6.83,1.14,0-.38,1.58,1.17,1.31-.54,1-1.82.2,1.22,2-1.14.17-.71,2.52,2.27,3.83-2.76,1.53,0-1.35-.88.21-1.72,1.43.64,3.29-1.77,2.84,1.36.61-2-.23-.19-2.47-2-.57.56-.88-5.85,3-.47,3.62-2.65-1.09L541,561.65l-4.4-.73,1.17-1.08-3-3.44,5.22-3.11,3-6.75-.56-6.6,1.46-3.15-1.47-3.74-.16-1.9,1-.91-1-3.41,3.24.7Z"/><path id="PH-CAV" class="cls-1" d="M309,494.11l-.62,1.14-.34.52-.71,2,1.19-.56.63.74.3-1,3.74-1h0l-.07,2.1,3.19,4.9,0,2.32h0l-.29,2.87,4.5-1.28-2.56,6,1.27.41L317.79,516l1,.27-.3,3.57h0l.58.69-6.83,3.84-4.13,1.14-1.15-.57L304,526.8l-.48-2.06-5.28-3.69-4.28-.24-2.47-2.68.69-1.8-4.36-1.43h0l.09-3.36,2.36-1.47,2.76.38,1.49-1.09,1.23-1.39,2.76-1.35,7.32-7.32,1.69-4.53Z"/><path id="PH-CEB" class="cls-1" d="M538.38,805.24l-1.28,3.65-.93-.3-.61-.89Zm-6.14-3.41,1.4,1.57,2.8-1.49-4.54,5.51-1.13-.07-1.76,1.2-.74-1,1.75-1.32-.3-.63-.66-.06-1,.58.47-2.18ZM565,773.71l5.11,2.78.37,1.78-5.21,2.08-3-.08L561,779.11l-.24,1.51-5,2.74-2.65-.31,2.09-4,.85-4.75,4.25,1.4.72,3,2-4.17Zm9.14-7.07-1.31,4.06-3.27,2.2-.24-2.18,2.46-3Zm-36.47-34.15-.43,1.37,1,.36-2.37,3.58-.15,4.28-3.83,5.52,1,.18.08,1.41,3.21-.21.17,5.75-1,3.49,1.78,3.47-1.65,3.14-.24,4.19-1.75,1.91,2.1,12.8-1.07-.35.5,2.45.61-.66.21.77-.33,4L533,796.08l1.67,2.17-3.41,2.81-.61,1.26-5.93,2.86-1.55,3-7.08,1.66L515.4,812l-5.13,5-.34,3.05-2.89.12-1.89,6.47.74,3.4-1.29,2.83.1,2.63-2.53,1.23-1,3-1.71,1,.11,3.32-2,1.94,0,2.56-3.14,9.14-8.32,10.81-3.66.52-.29-6.13,3.35-20.87,1.95-2.33,0-3.78,1.47.13.75-2.69-.6-2.27-2-.83.23-3.08,1-.67.5,2.21,1-.64.87-5.49,2.36-.94.16-1.3,4.93-5.22.74-3,4-5.12-.07-4.79L509,796l.59-3,2.78-3.07-.73-3.4,2.88-4.59-.16-1.95,4.3-6.48,2.26-1,2.55-7,1.05-3.34,3.79-8.59,0-1.26-.82.61-1.5-2.33,2.34-2.33.1-3.1,2.3,1.74L529,739.28l3.39-3.14L533,733ZM513.5,730.9l1.47,1.21,1.29,5.5,2.92,3.19-.06,1.08-6.29,1,.8-2-1.1,0-2.11-4.63Z"/><path id="PH-COM" class="cls-1" d="M690.09,972.37,689,974.48l7.22,23.76,3.14,14.49.41,12.71-24.92,12.76-.72,1.51h0l-4.24-3.73.61-2.89-4-6.39,1.29-6.89-.37-1h-1.34l.8-3.24-1.19-1.87.55-2.12,3.75-1.85-2.42-3,4.86-1,1.36-7.58-2.54-3.21,3-5-1.77-4.85-3.85,4.33-4.79,8.13-1.67-.14.33-2.51-1-2.57-2.16-1-.79-2.41-1.78-.64-2-15.69h22.18l1.25,2.6,3.46,2,1.65-1.74Z"/><path id="PH-DAV" class="cls-1" d="M655.39,1047.89l1.46.19,1.08,1.61-.45,2.87-1.92-.69-1.35-2.88Zm1.64-17.14,1.86,2.08,2.09.43,2.58,3.32-1.56,6.21,1.25,6.78-2,3.35-3.07-5.25-.81-7.58-1.19-.54-1.18,1-1.11-2.21ZM654.7,972.5l2,15.69,1.78.64.79,2.41,2.16,1,1,2.57-.33,2.51,1.67.14,4.79-8.13,3.85-4.33,1.77,4.85-3,5,2.54,3.21-1.36,7.58-4.86,1.05,2.42,3-3.75,1.85-.55,2.12,1.19,1.87-.8,3.24h0l-1.49-.23-7,4.72h0l-3.25,0-4,4.09-7.62.36-.28-23.21L624.1,1004h0l-.23-1.06h0l.14-4.68,3.52-.37,1.47,1.55,3.29-.79,2.14,1.24,2.53-2.49.88-8L636,985.67l.25-6.89-2.85-5.36h0Z"/><path id="PH-DAS" class="cls-1" d="M624.09,1004l18.27.46.28,23.21,7.62-.36,4-4.09,3.25,0h0l-2.55,2.18,0,1.3-2.24,1.06,1.15,8.13-1.08,2.2-3.22,3.55-1.82.45-.26,1.19-1.33-1.61-2.48,1.41-2.7,3.41.2,4.35-2.35,1.7-.34,1.88-2.36,1.64-2,3.28,0,.69-.11,2.83-1.33,2.08.88,6.6-1.86,2.46,2,.1,4.05,1.57.32-1.25-1.95-1.93.65-.87,2.47,2.86,1.5-.3-.15,2,2.71,1.19-.06,2.58,2.36-1.13,2.24,1.44-1.32.66.58.71,1.59-.34-.95,5.3,1.88.63.81.59,3.9,11,2.28,3.31.71,3.19-.68,3.52.85,1.39-1,5.65-2.91,7.54-10.8,12.36-1.11,3.43-6.13,9.49-5.89,1.28-.75-1.06h0l-1-1.44,6.27-4.69,5.39-11.39.1-2,1.27-.87-.55-4.16,3.92-10.84.25-3.62-2-2.24-.43-7-3.36-5.14,2.44-2.64-.46-4-4.45-6.6-5.22-1.54-2.3,3.53-5.07,2.3-5.67-3h0l2-3-.14-1.88h0l-1.12-6.23-3.48-4.27-.09-3.09,1.45-.66-2.27-1.73h0l-1.47-4.53,1.75-1.08,1.4.88,1.17-1.3.35-3.06,6.54-5.46,1.58-4.67,2.66-.28-1.75-2.57-.37-4.55-3.12-2.58-1.09-2.43,1.38-4.37-1.41-6.72,1.56-2.46-.38-6.2,1.65-2.92Z"/><path id="PH-DAO" class="cls-1" d="M703.76,972.3l.7,6.63h0l-.05,1.92,1.76,1.16-.78,1.11.71,1.64,3,.09-.11,1.27,2,.42.46,1.21,3.1,3.7,2.32-.24,2.7,1.65-1.37,1.56.71,1.74-.63,2.67,1.81,2.22-1.13,0-.3,2.05,1.79.72,1.2,6.17-.3,2.49-2.7.12-.5.89.15,2.38,1.86.49-1.61,1.58,1,3.44-1.38,1,1.13,1.77,2.81-.07-2.89,4-.28,2.25-2-.33.25,1.61-1,1.14.6,1.63-1.15.29,0,1.37-2.06.49-1.58,2.24.53,1.62L711,1041l-.44,2.72.94,1.77-3.23-.68-1.13,1-2.36-.13-1.89-1-1.71,2.08-.49,2.83-2,.77.63,1.73,4,3.39.33,4-2.72,0-1.77-1.39-.2-1.69,1.12-1.27-1.7-1.56-1-2-1.54-1.74-3.29-1.15-1.42,3.74,1.27,1.12-.94.61,5.74,8.86-3,8.66.9,6.07-1.4,2.72,0,2.61,1,3.52-1.07.34-1.09,2.55.72,5-1.12,3.77-.41-4.88-1.47-2.47-2.23-1.2,1-2.3-2.86-3.38-2-4.78.66-4.86-1.75-4.2,1.75-2-.7-1.09,1-2.82-1.59-1.77.35-6-4.12-2.25-3.37-3.89,1-6.09-2.88-2.53.58-1.08-1.15-.88h0l.72-1.51,24.92-12.76-.41-12.71-3.14-14.49L689,974.52l1.13-2.11h0Z"/><path id="PH-DIN" class="cls-1" d="M639.92,792.42l2.22,1.26-.3,1.69-1.52-.32-1-2.18Zm12.39-.66,2.82,5.85-2.5,6.34.43,4-2.26-1.3.26,1.65,1.62.35,1.08,3.18-1,.89.38,1.52,1.58-.19-1.28,1.38.16,2,2.7,4.54-1.88,4.82.51,2.26-1.64,1,3.69,4.13-.46,1.91-1.72-.11-.76,1.12L652.31,835l-.1-4.06-3.62-1.23,1.84-.44-1.84-1.15-1,0-1.31-1.05,1.47-.63-.46-2.16.14-1.1,1.11-.59-.1-1.89-1.29-.75.34,1.69-2.06-1.38-2.76,1.55L640,816.5l1-.66.8-3,1.94,0,0-.59,1.24-.86-2.19-2.89.61-2.48-.2-.65-.3-2.65,3.23.08-.64-4.52,2.26,1.7,1.12-.48L650.1,794Z"/><path id="PH-EAS" class="cls-1" d="M675.15,769.44l.72,2.18-2.28-1.94Zm-19-3.52,2.38,1.92-1.23,2.51.52,1.26,6.81,1.16.63,1-.81,1.59-4.15.49-2-2.14-1.88-.43.22-.88-2.3-.67-.85-3Zm-3.59-13.36.49,1.9-.91.48-1.63-1,.11-1.2Zm8.83-2,5.15,6.82-1,.11-4.39-5.46Zm-44.59-92.35,1.06-4,2-2.21,7.1,8,2.12-1.27h0l-.3.59,1.44.19,1.34-2.65,1.84.25-1.79,1.7.71.63,1.21.37,1.05-1.15.5.88.5-1.19,1.9.86,1.88,2.19-.64,1.19,1.63-.25.14,1.39,1.09.72,0-1.09,1.53,1.91-.34,1.52-.89-.88-.11,1-3,.37,1.37,1-.52,1-1.63.1,0,2.42,2.64-.17.63.82-1.51.33,2.12,2.15,1.31,0-4.38,5-2.14,2.72-.44,4.54L637.9,689l-.5,3.38,1.93.51.79,1.86-.87,1.47-1.59-.67-2,1.7,1.39,0-.42.74,1,.68,1.57-1.41,1.51,4.71-.85.72,1.54.87-.8.83-2.11-.5-.42,1,1.21.88-1.81,2.21.72,1.73,1.84-.14-.31,3.41,3.35,3.79.22,1.51-1.78,1.92,2.07-.48,1.59,1.16.58,2.35.79.88,1.47-.39,1.41,2.45,2.18.67-1.37,4.06-4.88,3.13-1,4.43,4.62,1.47-.65-.69,1.94,0,.3-.84-2.3-1.88.89-.55,4.78,2.57,7.1,12.15-.75,1.35-2.5-1.08-1.17-2.76-2.2-1.25,2.16-2.26-2.63-.17-.38-1.84-5.64,2.1-.54-.31-1.21-.69.86-1.56-2.92-.13-1.33,5-1.55-1.41-1-.47-1-1.39-.93.59.38,1.41-1.41-.9-.18,1.43-1.78.69-.22-1.35-2.29.07-1-1.48-3.13.2-1.43-1.94-2.34.51-.88,1.37h0l-.28-14.67,4.16-6-1.55-2-4-1.37L620.66,709l1.05-2.58,4.43-3.23-.88-13-4.5-10.4H614l-.19-12.65,2.41-1.57Z"/><path id="PH-GUI" class="cls-1" d="M439.17,791.56l1.61,1.57-3.25.7.25-1.78Zm-3.32-20.47,3.89,2.76.6,1.72.37,5.6-3.12,6.23-.17,2.25-1.31,2.13-1.35,0,.14,1.49-1.43,1.2-3.35.43-2.8,1.58-2,.07-.44-3.26-2.5-2.19.62-1.91,2.88-.71v-1.76l-.94-3,3.82-4.46-.11-1.65L430,778l2.09-1.23.38-3.12Z"/><path id="PH-IFU" class="cls-1" d="M306.56,319.74l2.68,0,2.32-2.25,2.5-5.72-.91-2.88.64-2,3.4.29,2.43-1.32,3.63-.22,8.63.59,9-4.56,6.37-1,8.35.67h0l2.38,12.8-3.07,3.57-6.3,1.93-1.66-.79-2.15,2.65-2.82.33-.87,1.73-1.31-.13.7,1-.83,1.29h0l-1.36,3.71-1.85.65.41,2.05-1.31-.54-3.7,1.59h0l-.38.12h0l-23,3.82h0L308,323.32Z"/><path id="PH-ILN" class="cls-1" d="M304.25,181.6l4.68,6.68,3,.36,1.4-1.8h0l-.85,10.26h0l-1.37,6L312.37,216l1.24,2.38-2.87,5.12.29,7.8-.92,1.45h0l-1.31,2.08-5.55-.71-3.63,3.66-4,1.43-2.71,4.4-7.86,2.7-3.41,7.24h0L280.12,252l-.26-2.19,1.5-9.85L275,238.5h0l-1-1.06,2.64-2,.6-2.51,1.75-1.6-1.79-2.47.26-3.92-.56-.4,3-3.56.46-3.84.77-.51-.48-.74,3.93-5.91,1.77-5.09-.38-5-2.38-6.15,4.52-4.08,6.53,1.33,4.17-1.1,1.15-2.13-.44-3.85Z"/><path id="PH-ILS" class="cls-1" d="M275,238.47l6.36,1.43-1.5,9.85.26,2.19,1.48,1.59h0l-2.35,4.85-1.08,7.17-1.48,3.27,1.11,1.57,3.1-1.42,4.38,1.78-.5,3.46-2.9,5.51,1.39,3.77,4.09-.22,5,4.15-.07,4.3-1,.37,2,2.52,4.51.2,3.06-2.27,4.31,0h0l-5.64,5.87.45,10.43-.82,2.81h0l-2.33,1.59-5.22.24-2,1.11L287.77,327l-2.9,5.38h0l-3.51-4.24,1.27-4.06-1.07-.77.63-1-1.5-.22.94-1.38-2.08-2.22.74-5.67-2.22,1.35-.93-1.09-1.48.62-3.14-1h0l2.66-4.49-.68-7.49-.82-7.31L272,290.77l2.3-5.71-.91-.13.3-3.55,1.29-.23.85-3.8.63-1.45-1.17-2.84-1.23-.4.32-2.06-.95-1.43.06-.84-1.45-.5-1.25-.38.18-1-2.74-1.2-.54-2.06,2-7.15.36-1,4.33-3.77-.46-1.62-1.67-.24,1.43-1.28L272,246.58l2-.78.4-1.42,1.63-.08-1.32-3.06Z"/><path id="PH-ILI" class="cls-1" d="M471.12,741.63l.48.91-2.7,3.12-.58-2.72Zm1.59-4.85,1.63.08-1.33,2-1.07-1.33Zm-.21-6.69,2.11,1.44-3.21,3.31.21-4.12Zm6.83-11,1.29,1.07-1.86,1.72-.62-2.35.38-.84Zm-1.75-.28-2.12.31-1.12-1.24.56-1.9,1.4-.5.64,1Zm-2.81-5.56-.39,2-2.62,1.53.68-2.4Zm-3.44-4.3,1,2.72-1.82,4-1.21-1.47-.51.86-1.29-.33,1.25,1.78,2,.31-.94,1.11,1.8-.81.92,1.34-2.7,4,1.73,1.66-.73,2-1.13.33.5,1.31-2.46,1,.66,2.41-1.15,5.08,2.28,2.23-.27,2.45-1.22.67L465,739.32l.38,1.31-2.66,0-1.51,5.47-2.42,2.51-.18-.77-1.61.31.89,1.18-.83,1.18-1.19.08.52-1.82L455,748.1l-1.31,3.35-2.48-.82-1.49,1v2l-1.51-.83-3.55,1.14L443,756.88l2.2,3.81-.83.27.36,2.63-1.75.73.26,1.69-2.58,3-4.09-1-.54,1.31-3.91.33-1.53,2,.85,1.35L430.1,776l-9-.05-13.31,2.23-2.09,1.65-2.73-.25-4.69,4-3.46.73-1.27,3.59-3.45,4.28h0l-1.17-.54-.2-1.43.76-5.9.89-3.63,2.89-4.86,7.39-4.85,1.85-5.72,4.39-4.5,1.31.2,1.15-2.59,2.08-.49-.77-1.74.52-5.21-5.91-8.19h0l6.05-6.34,5,2.61,4.52-.15,3,1.08,3.92-1.77.87-2.62,1.31-.86-.13,1.29,1.2.74,3-3.3,1.08.23-1.65,2.09,1.8,1.76,8.14-1.21,1.46.66-.12,2.75,5.07-.74,1.64-3.62,1.13.26v-2.94l4.23-2-.84-4,3-1.74,2.75.15,2.47-1.2,0-3.92,3.46-6.94h0Zm15.1.29-1.6,1.58-1-.84.58-1Zm.15-3.13-.81,2.31-.5-1.94Z"/><path id="PH-ISA" class="cls-1" d="M401.75,265.35l0,3.15,4.35,7.11-1,.64,1.27,1.2-.56,1.72,1.41.8,1.39-.59.12,1.66,1.73.59.87-.76,2.26.55,1.21-1.39,1.63,1,1.08.53,2.63,5.24-.24,1.72-.73,2.11-1.3,2.24.43,3.38,1.36,1.2.81.58L423,298l1.93-2,1.38,3.33L425,303.91l-3.19,4.6.75,1.92-1.47,3.62.73,1.15-2.72,4.59.54,2.09-1.27.84-8.73,17.78-1.94,2.14h0l-10.2-.49h0l-3.58-.26L370.2,352.7l-14.35-18.06L345,333.76h0l-.62-3.46-4.75-4.51h0l.83-1.29-.7-1,1.31.13.87-1.73,2.83-.33,2.14-2.65,1.66.79,6.31-1.93,3.07-3.57-2.39-12.8h0l-.33-15.71h0l4-8.87,5.11-3.64-1.37-4.8h0l12-.74,2.21-1.28,24.61-1h0Z"/><path id="PH-KAL" class="cls-1" d="M347.49,254.6l-.2,1.79,2.86-.48L363,268.34h0l1.37,4.8-5.11,3.65-4,8.87h0l-10.1-1.91-5,1.75-6.64,7.18L327.11,294l-5.49-1.89-2.18-3.06-10.29-1h0l5.78-12.18.26-6.25,8.15-5.26.69-2.15-2-5.86,2.26-1.31h0l7.61,4.52,1.91-3.53,9.84,2.24.7-1.75Z"/><path id="PH-LUN" class="cls-1" d="M272.53,312.73l3.14,1,1.48-.62.93,1.1,2.22-1.35-.74,5.66,2.08,2.22-.94,1.38,1.5.22-.63,1,1.07.78-1.27,4.06,3.51,4.24h0l-2.8,3.89,1.23.8-4.51,4.2-2,3.29L280,364.18h0L279,366.1l-6.1.23h0l-1.15-3.25-2.55-1.58-1.22-.7-.21-4.89-1.62-3.24.11-.41.4-5.53-1.89-2.45.44-1.4.77-4-3.09-3.46,2.25.48,0-2.39,2.16-3,.26-3.7-1.27-5.11.79-2.58,4.61-3.3Z"/><path id="PH-LAG" class="cls-1" d="M349.44,488.48l6.46,12.43,1.08-.7,1.64,1.59,1.93.25.56,9.86-4.77,6.73-1.19-.09-1.88,1.85-2.17,5.38-4.45.73-7.37,5.82-5,1.63h0l0-2-1.33.22L331,529.27l-1.59-7.77-6.29-1.83-4.71.18h0l.3-3.57-1-.27,1.41-2.72-1.27-.41,2.56-6-4.5,1.28.29-2.87h0l3.12-2.1.44-8.62,3.16-2.7h0l2.21-.21,2.05,1.5,3.77,7.58.25-4.7,1.09,0,1.33-3.24,1.94.31.21,2,1.6.06,1.67,1.69.94,3.75-2.51,6.24.25,2.82,5.75-4.06L342,504l.55-2.33-1.09-4.35,1.13-4.56,3.1-2.95Zm-15.36,17-1.19-.18-1.24-5.55-.52,5.29,1.92,4.52-.15-2.8,1.27-.3Zm.14-12.12h0l-.16.23Zm.27.08h0l-.11.11Zm-.43-.52h0L334,493h0l.07-.05Z"/><path id="PH-LAN" class="cls-1" d="M550.92,948.56l5.56-1,10.87.66,4.48,2.84,2.29,4.17h0l-.33,1.85,1.05,1.74-1.06,2-4.71,1.51h0l-2.13-1.63-8.71-2.58-1.05-1.2-2.42.32-1.64,5.54.25,3.61-4.74,4.84-6.27,1,.78,2.69-1.95,4.39-6.4.38,1.6,5.42-2.64,5.23.38,2.23-1,2.07L521.28,991l.14,1.27-1.73,2h0l-3-.25-.75-2.09-2,0,.17-2.38-1.3-1.91-2.1-.51,0-1.09-5.1-1.15h0l3.53-9.1h0l1.83-2,3.83-1.36,2.78-4.24,3.44-2.06,1-1.92,1.49.61,2.21-.79,2.39-2.82,6.21-3.24,10,.93,4.82-1.9,3.1-4.92Z"/><path id="PH-LAS" class="cls-1" d="M569.07,962.32l2.69,3.32,1.79,7.89,3,5.74,1.88,1-.49,1.46,1,1.77,2.13.76,3.49,6,1.39.72.08,3.09,1.76,1.56.05,1.94,3.54,2.18.3,1.43h0l-7.73-2.64-3.75,1.95-2.94-.68-2.88-3.69-2.21-.64-3,.24-4,1.94h0l-5.45,6.13-8.39,4.26-4,4.93.27,1.48h0l-1.36.46-3.75-2.3,1.29-1-2.1-3.78-7.52-9.76-2.06.32-.86-1.6-4.21-2-7.25-.54h0l1.73-1.94-.14-1.27,11.88,3.65,1-2.07-.39-2.22,2.64-5.23-1.6-5.42,6.4-.38,1.94-4.4-.78-2.68,6.28-1,4.74-4.84-.25-3.61,1.64-5.54,2.42-.32,1.05,1.2,8.71,2.59Z"/><path id="PH-LEY" class="cls-1" d="M556,711.54l8.88,8.91,2.35,3.87L568,723l-1.28-2.85,1.15-.68,4.23,2.23,1.07,6.28,2.4,2.54,1.67-.53,3,1.35,4.42-1,6.62-5,1-4.2,3.44.47,1.17,1.2,1.76-1,.81,1,2-1.43,1,2.49,1.7-.37-.8,1.46.76.73-1.2,1.25,0,5.31,1.07,2,2.24.14-.2,2.33,1,.84-.89,3.92,2.34,6.59-.36,9.71-2.32,6.63,1.71,7.79,1.13,1.45,5.37,1.56L613.3,777l3.21,3.75h0l-7,7.22-8.21,0-3.39,8.79.49,10.22-3.81.82-5.23,5-1.15-.5h0l2.25-9.21-1.81-2.91-2.39-1.38-.9-7.92L588.7,787l.33-6.19,2.39-2.83-1.52-8.52-5.49-7.65-1.68-4.26-2.19-1L576.3,752l-1.77.3-2.36,2.35.92,3.51-2.5,4.56-2.85.14-2-2.33-1.2.62.38-2.17-1.33-2.17-.32,2.57-2.89-.75,2.46-4.35-.33-3.72-2.58-2.3,2.33-3.4L561,738.05l.13-1.72.15-1.22-.84-2.28-.65-1.08.32-1.19-2.14-.72,0-3.51,1.42-.25-2.15-.89-.42-1.31,1.69-.77-2.32-.62-2-5.8,0-3.31Z"/><path id="PH_MG" data-name="PH MG" class="cls-1" d="M534.65,1023.54l-.18-2.54,4.19-3.27-2.5,3.19.26,1.39Zm63.6,37.3-4,1.09-2.06-.92-.48-15.94h-1.3l0-.79.25-3.49,1.95.09.15-1.86-2.08-.09,0-1.79-6.19-5.88.3.81-1.56.47.09,2,2.6,1.29,1.14,1.82-1.35-.07.45,1.86-1.39-1.4-.84,2.16-.24-1.08-1,.19-.45,1.4,1.55.83,1,2.43-.65.79,1,.56-2.42,1.9.28,1.35-.87.46-3.73-2-2.86.28-3.86-5-2.3.71-5.29-4.23,5.83-10.59-2.85-.75-4,1.24-3,4.36-3.22-.46,5.71-9.51,1,.48,4.73-10.75-3.84-5.54.5-9.59-5.45,6.13-8.39,4.26-4,4.93.27,1.48.59,1,2.62-.38.38,2.57.89.26-.3,1.9-3.06.24.38,3.25-.82,3.07.79.93-2.08-.43-.16,2.16-1.17-.26-.79,1.57,3.85.55,1.83,1.61h-.71l-1.24-1.51-3.08-.08-3.91,3.21-3.59.44-4.72,7.49-3.25,9.54,1.35,3.17-1.27.89.32,1.94-1.37.73,1.33.4-.12,1.81,1.12-.4-.38,1.77,2.92-1.83,2.21,3.15,4.27.08,12-.27,1.25,2.14,16.58.06,5-5.26-1.71-4.8,7.4-1.58-.19.94,2.92.17-2.14,6.14,5.78.12,2.35,7.92,1.53,1.7,6.26-.51,8.58-4.65Z"/><path id="PH-MAD" class="cls-1" d="M378.52,563.22l.31,1.31,1.08-.41.44,1.63,1.51.76,1-1.34,2.68.91,2.26.67.83-2,1.71,1.51-.69,1.15,1.78,0,.73,1.94-1,.17,2.27.61.84-1,3,2.54-.72,2.19-1.11-.67-.11.93,3.6,3.79-7.51,7,.45,2.64-1.83,3.12-3.35-.63-2.26-3-6.17-2.7L374.83,580l.34-4.3-1-3.27,3.74-6.24-.57-.67.76-.71-.65-1Z"/><path id="PH-MAS" class="cls-1" d="M470.23,689.57l.61.74-1.49,1.27-.26-1.39ZM477.72,635l10.29,4.4-2.86.18,1.55,4.06L484,644.88l.73,1.44,1,.68,1.05-2.4,1.69.37-1.31-2,.51-1.11,2.18-1.09,2.94.47,6.65,5,1.37-.94,1.07,3.67,2.86,2.11-2.6,2.09,3.41-.49.81.14,1.37,1.29,1.35-.53,1.83,1.23L517.37,665l.77-.41-.93-1.87,1.37-1.31,1.65.57,2.32,3.1,1.31-2,1.61,1,1.73,4.18,9.66,13.59-.26,1.52L534,678.77l-1.08-.22-.37,1.74L534,683l.87,0,3.28,7.25-1.06,4.3,1.08,5.4-1.48-.41-2.62-4.35-6.84-5.83-1,.22-3.24-2.7-.16-.06-9.91-2.33.44-1.09-1.19-.74,1.42-1.8,1.39-.16-7.28-4.75-.65-1.37-2.92-.64,1-1.54-5.58-8.48-2.72-1-5.16,1.71-4.4,6.84-2.34,1.11-.85,1.68-.69-.37-1.31,3.89-10,8.6-1.27-1.88,3.91-6.47-.42-1.39,1.13-1.5.85-5.41,1.63-.41,3-1.82-.93-2.6,1.13-1.23-1.59-2.34-2.44,2.13-.89-1.52,1.29-.16-.85-2.09,3.17-4.88-.52-3.18,1.11-.72,1-2.52-.85-.45.95-.92-2.8-1.29Zm28.14-6.83,2.22,3.24,3.95,1.91-.87.58.46.33,1.63,0,.69,2.13.06,1,.85,2.38.22.53L516.4,643l.34,5.85,1.27.45-.5,2.65,1.11.14-.85,2.38-4.46-4.74-3.11-4.49.1-1.39-3.79-4.5-1.67-4.72-.85.47-1.47-2.24.22-1.64.71,1.52.77-.9.93.72-1.31-2.94ZM460.2,593.75l1.19,1.57,2.38.15,10.05,16.38,4,.29,2.7,1.46.87,5.35,7,9.26-1.84-.2-1.81-1.91-5.26-8.16-4.56-.68-2.08-3.19-2.32-.55.65-1-2.88-1.4-1.27-2.88-.95.47-1-3-5.69-.6L458,602.67l-1.41,1,0-3,1-1.37-2.29-2.14,2.94-1.16Z"/><path id="PH-MNL" class="cls-1" d="M309.31,479.82l.79-.77,1.26,1.58.92-.47L310.66,477l.88-.4,1.37.56.29,1.4,1.41-.21,1.05-2.39h0l.26-.26h0l2.41-.6.29-1.57,1.07-.32,1,1.27,2.91.34h0l0,1.43,1.23.1-2,4.72,2.05,1.32-.32,1.72-1.88.6.57,2.66-1.17,1.73.87,2.81h0l-3.16,2.7-.44,8.62-3.12,2.1h0l0-2.32-3.19-4.9.07-2.1h0l1.42-2-1.08-.51.8-.6v-3.25l-3-2.59.36-1.39.84.93.19-2.75-.81.19Z"/><path id="PH-MSC" class="cls-1" d="M504.9,923.58l.78.6-.51.79,1.69.64h3.5l4.12,4.51,2.9,3.24-.22,2.16,2.68,2.12-.08,1.61,1.58,2L522,947l1.22,1.72-1.13.86-.07,2.15,1.32,9.09L517.7,965l-2,3.7-3.49-.3-5.45,3h0l-.08-1.31-2.44.51-2.81-1.49-1-12.39h0l.37-29.59h0l.77.39.91-1.21.61.35,1.22-1.76-1.7-.54Z"/><path id="PH-MSR" class="cls-1" d="M620.61,892.7l2.22,9.88L621.59,905l2.64,3.59L622.48,910l.78,14.27h0l.14,5.69h0l-15.6.17-11.7-1.08-3.94,8.73.18,3.81-14.43-.2-.2,4.15-1.18,1.8.43,2.73-1,1.08-.91-.44.27,2.34-1.21,2.14h0L571.83,951l-4.48-2.84-10.87-.66-5.56,1h0l1.21-3.72,1.49-1.32.06-4.84,2.3-5.83,9.72-6,2.08.24-.53,2.21,3,1.22,2.34,2.37,1.88.16.6,1.44,5.53.67-.89,1.54,1.45-1.34.36,1.72,2.54.79,2.84-1.46.89-1.48-.8-3.26,2.12-2.67-.67-3.45-1.45-.68-.13-3.09,1.29-1.78,1.41,0-1-3.59,1.81-4.17-.81-11.07,2.85-2.1,3.68-.26,11.33,6.52,3.9,6.58,6.18-1.26,1.78-5.95-1.16-6,1-1.32.18-3.71Z"/><path id="PH-MOU" class="cls-1" d="M355.24,285.66l.34,15.71h0l-8.35-.67-6.37,1-9,4.56-8.63-.59-3.63.22-2.43,1.32-3.4-.29-.64,2,.91,2.88-2.5,5.72-2.32,2.25-2.68,0h0l-1.74-.84-.77-2.58-5-4.67h0l.82-2.81-.45-10.43,5.64-5.88h0l2.86-.19,1.27-1.71,0-2.58h0l10.29,1,2.18,3.06,5.49,1.89,6.35-1.36,6.64-7.18,5-1.75Z"/><path id="PH-NEC" class="cls-1" d="M474.73,752.73l3.65.42,1.54.9,3.71,2.67,6.6-.28,4.38,2.48,1.7-1.26,1.58,1.34-1.42.79,1.87.47.9,4.76,2.37-.54-.69,1.86.88,1.76-1.94,3.25-1.12-.8.33,1.53-1.61,2.54-1.46,8-1.2,3.82-1,.41.44,1.18-3,3.43L486.5,794l-1.6,4.35h0L478.77,796l-8.89.23,5.21,10.44-6.3,7.61L462,825.57l-2.14,7.37-18.45,23.48-6.45,6.5-2.51,5.85h0L427,863.54l-1.35-3.76-2.8-1.58-1.09-4.36-1.61.27,1.05-2.88-2-.83-1.66.88-.7-1,1.69-1.95-1.81.57-1.17-1.18,1.31-2.64-.75-3.31.91-1.93-1.81-1.54,4.07-4.58,1.35-5.63,4.05-.77,11.43.65,8.33-6.55,3.32.27,3.13-2.38-2-9.54.06-5.23,1.66-5.38-5-11.11,2.29-2.18,2,.28,1.9-1.19.14-1.2,2.58-2.08,1.83-5.26.16-3.16,1.25-.47.38-4.56-1.28-1.08-.53-3.44,1-1.08-.32-1.92,6.31-2.1L465,760l4.94-4.75,2-.19Z"/><path id="PH-NER" class="cls-1" d="M432.45,868.76l2.51-5.85,6.45-6.5,18.45-23.48,2.14-7.37,6.78-11.25,6.3-7.61-5.21-10.44,8.89-.23,6.13,2.26h0l-.34,7.68-3.34,6.83-.28,4L477.05,826l-3.27,3.66-.4,2.25-1.92,1.38V837L470,838l2.14,9.65-.41,5.4-2.29-1.61-1.27,1.93,1.2,2.18,2.47.28.52,1.42-1,1.1.13-1.24-1.06-.49-1.29,2.65,2.48.06,2.2,5,3.22,1.09,2.32,6.13,2.82,2.06,1,2.43-2,8.05-6,8.42-3.7,1.41-1.75,2.15-1.13-.59-2.71-.94-4.27,2.07-5.37-2.71L451.62,883l-1-7.61-5.08-2.5-8.71-1.22Z"/><path id="PH-NCO" class="cls-1" d="M565.07,997.69l4-1.93,3-.24,2.2.64,2.88,3.69,2.95.68,3.75-1.95,7.73,2.64h0l1.33,4.52-1.84,1.75-.84,2.7,2.11-1.13,1.63,1.19,0,2.07,2.76,1.34.14,1.24,3.52-1.2,3.24,2.3,5.5-.38,1.35-3.36,6.36-1,.76-4.19,2-3.57,1.69.11.18-1.56,2.28.92h0l.23,1.06h0l.81,4.44-1.66,2.93.38,6.2-1.55,2.46,1.41,6.72-1.38,4.37,1.09,2.43,3.12,2.58.37,4.54,1.75,2.58-2.66.28-1.58,4.68-6.54,5.46-.35,3-1.17,1.31-1.4-.88-1.75,1.08,1.47,4.53h0l-8.5,2.59h0l-7.7-4.55-4,1.1-2.06-.93-.49-15.94h-1.3l0-.79.25-3.49,1.95.08.15-1.86-2.08-.09,0-1.79-6.19-5.88.3.81-1.56.47.09,2,2.61,1.29,1.14,1.83-1.35-.08.45,1.86-1.39-1.39-.84,2.15-.24-1.08-1,.19-.46,1.4,1.56.83,1,2.43-.65.79,1,.56-2.42,1.9.28,1.35-.87.46-3.73-2-2.85.27-3.86-5-2.3.71-5.29-4.23h0l5.83-10.59-2.85-.75-4,1.25-3,4.35-3.22-.45,5.71-9.51,1,.48,4.73-10.75-3.84-5.54Z"/><path id="PH-NSA" class="cls-1" d="M540.33,658l1,1.13-1.11,1.37-1-1.84Zm12.87-5.33-2-3.1-.27-4.08,2.49,3.37ZM543.46,644l3.62,5-.75,2.32-3.14-3.74Zm20.68-7.41.34,1.25,1.73.59-1,.86-2.11-.95Zm4.66-.1,2.11,2.9-1.48.15-2.1-2.89Zm-9.37-.62,1.6.4-.2,1.25-1.46.31-.62-1.83Zm-.29-2.86,2.51,1.85.2,1.77-2.4-1.11.5-1.26ZM605,631.92l1.47,1.31.44,2.16,3.83,1.64-1,1.38-.61,1,1.93.47-.08-3.18,1.71-.29,1.13,1.42,2.44-1.58,8.85,6.83-.52,1.42,2.26.33.28,3,3.07,1.66-2.8.62,1.25.8-1.31.16.52,1.52-1.43.62.32,1.85,2.22.23-2.46,1.6L627,658l3.29-1.87-.67,1.23.83,1.11-1.35.28h0L627,660l-7.1-8-2,2.21-1.06,4h0l-3.48.35-9.53,3.9-4.92-1.81-3.58,8.47-1.87-2.72.86-3.19-9.34-5.31-5.29,3.58-11.47-6.85-4,3.82-5.17.06h0l-1.72-4.78.84-2.89-.56-.42-.52,1.17L555.62,647l-.1-.33-1.75-1.75-.2-3.79L552,638.87l1.44-2.52,3.22,2.08.33,1.45.85-.82,1.13.61-.11-1.34,2.66,1.31,0-2.08,2.12,1.63,0,1.12,1.61-.33,1.71-.87-.86,1.34.54,1.21,1-.1-.11-1.81,2.69,1.28,3.38,0,.61-.8,6.94.91,5.32.25,4.64-2.09,3,1.25,2-.53,1.14-2.34-1.77-1.41,2.13.49.32.43,2.91.33,1.77-1.27.55,1.48-.91.46,2.79.44,1.74-1Zm5.42-2.92,1.68,6-4.05-1.4,1.39-.12.48-1.19-2.22-.92.14-1.46.56-.92Zm-51.15-.88,2,.82.3,3.24-2-1.18Z"/><path id="PH-NUE" class="cls-1" d="M306.62,374l10.64-1.52,10.81,2.65,1.64,13.71,6.08,10.32h0l6.86,21.49L338,441.94h0l-5.12-.37-7.07-5.1-8.9,1.51-4.78,2.56h0l-4,.75-2.35,3.22-1.46-3-4.44,0-1.11-4.71h0l.73-2.92-3.1-2.35.24-3.28,1.62-2.64-3.11-9.85,2.33-4.17-4.15-1.13-3.11-3.28-3-12.65h0l9.5-1.54,5.74,4.48,2.56-2.09,4.67-11.86Z"/><path id="PH-NUV" class="cls-1" d="M339.65,325.79l4.76,4.51.62,3.45h0l-2.15,14.33,5.23,1.75-1,6.69-10.47,4.36L338.72,379l10.56,9.21h0l-13.49,11h0l-6.08-10.32-1.64-13.71-10.81-2.65L306.62,374h0l-2.8-4.93-5.26-2.24h0l-.72-3.13,3.41-6,2.87.16,3.33-8.49L306.9,344l1.56-6.77h0l23-3.82h0l.38-.12h0l3.7-1.59,1.31.54-.41-2.05,1.85-.65Z"/><path id="PH-MDC" class="cls-1" d="M316.35,662l1.57,2.75-2.12-.29-.38-1.37Zm4.09-4.64,2.5,4.72-.54,3.14,1.27-.61,1.55,2.48-1.21,1-2.44-1.56-.85-2.85-2.68-.94.36-4.74Zm-46.82-90.89,3.76,1.62,6-.29,4.14,1.47,4-.27,5.91,2.09,10.12-2.59h0l-.62,6.47-6.27,9.8,13.5,6.42,10.17,6.43,8.57,3.2.34,30.45-1.07,18.62.79,14h0l-2.45-2.23-3.69-.37-3.39,0,.08-1.63-1.41-1.65,1.09-.82,1.53,1-.4-1.85-1.11-3.24-1.39-.53-1.17,1.21-2.3-1-8.39-10.77-.44-2.65,1.4-2.76-.7-2.43-4.63-5.66-.59-2-4.81-1.23-.47-6.57L298,617.45l2.31-4.93-1.27-1.91-.6-2.68-.07-.8-2.2-5.85-6.07-9.76-3.21-.81-2.73-2.15-3.49.37.08-3.09-1.39,0-1.64-2,.35-1.9-1.49-4.15.55-1.73-.89-1.28-1.89-.88-3.23,1.21.29,1.79-1,.84-2.67-.52-2.57-2.84-.79-1.88,2-3.32,2.7-1.8ZM265,555l5.47,2.13,2.14-.12.79,2-2.56-.39Zm-1.13-11.43,3.28,2.16-.16,1.34-1.63,1.06-3.69-2.42,1.59-.54Zm-14.45-2.15,3.3.67,4.72,3.34,1.48-.8,4.75,6.44-1.92-.1-.83,1.18,1.49,1.18,1.25-.45.52,1.84-1.27-.06-.77,1.21-1-2.37-2.32-.52-1.35-1.82-2.08-.18-5.37-3.56-.44-3.8-1.31-1Zm-4.12-2.57,1.67,1.58-.75.87-2.18-1.42Z"/><path id="PH-MDR" class="cls-1" d="M313.58,570.84l6,4.67,2.36-.79,1-.16,2.38.58,3.29-.54,1.26-1.49,4.66,6.07.16-.76,2.66,1.48,5.47,7.87,2.55-.18,2,1,.14,6.19,1.89.69,2.87-1.21,3.5,2.37v2.24L352,601.48l-1.34,2.7.9,5.91-1.17,2.61.83,4-1.31,5.49,5.28,7.72-.16,1,.12,1.79-1.51,2.64-.06.4L352.08,639l-3.15,2.23-1.84.06.54,3-2.58,2.42.24,3.45,2.88,2.79-5-.17,1,5.54-1.05-.62-1.13-.29-.12-2.05-1.53.1-.9,2.29-4.08.74L332.9,664h0l-.79-14,1.07-18.62-.34-30.45-8.57-3.2-10.17-6.43-13.5-6.42,6.27-9.8.62-6.47h0l1.64-1,2.1.65.79.06Z"/><path id="PH-PLW" class="cls-1" d="M30.27,966.9l.42,4.1,0,1-.22,1,.83,6.19-1.31.61.77,1.23-1.27,2.75L27,986l-.14.36-1,.26-1.37-.83.49-2.59L23.72,983l-1.94-4.33-1.51-.06L19.79,977l1.17.45,1.61-1.54-1.21-3.48,1.23-4,.12,2.75,2.57-1.93-.53-1.39Zm-3.13-4,1.56.87.85,2.42-3.38,1-.51-1.48-1.41-.51Zm8-3.63,3.49.06,1.25,1.83-4.14.18-1.23-1.61Zm-3.69-4.95,1.82.45.88,1.87-3.09-.06Zm16.93-5.55,2.14,2.44-.41,5.88-3.83,2.27-2.22-2.22.36-6.91.78-1.35Zm-6.7.92,2-.23-.13,1.9L41,953.28l-3.2.48-1-2.2,2.17-.33,2.78-3.53ZM182,783.3l-.13,1.08,1-.67-1.55,1-.87,1.32-1.65.08L180,784.5l-1.07-1.15Zm48.35-4.65,2.42,2.18.46-1,2.62,2.65,5.68-.14,1.53,2.57L241.72,786l-.57-1.4-.57,1.74.95,1.1-2.59.9-.23-1.25-1,2.28-1.46-.89-.44-2.16-1.38-.28,2.83,4.87-.81.67-4.1-.75,1.32,1.71-5,1.46-3.09-1.66.16-4.66-1.15.69.07-2.53,1-.92,2.1,1.35.8-2.83,2.19-2.11Zm90.16-18.9.66,1-1.35,1.3,1.49,1.51-1.65,1.2.46,2.28-3.13.69-1.73-2.27.43-1.93,3-1.21.4-2.3Zm-129.14-8.44,1,.53-1.16,2.37.84,1.84-.58.78-2.2-2.53.51-2.69,1.14.47Zm30.19-2.59,1.17,2.08-1.76.07Zm-1.43-1.08.67.59-1.63,2.62-.28-1.89Zm-7.54-2,.38.92,2.56.16-.48,1.84,1.81,2.63-.69,2.21-.34-2.07-1.43,1.31-.85-2.1-2.66-.74Zm7.48-1.77.81,2.31-1.53,1.27.5-1.43-1.25-1.93ZM314,740.2l.46,1.43-1.58,1.54-1.52-.11-.47-1.39Zm-99.9-1.39,1.68.44-.21,1.82-1.41.83-.71-.75-.14,1.5-2.29.22-.49-2.59,2.39-.14.24-1.3Zm6.5-9.46-1.28,4.31L217.75,731Zm-15.7-7.55,1.94.67.4,6.09,1.95.76,1.17-1.35,1.07,3.58-2.19,8.61-2.72,3.05,2.64,4.68,1.73-1.12-.73,1.69,1.35,4-.56.82L209.15,752l-2.51.41-1.38,9.76,1.84,1,.14,2.35,1.73,1.2,2.89-1.85,1.8,1.15-.06,1-1.39-.26,1.14,1-1.3,1.1,1.31,1-.61,1.88,1,1.47-2.19,4.44,3,0,1.75-2,1.61,1.28-.61.65,1.36.67-3.26-.21,1.23,1.8-1,1,2.09,1,1.14,4.64,2.39.14-.76,1.11,1.12-.33.6,1.76-2.88,1.1-3.18,3.66-3.44,1.49L211.53,799l-4.31.85-3.93-1-2.12,1.73-4,.45-1.46,2.24-2.09.23-5.79,8.08L186,820.65l-1.54,2.2-16.25,4.66-5.32.67.07-1.07-3.51,1.32-2.21,2.4-3.57,0-1.55.75-.71,6.43,2.36,3.19-.28,5.45-2.82-.65.48-1.69-1-2.52-.67,1.34-1.28-.45-.46,1,.26,3.76,2.48.33.1.57.36,1.42,1.9-.48-.06,1.52-1.79,1.2-.34,1-3.75,5.1-2,1.08-1,3.41-1.19,0-4.07,6.09-.16.45-1.87,1.9.17,2.2L133,876.94l0,1.08-1.62-.59-1.73,1.89-.85-.25-.73,2.51-1.82.18-3.76,4.71-3.59-.34L113.65,888l-.86-.85-4.42,2.5-1.76-.76L105.2,892l-.17,3.67-2.41.37,1.18,1.17-.32,1.18-1.62.43.56,1-.78,0-2.86,6.56H97.65l.15,1.84L89.35,912l-3.42,4.27-2.33.26-2,3.76-2.76,2-3.59.12-5,2.07L66,923.27l-2.17,2.29.85,3.38-3.39,7-1,.47-2.21-2-1.24,1.51-.55.46H52.06l-.34,1.35-7.66,4.95-1.85,2.85-2.12.54.76.79L40.09,948l-2,.09-.24-2.64L40.54,941l.23-6.67L42.4,933l-.16-2,1.95-.85L43.44,928l1.28.53,1.66-4,2.78-1.26.73-1.82-1.51.16L51,918.1l4.73-1-.43-2L58,913.21l.85-3.21,1.23-.38,3.34-5.34,1,0,.39-1.69,2.56-.34,2.75-2.78.58-3.51L73.17,894l1.63.12.3-1.22.71,1.9,3.32-.3.93-4.12,1.49-1.44-.34-1.52,2.6-2.44,1.09.69,1.67-1.87.89.37,3.21-3.79,3.39.69,2.09-2.12.19,2.59,2.64.11.28-1.59,1.78-1,.25-1.58,1.28.13,1.29-1.34,0-1.25,2.84-.65-.79-2.31.81-1.67,4.22-1,.88-4.43,2.89-1.57,4.41-5.21,2.25-1.28.81-5,1.19-.61,1.33.89,2.28-1.33,1-3,6.63-4,4.15-6.19,2.7-1.86.67-1.63-.7-1.65,2.9-1.42-.09-1.88,1.45-1.13-1.37-2.1,1.12.41,3.21-2.93,1.35.16.26-2.52,1.39-1,1.19-3.6.87,4.64.14.77,0,2.6,1.35.06,1-.53.08-2.89,2.1-2.65-2.32-.79-.05-5.54,2.37.37,1.92-1.71,2.2,1,3.19-.9.95-3.21-1.09-.9,1.8-.42-2.15-1.39.77-.77,1.65,1.12.42-1.87,1.33.65,1.07-.81-.73-.69.85-1.57,1.48.26-.79-2.62L168.33,801l-.69-1.81,1.94-1.53-.44-1.16,1.86.24.94-.91,2.78,2.08.92-1.56-.88-1,2,.34,1-1.16-1.32-.67-.92-.58.25-.91.38-1.26.66.7.41-1.06,1.25,0,.52.92-1.17,1,1.38,1-.79,2.54,1.85,2.15.21-1.3,2.47-.88,2.9-5.11,2.9-.19.94-2.17-2.86-2.48,2.68.65,3.79-3.87,1.8-10.6-2.66-2.85-2.33.71-.88-4.9-3.87-1.28.16-.87,2.46.08-.31-.86.23-1,1.08.06-1.37-1.7-1.94.2,1.34-2.09-1.26-.38.41-1.12,1.58.26.14,2.94,1-.44-.56-1.16,1.13-1.12,1.35.85-.68.87,1.34,1-1.17,1.31,1.54.14-2.42,1.54,3.1,0-1.82,1.74,2.1,1.3.37-1.25,1.08,2.65.9-1.23.88.44-.83,1.55,3,.47,1.27,1.53-.5,1.26,1.36-.77,1.09,3.45,2.27-.4-2.06-5.48-.12-2.29,1.34.18.19-1.12-2.74-.93-.16-1.13-3,1-.56-1.1-1.14.14v-1.69l-1.08.07,2-3.22-.86-.79-1.59,1-1.3-.72.23-.68-.7-4,1.24-2,1.51,3,2.4-.83-3.34-2.43,1.16-1.3-1.51,0,.2-3.7,1.07,1.55,1-.27-.51,1.11,1.81,2.2,3.18.48-.18-5.33.94-2.14-1.22-.48-.72,1-.31-2.62,1.52-3.08-.47-7.5,1.15-.41.42-2.11,1.4,1,1.62-2.29Zm24.42-7,3.51.74.63,1.29-.14,2.94-2.74,5.42-.89.16-1.32-1.77,1.67-1-.12-1.06-1.32.92-1.36-.71-.91,2.25-1.16-2-2.2-.84.53-1.47-1.64-.8,1.21-1.12-.06,1,3.06,2.06-.25-1.49,1.42,0L225.58,718l1-.16,0-1.08,1.79,3,.93-.21-.39-1.26,1.89,1.09L230,717.5l1.7-.2Zm23.85-18,2.44.08.22,1.27-2.92-.43Zm2.44-1.33,1.27.55.2,1.8-2.23-2.33Zm-19.65-14.31,1.49,1.54,3.51.7-2.22.39.79,2-.75.31,1.31.41-.06-1.68,1.19.74,1.15-1.17,2.18.25.32,1.15L241.91,687l2.57.29,1.32,2.2.49-.93,1.89,1L244.3,691l2.21.22-1.57,1.08v1.42l.93-.59,2.24,1.9-2.8,2.27,1.69.08-.64,2.8-5,3.79-.81.1-.89.46-1-.21.73-.8-1-.39-.08-3.93,1.13-.82,3.55-3.28-1.27.15-.85-.41-.73-.72-.06,2.64-2.43.3L236,694.66l-1-2.76,1.52-1-3.26-3.82.13-2.41-1.83-1.43.53-.58,2.71,2.3.25-1.46-1.43-.69-.14-1.26Zm24.86-.59,1.73,1.11.35,2.48-2.06,2.07,2.86.06.4,1.64-.13,1L261.4,690l-.72.62-4.05-6.53Zm-25.53-25.35,2.14.72-.2,1.52,1.15,1.13-.69.88,6.15,1.17,2.42,2,1.09,2.74,2.7-.76-.09,1.81,4.67,4.07,1.68.24.11-1.48,1.83.4-.55-2.1,1-2.67-1.06-1.7,1-.47.42,2.06,1.44-.09.25,5,.95.48,1.11-1.39.83,2.16,1.1-.31.43,1.51,1.83.52.62,2.65-1.19,1.33,1.14,1.84-.31,1.51-1.26-.63-1.4,1.43-3.4-1.84-2,1.77-3.42-1.9-.56-1.54-1,.59-1.77-.8-.6,1,1,1.19-.79.89-.52.87L250,682.31l-1.43-1.91.58-.88-2.44-1.45-.5,1.7-1.93.52-.47-1.31-2.58-.23-.44-1.11-.28-2.95-1.17.58-1.09-1.3-.34-1-.14-3.61-2.24-2-.3-2.85-1.15-.1-2,4.06-.26-2.09L233.7,663l-1.19-.8,0-1.32.58-1.23.89-1.53-1.1-1.53Z"/><path id="PH-PAM" class="cls-1" d="M269.67,444.3l1.31.21,13.41-7.07,4.73,0,1.38-.92,3,1.05,3.07-1.7.2,1.25,2-.31h0l1.12,4.71,4.44,0,1.46,3,2.35-3.22,4-.75h0l.1,3.14-1,1.57,3.16,4-1.2,1.68-.24,3.33-2.05-.09-1.28,3.1-.22-1-1.49.32.19,2-4.66,3.75-6.36.58.08,2.35L294,470.37l.32,1.43-3.37,1.93h0l-.63.45-2.44-2.2-2.44-1.24.5-.94-1.19-.35h0l-1.87.5-1.94-1.21-1.61-2-.4-3.23-2.68-1.37h0l-.67-2.51-2.25-2.08.12-4L272.14,451l-2.82-2.05-.56-2.26Z"/><path id="PH-PAN" class="cls-1" d="M242,355.77l.71,2,1.63.65-1.73,2.78,1.44,2.69-1.8,1.43-2.09-3.48-1.16.09.24-1.09-1.15-1.06-1,.8-.35-1,1.88-.83-.42-1,.89-.77-.22,1.55,1.15.58.22-2.94Zm-5.58,41.63-1.78-.92h0l-.38-.7L236.5,394l-3.73-8.67-1.13-1.17-.18.88-2.29.24-.58,2.52-1.44-.7-.93,1.31-1.65-3.8.7-3.5,1.07-.9L225,378.38l.47-4.4,1.43-2-.75-2.27-1.31-.54L227,364l-.79-.71.46-4.51,2.6-3.74,2.92,0,2-2.67,3,1.86-.69,9.54,1-.6,2,1.06.54.31,1.17.53-.3,1.37,2.1,1,1.16,1.9.71-1.73,1,.58.3.42,1.83,0v1.17l1.07-.56,1.71,1.9-.38.77v.7l-1.23,1.35L251,376l-1.07-.12-.16.88,3.42,2.23,5.77.34,7.36-2.48.2.71,6.92-7.8-.55-3.46h0l6.1-.23.95-1.92h0l10.37,3.71,8.24-1h0l5.26,2.24,2.8,4.92h0l3.08,9.54L305,395.43l-2.56,2.09L296.74,393l-9.5,1.54h0l-1.8-4.27-2.91,8.88-4.85,3.06-6.42-2.67-2.47,2.67-.49,2.42-2.55,2.21.52,1.36-5.08,2.36h0l-4.93-8.11-2.7-7.29-4.6,1-4.11-2.57-2.76,4h-2.3l-.71-1.37Zm1.51-47.5,2,2.49,0,1.84-3.66-1.18.13-2.74Z"/><path id="PH-QUE" class="cls-1" d="M370.24,535.55l2.42.31-.26,2,1.17,1-.79,1.42H372l-1.9-.29-1.05-.74-.14-1.9Zm15.16-19.3,11.83,8.6,4.55,5.88-2.35.51-7.36-4.62-1.41-2-3.8-1.59-5.29-6.13,1.23-3.14Zm-10-7.54,1.8.33-2.37,3.78-1.22-3.28ZM417.69,477l2.06,2.06-1.05,1-8.5.83,2.07-2.62Zm-20.07-7.4,3.63-1.21,1.07,1.07-.54,1.69,3.11,1.62,1.74-.33,0,4.8-1.07.48-.95-2.26-8.9-4-1-2.76,1.77.77Zm-8-3.76.25.84,2.59.05,1.59,1.95-1.64-.95-1.35,1-1.36-.43-.88-2.06Zm-5.34-13.32,1.79.56-.29.91,1.61-.57,2,1.13-.74,1.67,2.93.14.46,3.24-.16.82-1.69-3-1.5.32L387.28,460l2-.78.14,3.58-3,1.47-.87-.51,1,4.93,2,.6,1,1.73,1,7.13-2.47,3.62-4.69,3-1.72-1-.85-2.69.12-3.6,1,1.32,1.4-.4-2.11-6.78-2.21-2.47-3.2-8.92-.75-.07.52,2.11-.74-.63-.79,1-.64-1,1.3-4.83,1.24-.5.08-2.36,1.44,0,.68,1.34,4.76-2.61,1,1ZM340.15,457l.69-1.63-.7-1.85,4.1-6.14.12-2.18L343,444l1.66-.54-.22-1.56,1.32-1.1h0l2,1.41,1-.53,1.49,1.7,1.79,9.41,4.41,6.46,1,5.79,2.31,2.79-.83,2,9.6,9.8-2.38-.47-1.09,0-3.71,2.58-1.15-1.44-1.14,2.5,4.11,19,4.85,5.2.13,4,2.17,2.11-.35,3L368.24,518l.39,1.11,2.79,3.24-.67-.8L384,532.19,395.11,537l6.59.57,3,1.46.89-3.51-3.21-1.25-1.25-2.61,8.52,2.74.49-1.09-.93-1.41,1.66-.64.48-1.43-2.44.15-.17-1.61-6.91-4-2-3.53.12-1.38,1.63,1.53-.43-1.78,2.42-2.06,1.29-.29.88,1.28.28-4.88,1.67-.22.32.78-1.27,4.61,1,.85-.41,2.79,1.31.32,1.78-1.29-.67,4.06h0l.11,1.09,4.68.21,5.56-6.21,25.29,10h0l-17.73,4.83h0l-1.47-.82L426,537l-5.41-.24-2.3-2,4.94,7.76,2.81,2.35-1,.45-.09,2.93,1.08,2.83h-2.35l-.83,1.48,1.65,3.57-.43,1.31,3.54,3.4,0,1.27,6.41,4.09.09,1-1.27.12-2.56-3.52h-1.32l6.25,8.53,1.89,5v7.75l1,.45.89,3.27L435.69,590l-4.27,3.47-2.53-1.24-4.33-4.74,1.35-2.79-1-1.08.94-1.18-.45-2.83-2-4.43-5.47-5.65-.84-2.91L412,564l.47-1.19-1.18-1-2.3-.08-.69,1.23-1.4-.54,1.21-.85-.85-.94-4.21.32-.4-2.66-3.78-6.08-.9,0v-1.87l-2.85-3-1.88-.41L391.88,548l-2.18-1.59.21-.77-3.36.05-.64-2.56L380,541.52,378.63,539l-1.18.76L376,538.54l-.72.82-1.16-1.71.53-2-.82-.63-1.57.71-2.5-2.14-3.9.52-.44.88,1.25,2-6,1.08-.63,1.35-1-1-7.86,3.78-2.73,2.38h0l-5.25-2.19-1.09-1.52-7-.53-2.53-3.52.48-1.19,1.54.05-.31-1.85h0l5-1.63,7.37-5.82,4.45-.73,2.17-5.38,1.88-1.85,1.19.09,4.77-6.73-.56-9.86-1.93-.25L357,500.13l-1.08.7-6.46-12.43h0l-8.61-15.27-.42-8.33h0Z"/><path id="PH-QUI" class="cls-1" d="M345,333.75l10.81.88,14.35,18.06,23.71-10.81,3.58.26h0l-4.84,3.18L376,364.86l-26.69,23.37h0L338.72,379l-2.06-18.14,10.47-4.36,1-6.69-5.23-1.75Z"/><path id="PH-RIZ" class="cls-1" d="M332.91,506.79l.15,2.8-1.92-4.52.52-5.29,1.24,5.55,1.79.8Zm1.53-13.25-.06,0h0l.11-.11h0Zm-.38,0v.05h0l.16-.23h0Zm-.08-.65.08,0h0L334,493h0Zm6.43-28.06.42,8.33,8.61,15.27h0l-3.75,1.32-3.1,2.95-1.13,4.56,1.09,4.35L342,504l1.53,1.68-5.75,4.06-.25-2.82,2.51-6.24-.94-3.75-1.67-1.69-1.6-.06-.21-2-1.94-.31-1.33,3.24-1.09,0-.25,4.7-3.77-7.58-2.05-1.5-2.21.21h0l-.87-2.81,1.17-1.73-.57-2.66,1.88-.6.32-1.72-2.05-1.32,2-4.72-1.23-.1,0-1.43h0l4.63-3.29.35-1.7,5.52-1.1Z"/><path id="PH-ROM" class="cls-1" d="M383.31,672.22l1.83,2.32-.52,2.54-3.19-2.29.34-1.58Zm44.31-30.14,7.88,1.62,3.17,6-1.19,5.35L434,658.44l0,1.21-1.82-2.13-3.45-1.19-1.55-3.62-6.64-2.65-1.83-2.68.28-1.67,2.4-2.28Zm-19-8.85.91.52.72,4.35,1.47,1.35.06,2.63-1.88,2-2.23-.87-1.63-3,.93-.93-1.29-2.2,1.69-.31Zm-12.24-3.63,2.77,1.09.61,2.07-2.38-.24-.55,1.23,1.27,2.73,0,3.2-2,2.94-1.73,13.68L391,662.57l.16,2.67.87-.43,1,1.27-.66.72-1-.68-1.57,1.76-.71,4.24-2.26-3.18.5-1.37-1.77.29-.57-2.4.67-3.67.54,3,1,.59,2.11-3.25-2.73-2.22-.95.47V659l-1.27-.1-.38-1.46-1.23.8-.44-2.32,1.23-1.19-.79-.76,1.05-3.51,3.29-1.17,1.34-2.6.74-3.69-1.72-5.64.69-2,2.83-1.76,2.59-.13,3.07-2.52Zm-2.21-12.07-1.78,4-2.16-.18,0-1.24Zm-27.67-8.25,2.34,1.52-1.51,2.49-2.56-2.53Zm27.4-.93,1.29.35-.71,2.88-2.29.91-.4-2.36-1.44-1Z"/><path id="PH-WSA" class="cls-1" d="M593.49,702l2,.12.71,1.28,1.48-.43.35,1.13-1.65,1.16.67,1.86-3.32-.57.26-2.75-1.36-1.13.12-1.83Zm-7.25-2.41.53,1.82,1.28.47-.13,1.3,2-1-1,1.62,2.87,1.75-1.41,1.92.57,1.39.76-.65,3.19.65-1.37,1.62.57,2.36-1.15,1.26-2.32-1.39,1-1.3-2.89-.6-.33-2.5,1.53.93.45-.84-2.89-3.15-.91.7-.42-2.55-.75.54.3-2-.56-.77,1-.65-1-.88Zm1.42-1,2,1-1,2-1.32-1Zm-7.95-13.3.13.85,1.45-.06-.49,1.46-1.73-1.44Zm-14.05-.59,1.25,2.93-1.18.66-2.41-.85.43-2.2Zm-8.45-2.37.48,1.59-2,2.7-2.32.31.07-2.31Zm6.59-2.19,1,.91-.73,1.61-1.68-.78,0-1.44Zm-14.43-6.8h1l0,1.76-1.62-.66-2.85,2.68L543.66,676l1.65-2.28ZM559,658.53l5.17-.06,4-3.82,11.47,6.85,5.29-3.58,9.34,5.31-.86,3.19,1.87,2.72,3.58-8.47,4.92,1.81,9.53-3.9,3.48-.35h0l-.53,7.37-2.41,1.57.19,12.65h6.73l4.5,10.4.88,13-4.43,3.23L620.65,709l1.77,11.39,4,1.37,1.55,2-4.16,6,.28,14.67h0l-1.27,2.35-1.94-.91-1-6.21-3.23-6.84-5.77-.78-4.65,1.35-2-1.15-.41-2.85,1.69-2.24-.88-5.05-1.48-.76-.29-1.62-1.34.33-2.76-1.58.25-1.41,0-.57-1.35-.82.07,3.34-.77-.75-2.76.55-1.43-1.86.79-.53v-.94l1.9-3.29,1,1.56,1.61-.38.36-1-1.56-.38.29-1.39,4.79.42,1.35-.91-.6-1,2.07-1.53-.8-4,4-3.12.79-1.55-.25-1.72-3-1.45L599,698.53l-1.66-1-.41-1.81-1.67-1,.05-1.57-6.07-3.69.2-1.12,1.62-.71-.7-1.22-2-.33.42.8-2.21.14.9-1.33-.52-1,1.87-.73-4-.76-.9-2,.66-.34-1.43-1.64-.2-.55-3.63-3.2-3-1-4.92.16-5.55-5.39-.15-1.39-4.33-3Z"/><path id="PH-SAR" class="cls-1" d="M634.56,1158.56l2.24,1.14-.56,3.91-1-.81-4.14.7-.19-1.4-1.38-.21,3-2.86Zm5.86-4.33,1.53,2-.52,3.36-1.56,2.35-1.45-3.36,1.61-1.49-1.27-.81,1.94,0-1.06-.94Zm-78.55-52,10.75,4.68,2.75,3,5.76,1.92,9.52,5.12,16.16.56,2.62-4v7.06l3.65.35h0l-.26,3-1.6,1.46.86,1.48-1,1.06-10.88,0-7.32-2.17-13.25-6.91-2.71-.12-1.85-2.14-4.35-.56-6.65-4.63-5.37-2.28h0Zm56.28-18.61,5.67,3,5.07-2.3,2.3-3.53,5.22,1.54,4.45,6.6.46,4-2.44,2.64,3.36,5.14.43,7,2,2.24-.25,3.62-3.92,10.84.55,4.16-1.27.87-.1,2-5.39,11.39-6.27,4.69,1,1.44h0l-2-1,1.08-3.49-1.58-4.47-3.54-1.86-1.5-3.56-2.5-.46.45-1-1.15-1.09.5-2.64,1.94.93,1-2.6-.48-1.84,4.16-2.22-.5-1.29,1.86-3.06-1.35-7.69-2.35-1h0l-.37-5.45,2.75-4.89-.13-2.37-14.18-5.08,2.84-5.79h2l1.08-3Z"/><path id="PH-SIG" class="cls-1" d="M504.39,877.5l2.09.43,2,4.24,1.8,1-2.16,2.43,3.32,3.25-1.52,1.75-2.94-.35L505.73,892l-2.51.55-2.1-.48-7.79-6.73,1.29-2.27,2.21.76,4.3-.94,2.35-1.82Z"/><path id="PH-SOR" class="cls-1" d="M529.4,597.65l1.69-.2,3.64,4.21,3.12,1.4,1.4,2.29,1.66-4.29,1.77-1.14,4,.59.65.94-.06,1.44-.46.37.7.88-1.85,1.12-.47-1.74-.65.61-1.09,6.26-1.86,1.75.67,1.32,1.53-.3.64,6.41-1.79,5.74.34,4.56-3,2.55,1.14,3.05-1.81.9,1,1.24L539,639.82l-6.64-.63-3.81-4.06-.12-2-1.27.68-.58-1.64L524,631l-3.27-12.71.38-.66,2-1.71-.36-1.13,5.5,2.28,1-2.3,2.74-.33.71,1.23,1.58-1,1.8-3.86-1.4-3.22-4,1.31-2-.21-1.39-1.6-2.6.12-.18,2.12,0,.84-1.65,1.21-.3,1.73-1.31-.47-.58,2.12-.87-1.07-1.53,2-2.44-1.81-.06,1.73-2,1.4-.42-1.93,1.17-.82-.75-1.09-1.88,1-.14.37-1,1-1.45-3.25.73.37.32-.92-.34-.47-2.5,1.93,1.05.55-.71,1.42-4.58-2.53-2.3-3-1.41-.33-.65.86-3.54-3.82h0l6.79-3.12,4,1.53,3-1.16,4.61.15,2.53,2.83,6.46-4.05,3.41,0,2.56-5.72h0Z"/><path id="PH-SCO" class="cls-1" d="M561.87,1102.23l-5.7-2-2.68-6.28,19.11-.53,3.74,1.34,3.61-6.06-.3-3.25-1.46-.9.11-2.3-.86,0-.53-1.9,2.83-7.77,1-.51,1.26,2.07,5.57-5.2,6.08,10.09,26.33-.3h0l.14,1.88-2,3h0l-1.07.42-1.08,3h-2l-2.84,5.78,14.18,5.08.13,2.37-2.75,4.89.37,5.45h0l-5.52-.56-1.6,6.16-2.91,4.73h0l-3.65-.34v-7.07l-2.62,4-16.16-.56-9.52-5.12-5.76-1.92-2.75-3Z"/><path id="PH-SLE" class="cls-1" d="M616.53,780.73l3.09,3.3-2,3.16,2,4.42-.9,3.27,2.57,3.22,1.82-.69,1.35,1.71.71,5.32-1,2.91-2.47.88-6.4-2.14.55,7.58-.77.79,2.52,2.1,3.55.41,2.3,6.33,2.62,3.48-.65,1.75,1.88,2.6-.44,1.42-2.57.11-.56-2.52-1.84-1-2.72-5.52-3.66-1.77-1.35-3.72.42-4.74-2.82-2.91-4.25-11.06-1.21-.88-2.86.53,1.33,8.69-.69,3,3.37,9.18.3,6.08-6.65-5.6-2.28-.61-1.13-2.32-8.14-.89-1.5-1.84.19-2.46h0l1.15.5,5.23-5,3.81-.82-.49-10.22,3.39-8.79,8.21,0Z"/><path id="PH-SUK" class="cls-1" d="M540.35,1063.27l12-.27,1.25,2.14,16.58.06,5-5.26-1.71-4.79,7.41-1.58-.19.94,2.91.16-2.14,6.14,5.78.12,2.35,7.92,1.53,1.71,6.25-.51,8.58-4.66h0l8.5-2.59h0l2.27,1.73-1.45.65.09,3.1,3.48,4.27,1.13,6.23h0l-26.33.3L587.56,1069l-5.57,5.2-1.26-2.07-1,.51-2.83,7.77.53,1.9.86,0-.11,2.3,1.46.9.3,3.25-3.61,6.06-3.74-1.34-19.11.53,2.68,6.28,5.7,2h0l-3.21,6.85h0l-2,.35-10.15-7-1.27-4.51-4.36-3.42-2-4.88L538,1089l-.87,1.33-1.46-3.38.47-1.41,0-.65-1.27-4,.63-.73-.93-.38.34-1,1.29.59,1.53-1-2.05-.69,1.23-5.38-2.68-6.61,1.87-2.36h0Z"/><path id="PH-SLU" class="cls-1" d="M302.32,1152.69l1.26,2.5-2,1.75-.51-1.7Zm-1.42,3-1.89-.56,2.36-2.65Zm-.42-6.73,1.16,1-.76,2.45-2.89,1.74-.94-2.25,1.37-2.46Zm4-1.33,4,3.41-1.68,2.87-1.8.82-3-2.68-.22-1.38.66-2.12Zm16.12-6.94-2.36,1.84-2-1.76,4.12-.92Zm-14.95-1.37,1.59.72-2,1.87h-4.58l.86-2.57Zm9.91-2.54,1,.44-.48,1.15-1.13-.62Zm-6.17-1.44,1,2.88-3.15,1.6-.17-3.46Zm16.59-6.72,3.16,1.14,1.11,2.41-3.2,1.55-1.63-.58-.63-1.91ZM238.27,1126l1.69,1.73-3-.66Zm2.37,1.23,3.64-1.2-.89,1.26-2.62.54Zm1.94-5.1-.09,1.31-.07.85-1.36-.72.47-1.36Zm115.3-2.67.79,1.75-1.92,1.45-.89-1.78.8-.88.31-.36Zm-106.15,1.46-1,.18-1.49-1.56.74-1.09,1.32.69Zm104-5.21,0,1-2.51,1.3,1.5-3.12h1.16Zm-10-1.89,1.16,1.39-.52,1.37-2.91-.07L343,1115l1.67-1.5Zm18.65,0,1.15,1.27,2.72.41-4.43,3.11-1.09-.66,2.44-2.28-1.25-.84Zm-16-1.63.48,1-1.12.93-.3-1.56Zm-24.93-1.09,3.13,1,3.78,5.92,5.33-1.69,2.72,1.26,3.35-.26.49,0,1.69-.31,1.82,1.12.5,2.62-2.74,1.35-.2,2.65-2.28-1-4.91,4.44-1.12-.92.82-.56-3.25-1.18.66-2-.65-1.2-3-1.23-1,1.38-.79-.64-.67,1.37-1.75.14,0,.89-3.85,1.35-.73,1-3.68-3.76-6.14,2.89-4.42-2.26-.44-2.5,3.41-5.2,5.66-2,1.46-2.38Zm47.73-.15,3.53,3.81,3.32,1.51,6.26-2.39-2.78,2.51-4,1.47-5.77-4-1.47-1.8Zm-89.36-3.78,1.41,1.33-1,1.11-1-1Zm94.54-.22.79,2-2.38.06-.24-1ZM276,1105.1l.63.75-1,2.16-2.74-1.43Zm98.76-.26,1,2-1.9,1.4-.76-1.68Zm-61.86-2.15,1.92,1-.42,1.15-1.67.36Zm-22.54-8.29.91,1.13-.32,2-2.22,2.06-.87-1.23,1.19-1.69Zm15-1.63.95,1.65-2.44.81.32-2ZM286,1089l-1.31,10.47-3.29.85-3.95-1.09.14-1.31,2.84.48,2.64-7.84Zm8.31-3.14,0,3-3-.56-.08-.91Z"/><path id="PH-SUN" class="cls-1" d="M651.29,846.25l2.57.42-1,.85.56,3.41-1.07-.38-.53-3-1.42.48Zm29.17-.36,3,.3,0,1.43-2.62-.26-1.85,2.22.05-1.53-2.59,1-.55-1.8,1.13-.47-.07-1.15,1.89,2.13Zm-6.37-1.9-.25,1.78h1.54l.12-.85.67,1.3-.83.47.17,2.5,1.71.29.36,1.57-1.69,2.88-.34,4.07-1.74.6,0-1.09-2.51-1.7-1.14-1.06,1.34-.84.3-.22-.24-2,1.42-.07-.79-3,.67-.55-1.37-1.26,1.06-.54-.5-2Zm-21.81-2.44,1.8,2.76-2.49-1.12-.64,0Zm5.52,0,1.65.81-1.05,2.07-1.85-.85-.36-2,1.27-.26Zm-16.07-.12.7,2.07,2.93-.27.9,1.27,1.26-.46-.69,1.25,1.69,1.57-.29,1.25,1.48,1.89-.68,1.13.65,1.56.23.68,3.29,2.3,2.4-.26,1.83,1.33,2-.51.06,1.91,7.62,1.79,2.12,1.6V863l3.1.29h0L660,875.75h0l-.52-4.86-3.91-3.26L646.47,866l-5.23.18-2.66,1.2h0l-4.51-15.83.72-8.13,2.82-1.89-.2-2.26,1.57,1-.61,1.45,1.52-.21Zm10.6-8.91.11,3.94,1.08.94,2.18-.13-7.1,3.4.37-2-1.15.83-.14-1.42,3.08-5.08Zm-9.22.37,2.74,3.58-3.15-1.8Zm33-3.74.83,1.3-.67,1.93-1.76,1.94-1.35.54-.65.78-.89-.41-.16-.88.54.51,3.31-3.31-.52-.47,1.58-.33Zm6.66-7.48,4.29,13.65-.66,1-1,.46.12.27,1.68,1.25,1.35-.6.46,2.83,1.49,0-.37,1.55-3.59,2.81-4.56-.48-1.91-1.24-3.89-3-1.66-1.71.76-1.45,2.49-.1-2.45-1.75,1.18-1.71.55-1.66,2.77-3.67,1.06-2.14-.5-1.72Z"/><path id="PH-BAS" class="cls-1" d="M387.14,1095.33l.06,1.63-.73.16-1.65-.68.4-1.47Zm-30.86-28.75-.44.83,2.17,1.21.83,3.76,1.63,1.73.25-2.58.55-1.19-3.18-2.26Zm32.87,27.16,1.71.12-.87-1.63Zm-2.28-.68-.74-1.65-1.9.81.64,1.13Zm23.31-22.2-3,.2-2.24-1.71-6.62-.28-.54-3.41-2.86.26-2.48-2.78-2,.65-1.16-.27-2,.7-4.86,4.72L379.6,1070l-3.75-1.71-2.16,2.14-.71,3.23,2.2,1.69,1.93-.36,2.06,2.12-1.06,1.16.39,2.83,2.36,1.54,1.2,2.64,2.8,1.19-.13,1.7,6-.35,10.4-3,1.05-1-.34-3.93,1.55-4.32,1.88-1,4.76.32,1.73-2.46Zm-22.84-7.34-.89-.65-2.14.89-.69,2.32,1.65-.34Z"/><path id="PH-ZAS" class="cls-1" d="M454.4,978.3l3.37.31,8.39-6.12,6.47.18v-4l1.9-4,.55-9.71,10.72.56,2.46,1.23,12.14,0h0l1,12.39,2.81,1.49,2.44-.51.08,1.31h0l.31.73.2.83.09,1.21,1.84,1.63h0l-3.53,9.1h0l-4.06-1.68L494,986.1l-2.71-.29.52,2.45-.74.93,1.83.36-.18,1.23,2.79,1.35-.3,4.34-1.07,2.86-5.72,1.65.29,3.7-2.36-1.7-1.39,1.88,3.25,1.35-.09,3.14,1.1,2.38,1.2-.61,2.8,2.37-1,1.76,1.14,2.64-2.18.08-.51,1-2.53-1.24-.46-1.69-3.21-1.22-.67-1.88-2.66-1.86,1.21-4.57-5.56-.62-3.07,2.49,1.16,1.43-1.56,1.4-1.1-1.16.6-1-3.93-1.39-.93-3.33,1.86-.44.13-1-2.41-1.63,1.77-.16,1.09,2,2.8.13,1.52-1.17-1.39-3.58-2.71-.21.26-.85-1.17-.55,1.29-1.88-.48-1.76-1.66-1.55-1.3,2.12h0l-.88-7.67-12.31-1.56Z"/></svg>