<svg id="Layer_1" data-name="Layer 1" xmlns="http://www.w3.org/2000/svg" viewBox="0 0 242.35 53.52"><defs><style>.cls-1{fill:#282829;}.cls-2{fill:#fff212;}.cls-3{fill:#ed3237;}.cls-4{fill:#00afef;}.cls-5{fill:#d2d3d5;}.cls-6{fill:#1d3f96;}.cls-7{fill:none;stroke:#1d1d1b;stroke-miterlimit:10;}.cls-8{font-size:14px;font-family:AgencyFB-Bold, Agency FB;font-weight:700;letter-spacing:0.2em;}</style></defs><polygon class="cls-1" points="71.46 48.92 46.63 48.92 36.68 38.97 24.27 26.56 49.1 26.56 71.46 48.92"/><polygon class="cls-2" points="49.1 26.56 26.73 4.2 1.9 4.2 24.27 26.56 49.1 26.56"/><polygon class="cls-3" points="71.46 4.2 49.1 26.56 24.27 26.56 36.68 14.15 46.63 4.2 71.46 4.2"/><polygon class="cls-4" points="49.1 26.56 26.73 48.92 1.9 48.92 24.27 26.56 49.1 26.56"/><polygon class="cls-5" points="76.46 4.2 76.46 48.92 54.1 26.56 76.46 4.2"/><path class="cls-6" d="M122.07,10.35V36.11a.49.49,0,0,1-.49.5h-7.35a.49.49,0,0,1-.49-.5V12.66a.61.61,0,0,0-1.2-.17l-6.93,23.68a.63.63,0,0,1-.6.44h-2.49a.18.18,0,0,0-.2,0H99.83a.62.62,0,0,1-.59-.44L92.3,12.49a.61.61,0,0,0-1.2.17V36.11a.49.49,0,0,1-.49.5H83.27a.5.5,0,0,1-.5-.5V10.35a5.83,5.83,0,0,1,1.55-4c2.16-2.34,8.26-5.08,12.17-.68a2.41,2.41,0,0,1,.42.69l.23.54c0,.07,0,.14.07.21L102,22.92a.49.49,0,0,0,.94,0l4.74-15.77c0-.07.05-.14.07-.21l.24-.54a2,2,0,0,1,.42-.69c3.91-4.4,10-1.66,12.17.68A5.82,5.82,0,0,1,122.07,10.35Z"/><line class="cls-7" x1="101.92" y1="26.04" x2="101.92" y2="26.02"/><path class="cls-6" d="M152.77,11.09V5h-21s-4.86.5-4.86,5V32.19A4,4,0,0,0,131,35.28h21.79V29.09L136.31,29V23l16.46.09v-6h-16.5V11Z"/><path class="cls-6" d="M187.63,31.81V9.2c0-4.29-4.36-4.17-4.36-4.17L159.4,5V35.09h23.75C188,35.09,187.63,31.81,187.63,31.81Zm-8.21-4A1.39,1.39,0,0,1,178,29.16H167.36V11.09H178.1s1.32,0,1.32,1.71Z"/><rect class="cls-6" x="193.44" y="4.96" width="8.53" height="30.32"/><path class="cls-6" d="M226.28,5.11a8.17,8.17,0,0,0-7.78.06,2.27,2.27,0,0,0-1,1.12l-12.27,28.8h8.33l2.85-5.93h12.56l2.28,5.93h8.65L227.33,6.27A2.47,2.47,0,0,0,226.28,5.11ZM219,22.6l3.27-8.72a.33.33,0,0,1,.61,0l3.73,8.79a.58.58,0,0,1-.53.81h-6.48A.65.65,0,0,1,219,22.6Z"/><text class="cls-8" transform="translate(82.77 51.52) scale(0.98 1)"><tspan xml:space="preserve">G R A P H I C S  I N C.</tspan></text></svg>