<?xml version="1.0" standalone="no"?>
<!DOCTYPE svg PUBLIC "-//W3C//DTD SVG 1.1//EN" "http://www.w3.org/Graphics/SVG/1.1/DTD/svg11.dtd">
<svg xmlns="http://www.w3.org/2000/svg">
<defs >
<font id="SulphurPoint" horiz-adv-x="500" ><font-face
    font-family="Sulphur Point Light"
    units-per-em="1000"
    panose-1="0 0 4 0 0 0 0 0 0 0"
    ascent="790"
    descent="-210"
    alphabetic="0" />
<glyph unicode=" " glyph-name="space" horiz-adv-x="450" />
<glyph unicode="!" glyph-name="exclam" horiz-adv-x="160" d="M57 152V665H105V152H57ZM67 -3T59 6T50 27Q50 39 58 48T79 57Q92 57 101 48T110 27Q110 15 101 6T79 -3Q67 -3 59 6Z" />
<glyph unicode="&quot;" glyph-name="quotedbl" horiz-adv-x="266" d="M84 454H47L40 664H90L84 454ZM219 454H182L176 664H226L219 454Z" />
<glyph unicode="#" glyph-name="numbersign" horiz-adv-x="765" d="M521 193V0H476V193H288V0H243V193H50V238H243V426H50V471H243V665H288V471H476V665H521V471H715V426H521V238H715V193H521ZM476 426H288V238H476V426Z" />
<glyph unicode="$" glyph-name="dollar" horiz-adv-x="528" d="M408 34T373 21T286 2V-56H240V2Q149 15 100 58Q54 100 40 171H87Q97 123 132 90Q167 58 240 47V310Q147 323 104 365T61 483Q61 521 74 555T111 612Q152 652 240 662V721H286V662Q376 652 427 603Q472
559 484 490H437Q431 523 412 552T365 597Q339 612 286 620V352Q335 345 365 336T420 312Q488 271 488 182Q488 110 434 59Q408 34 373 21ZM240 618Q203 613 181 605T143 581Q106 543 106 483Q106 421 144 391Q176 364 240 356V618ZM286 46Q360 54 401 90T442 182Q442
235 412 262Q373 295 286 307V46Z" />
<glyph unicode="%" glyph-name="percent" horiz-adv-x="747" d="M143 406T120 416T78 445Q40 481 40 536Q40 590 78 628Q114 666 169 666Q223 666 261 628Q299 590 299 536Q299 481 261 445Q222 406 169 406Q143 406 120 416ZM215 0H164L522 666H573L215 0ZM134
620T110 596T85 536Q85 499 110 476Q133 451 169 451Q204 451 229 476T254 536Q254 570 230 596Q204 620 169 620Q134 620 110 596ZM523 -2T485 36Q447 72 447 127Q447 181 485 219Q523 257 577 257Q631 257 669 219Q707 181 707 127Q707 72 669 36Q631 -2 577
-2Q523 -2 485 36ZM542 212T517 187T492 127Q492 91 517 68Q540 43 577 43Q612 43 636 67T661 127Q661 162 637 188Q611 212 577 212Q542 212 517 187Z" />
<glyph unicode="&amp;" glyph-name="ampersand" horiz-adv-x="523" d="M422 0L395 39L378 28Q329 -4 267 -4Q212 -4 162 21T80 95Q40 152 40 219Q40 231 44 257Q58 342 137 397L108 436Q82 474 82 514Q82 570 130 618Q153 640 183 653T246 666Q311 666 359 623Q405
580 411 516H365Q360 561 327 591T246 621Q222 621 200 612T162 587Q127 552 127 518Q127 494 146 462L402 105Q422 136 429 161T437 211V222H483V213Q483 133 429 68L479 0H422ZM163 361Q130 337 112 310T89 250Q86 235 86 220Q86 166 118 120Q138 91 166 72T228
45Q250 40 267 40Q313 40 354 66L369 74L163 361Z" />
<glyph unicode="&apos;" glyph-name="quotesingle" horiz-adv-x="147" d="M99 454H48L40 664H107L99 454Z" />
<glyph unicode="(" glyph-name="parenleft" horiz-adv-x="186" d="M106 61T147 -121H90Q50 63 50 252Q50 457 99 665H156Q106 457 106 252Q106 61 147 -121Z" />
<glyph unicode=")" glyph-name="parenright" horiz-adv-x="186" d="M100 457T50 665H107Q156 457 156 252Q156 63 116 -121H59Q100 61 100 252Q100 457 50 665Z" />
<glyph unicode="*" glyph-name="asterisk" horiz-adv-x="432" d="M366 348L239 437V315H193V437L66 348L40 386L176 480L40 574L66 612L193 523V665H239V523L366 612L392 574L256 480L392 386L366 348Z" />
<glyph unicode="+" glyph-name="plus" horiz-adv-x="550" d="M298 257V45H252V257H40V303H252V515H298V303H510V257H298Z" />
<glyph unicode="," glyph-name="comma" horiz-adv-x="210" d="M85 -102H40L104 107H160L85 -102Z" />
<glyph unicode="-" glyph-name="hyphen" horiz-adv-x="432" d="M40 257V303H392V257H40Z" />
<glyph unicode="." glyph-name="period" horiz-adv-x="130" d="M37 -1T29 8T20 29Q20 42 28 50T49 59Q62 59 71 51T80 29Q80 17 71 8T49 -1Q37 -1 29 8Z" />
<glyph unicode="/" glyph-name="slash" horiz-adv-x="497" d="M92 0H40L405 666H457L92 0Z" />
<glyph unicode="0" glyph-name="zero" horiz-adv-x="504" d="M232 -5Q194 -5 159 10T97 51Q70 77 55 110T40 182V483Q40 521 55 555T97 615Q124 641 159 655T232 670H272Q311 670 346 656T408 616Q435 590 449 556T464 483V182Q464 144 450 110T408 50Q381 24
346 10T272 -5H232ZM418 483Q418 521 399 553T347 605T272 625H232Q173 625 129 583Q108 563 97 537T86 483V182Q86 154 97 128T129 82Q173 40 232 40H272Q313 40 346 59T399 111T418 182V483Z" />
<glyph unicode="1" glyph-name="one" horiz-adv-x="286" d="M187 0V624L97 500H40L158 665H236V0H187Z" />
<glyph unicode="2" glyph-name="two" horiz-adv-x="447" d="M40 109T48 149Q78 288 199 317Q263 333 300 360Q360 404 360 469Q360 499 348 527T315 576Q294 597 266 608T205 620H61V665H205Q246 665 283 650T348 608Q376 580 391 544T407 469Q407 393 346 338Q296
294 210 274Q119 252 94 141Q86 106 86 45H371V0H45Q40 39 40 60Q40 109 48 149Z" />
<glyph unicode="3" glyph-name="three" horiz-adv-x="413" d="M40 0V45H189Q217 45 242 55T287 83Q306 102 316 126T327 177Q327 203 317 228T287 271Q268 289 242 299T189 310H142V354H189Q216 354 242 364T287 393Q306 411 316 436T327 487Q327 513 317 537T287
580Q268 598 242 608T189 619H40V665H189Q227 665 260 652T319 613Q344 588 358 556T373 487Q373 395 281 332Q373 269 373 177Q373 141 359 109T319 52Q294 27 261 14T189 0H40Z" />
<glyph unicode="4" glyph-name="four" horiz-adv-x="497" d="M362 182V-1H318V182H40L246 664H296L106 227H318V336H362V227H457V182H362Z" />
<glyph unicode="5" glyph-name="five" horiz-adv-x="455" d="M55 0V45H213Q245 45 273 57T323 90Q344 111 356 138T369 196Q369 226 357 253T323 303Q302 324 274 335T213 347H50V665H379V620H97V392H213Q254 392 291 377T356 335Q384 307 399 271T415 196Q415
156 400 121T356 58Q328 30 291 15T213 0H55Z" />
<glyph unicode="6" glyph-name="six" horiz-adv-x="484" d="M201 -4T164 11T99 54Q71 82 56 117T40 193Q40 235 57 274L229 665H279L151 370Q186 382 205 386T242 391Q283 391 320 376T385 333Q413 305 428 269T444 193Q444 153 429 118T385 54Q358 27 321 12T242
-4Q201 -4 164 11ZM210 345T182 334T131 301Q86 256 86 193Q86 129 131 86Q153 65 181 54T242 42Q274 42 302 53T352 86Q398 130 398 193Q398 255 352 301Q331 322 303 333T242 345Q210 345 182 334Z" />
<glyph unicode="7" glyph-name="seven" horiz-adv-x="425" d="M225 0H177L316 619H40V665H375L225 0Z" />
<glyph unicode="8" glyph-name="eight" horiz-adv-x="479" d="M283 -5T240 -5Q181 -5 131 26T57 111Q40 148 40 187Q40 217 51 248Q63 282 88 311T148 362Q124 383 110 399T88 434Q74 467 74 497Q74 562 120 610Q145 635 173 647Q203 660 239 660Q288 660 329
634T391 563Q405 530 405 500Q405 463 386 428T330 362Q366 341 388 318T422 267Q439 227 439 188Q439 152 425 118Q410 82 383 54T319 11Q283 -5 240 -5ZM337 577T307 596T240 615Q215 615 192 606T153 580Q119 544 119 499Q119 474 131 449T167 406Q199 382 240
382Q265 382 288 391Q334 412 352 455Q361 476 361 498Q361 522 351 545Q337 577 307 596ZM86 250T86 187Q86 153 103 119T155 63Q192 39 240 39Q272 39 301 51T351 85Q394 130 394 191Q393 223 378 255T332 310Q291 339 241 339Q209 339 180 327T128 293Q86 250
86 187Z" />
<glyph unicode="9" glyph-name="nine" horiz-adv-x="484" d="M255 0H205L333 295Q298 283 279 279T242 274Q201 274 164 289T99 332Q71 360 56 396T40 472Q40 511 55 547T99 611Q126 638 163 653T242 669Q283 669 320 654T385 611Q413 583 428 547T444 472Q444
430 427 391L255 0ZM210 623T182 612T132 579Q111 558 99 530T86 472Q86 409 132 365Q153 344 181 332T242 320Q274 320 303 332T353 365Q398 408 398 472Q398 502 386 530T353 579Q331 600 303 611T242 623Q210 623 182 612Z" />
<glyph unicode=":" glyph-name="colon" horiz-adv-x="160" d="M67 344T59 352T50 374Q50 386 58 395T79 404Q92 404 101 395T110 374Q110 361 101 353T79 344Q67 344 59 352ZM67 0T59 9T50 30Q50 43 58 51T79 60Q92 60 101 52T110 30Q110 18 101 9T79 0Q67 0 59 9Z" />
<glyph unicode=";" glyph-name="semicolon" horiz-adv-x="225" d="M115 344T107 352T98 374Q98 387 106 395T127 404Q140 404 149 396T158 374Q158 361 149 353T127 344Q115 344 107 352ZM79 -102H35L98 91H152L79 -102Z" />
<glyph unicode="&lt;" glyph-name="less" horiz-adv-x="668" d="M40 246V295L628 544V495L100 271L628 56V6L40 246Z" />
<glyph unicode="=" glyph-name="equal" horiz-adv-x="550" d="M40 354V400H510V354H40ZM40 164V210H510V164H40Z" />
<glyph unicode="&gt;" glyph-name="greater" horiz-adv-x="668" d="M40 6V56L568 271L40 495V544L628 295V246L40 6Z" />
<glyph unicode="?" glyph-name="question" horiz-adv-x="509" d="M296 260V153H250V281L351 363Q388 393 405 425T423 498Q423 531 410 561T374 614Q351 636 320 649T255 662Q222 662 193 651T140 619Q92 574 86 511H40Q43 552 60 588T107 651Q137 678 175 693T255
708Q299 708 337 692T406 647Q436 618 452 579T469 498Q469 399 380 328L296 260ZM261 -5T253 4T244 25Q244 37 252 46T273 55Q286 55 295 46T304 25Q304 13 295 4T273 -5Q261 -5 253 4Z" />
<glyph unicode="@" glyph-name="at" horiz-adv-x="750" d="M621 110T583 104Q570 101 557 101Q536 101 515 109Q472 128 472 175V251Q450 219 419 204T356 188Q298 188 253 231Q233 251 222 277T210 334Q210 394 253 437Q296 480 356 480Q439 480 472 419V480H517V175Q517
166 520 161T533 151Q545 146 557 146Q562 146 574 148Q600 153 616 168Q665 213 665 332Q665 391 643 443T580 537Q540 577 487 599T375 621Q316 621 264 599T171 537Q131 497 109 444T86 332Q86 273 108 220T171 127Q211 87 263 65T375 42Q405 42 435 48L446
4Q417 -3 375 -3Q307 -3 246 23T139 96Q92 142 66 203T40 332Q40 400 66 461T139 569Q185 615 246 641T375 667Q443 667 504 641T612 569Q658 522 684 461T710 332Q710 260 695 212T647 135Q621 110 583 104ZM314 434T285 405T256 334Q256 293 286 263Q316 233
356 233Q396 233 428 263Q458 291 458 334Q458 377 428 405Q397 434 356 434Q314 434 285 405Z" />
<glyph unicode="A" glyph-name="A" horiz-adv-x="622" d="M533 -1L443 255H181L89 -1H40L275 663H347L582 -1H533ZM311 626L194 296L428 295L311 626Z" />
<glyph unicode="B" glyph-name="B" horiz-adv-x="493" d="M50 0V666L245 667Q294 667 336 643T402 578T427 489Q427 406 348 340Q400 310 426 269T453 177Q453 128 429 88T362 24T270 0H50ZM96 621V355H245Q281 355 312 373T362 422T381 489Q381 524 363 554T313
603T245 621H96ZM96 311V45H270Q306 45 337 62T388 110T407 177Q407 215 388 245T338 293T270 311H96Z" />
<glyph unicode="C" glyph-name="C" horiz-adv-x="666" d="M309 -4T248 22T139 95Q92 141 66 202T40 332Q40 400 66 461T139 570Q186 616 248 642T378 668Q450 668 514 641T626 560L591 531Q549 575 494 598T378 622Q319 622 266 600T172 537Q131 497 109 444T86
332Q86 273 108 220T172 127Q212 87 265 65T378 42Q439 42 494 65T591 133L625 104Q577 52 513 24T378 -4Q309 -4 248 22Z" />
<glyph unicode="D" glyph-name="D" horiz-adv-x="591" d="M50 0V666H214Q283 666 344 641T452 569Q499 522 525 462T551 333Q551 265 525 205T452 98Q405 51 344 26T214 0H50ZM96 621V45H214Q273 45 327 67T421 129Q461 169 483 221T506 333Q506 392 484 444T421
537Q381 577 327 599T214 621H96Z" />
<glyph unicode="E" glyph-name="E" horiz-adv-x="464" d="M50 0V665H414V620H96V354H310V310H96V45H414V0H50Z" />
<glyph unicode="F" glyph-name="F" horiz-adv-x="454" d="M95 620V354H310V310H95V0H50V665H414V620H95Z" />
<glyph unicode="G" glyph-name="G" horiz-adv-x="692" d="M554 47T531 35Q456 -4 375 -4Q324 -4 276 11Q214 29 163 71T78 173Q58 214 48 255Q40 287 40 329Q40 404 72 473Q121 572 211 621Q291 664 374 664Q390 664 422 660Q536 643 620 556L585 527Q543 571
487 594T370 618Q308 618 256 594T167 531Q134 497 113 453T87 358Q85 336 85 327Q85 284 97 244T133 170Q159 131 197 102T280 58Q324 42 373 42Q438 42 495 68T597 146L598 255H497V299H642V130Q612 91 577 64Q554 47 531 35Z" />
<glyph unicode="H" glyph-name="H" horiz-adv-x="545" d="M451 0V310H96V0H50V665H96V354H451V665H495V0H451Z" />
<glyph unicode="I" glyph-name="I" horiz-adv-x="146" d="M50 0V665H96V0H50Z" />
<glyph unicode="J" glyph-name="J" horiz-adv-x="269" d="M40 45Q97 51 134 88Q173 127 173 177V665H219V177Q219 143 206 112T167 56Q115 6 40 0V45Z" />
<glyph unicode="K" glyph-name="K" horiz-adv-x="480" d="M378 0L96 306V0H50V664H96V347L374 664H435L139 327L440 0H378Z" />
<glyph unicode="L" glyph-name="L" horiz-adv-x="334" d="M50 0V665H98V45H294V0H50Z" />
<glyph unicode="M" glyph-name="M" horiz-adv-x="743" d="M647 2V619L394 254H348L95 619V0H50V665H118L371 299L624 665H693V2H647Z" />
<glyph unicode="N" glyph-name="N" horiz-adv-x="585" d="M470 0L96 590V0H50V665H105L490 59V665H535V0H470Z" />
<glyph unicode="O" glyph-name="O" horiz-adv-x="747" d="M305 -5T245 20T138 93Q91 139 66 199T40 328Q40 396 66 457T138 564Q184 610 244 636T373 662Q441 662 502 636T609 564Q655 518 681 457T707 328Q707 260 681 200T609 93Q563 47 502 21T373 -5Q305 -5
245 20ZM314 616T262 594T169 532Q129 492 107 440T85 328Q85 269 107 217T169 124Q209 84 261 62T373 40Q432 40 484 62T577 124Q617 164 639 216T661 328Q661 387 639 439T577 532Q537 572 485 594T373 616Q314 616 262 594Z" />
<glyph unicode="P" glyph-name="P" horiz-adv-x="490" d="M97 249V0H50V665H235Q278 665 317 649T387 604Q417 575 433 537T450 457Q450 415 434 377T387 310Q356 281 317 265T235 249H97ZM97 619V293H235Q303 293 354 341Q377 363 390 393T403 457Q403 491 390
520T354 572Q304 619 235 619H97Z" />
<glyph unicode="Q" glyph-name="Q" horiz-adv-x="747" d="M373 0Q305 0 245 25T138 98Q91 144 66 204T40 333Q40 401 66 462T138 569Q184 615 244 641T373 667Q441 667 502 641T609 569Q655 523 681 462T707 333Q707 167 544 45H707V0H373ZM314 621T262 599T169
537Q129 497 107 445T85 333Q85 274 107 222T169 129Q209 89 261 67T373 45Q432 45 484 67T577 129Q617 169 639 221T661 333Q661 392 639 444T577 537Q537 577 485 599T373 621Q314 621 262 599Z" />
<glyph unicode="R" glyph-name="R" horiz-adv-x="472" d="M353 0L123 248H97V0H50V664H219Q262 664 300 648T369 603Q399 575 415 537T432 456Q432 414 416 376T369 309Q339 280 301 264T219 248H185L415 0H353ZM97 619V293H219Q252 293 283 306T337 341Q360 363
373 393T386 456Q386 490 373 519T337 571Q313 593 283 606T219 619H97Z" />
<glyph unicode="S" glyph-name="S" horiz-adv-x="534" d="M442 489Q436 526 417 553Q370 621 269 621Q183 621 144 582Q108 545 108 483Q108 413 155 381Q188 359 256 353Q317 348 357 338T425 310Q494 267 494 177Q494 142 480 110T439 53Q377 -6 271 -6Q163
-6 102 52Q53 95 40 166H87Q98 118 128 89T200 48Q233 39 267 39Q313 39 353 53Q412 74 436 124Q447 149 447 177Q447 238 408 266Q364 298 252 308Q61 323 61 483Q61 522 74 556T112 614Q167 667 268 667Q365 667 425 614Q476 566 489 489H442Z" />
<glyph unicode="T" glyph-name="T" horiz-adv-x="490" d="M268 621V0H222V621H40V665H450V621H268Z" />
<glyph unicode="U" glyph-name="U" horiz-adv-x="564" d="M235 -7T193 11T118 60Q86 91 68 133T50 221V663H97V221Q97 146 153 90Q204 39 282 39Q359 39 413 90Q469 144 469 221V663H514V221Q514 175 496 133T446 60Q414 29 372 11T282 -7Q235 -7 193 11Z" />
<glyph unicode="V" glyph-name="V" horiz-adv-x="631" d="M352 1H279L45 666H94L316 42L538 666H586L352 1Z" />
<glyph unicode="W" glyph-name="W" horiz-adv-x="926" d="M651 0H593L465 357L342 0H282L45 666H93L312 52L441 424L355 666H402L622 52L833 666H881L651 0Z" />
<glyph unicode="X" glyph-name="X" horiz-adv-x="550" d="M455 0L275 289L94 0H40L248 332L40 665H94L275 375L456 665H510L302 333L510 0H455Z" />
<glyph unicode="Y" glyph-name="Y" horiz-adv-x="544" d="M296 245V0H249V243L40 665H91L272 300L453 665H504L296 245Z" />
<glyph unicode="Z" glyph-name="Z" horiz-adv-x="532" d="M40 0V52L442 620H40V665H492V611L91 46H492V0H40Z" />
<glyph unicode="[" glyph-name="bracketleft" horiz-adv-x="289" d="M50 -128V664H259V620H98V-84H259V-128H50Z" />
<glyph unicode="\" glyph-name="backslash" horiz-adv-x="491" d="M405 0L40 666H86L451 0H405Z" />
<glyph unicode="]" glyph-name="bracketright" horiz-adv-x="289" d="M50 -84H211V620H50V664H259V-128H50V-84Z" />
<glyph unicode="^" glyph-name="asciicircum" horiz-adv-x="377" d="M289 344L188 621L88 344H40L152 665H225L337 344H289Z" />
<glyph unicode="_" glyph-name="underscore" horiz-adv-x="516" d="M40 -93V-53H476V-93H40Z" />
<glyph unicode="`" glyph-name="grave" horiz-adv-x="600" d="M79 549H42L0 665H44L79 549Z" />
<glyph unicode="a" glyph-name="a" horiz-adv-x="595" d="M499 0V115Q461 53 410 24T292 -5Q240 -5 195 14T114 68Q79 102 60 148T40 246Q40 297 59 343T114 425Q149 460 194 479T292 498Q364 498 416 470T499 387V486H545V0H499ZM250 453T212 437T145 393Q117
365 101 327T85 246Q85 204 101 166T145 100Q173 72 211 56T292 40Q333 40 371 56T437 100Q465 128 481 166T498 246Q498 288 482 326T438 393Q410 421 372 437T292 453Q250 453 212 437Z" />
<glyph unicode="b" glyph-name="b" horiz-adv-x="597" d="M233 -5T180 20T94 104V0H50V664H94V382Q128 442 179 468T304 495Q355 495 402 475T483 421Q518 386 537 341T557 245Q557 195 538 150T483 69Q449 35 402 15T304 -5Q233 -5 180 20ZM262 449T225 433T158
389Q129 361 113 324T96 245Q96 204 112 166T157 100Q185 72 223 56T304 40Q346 40 384 56T450 100Q478 128 494 166T511 245Q511 286 495 323T450 389Q422 417 384 433T304 449Q262 449 225 433Z" />
<glyph unicode="c" glyph-name="c" horiz-adv-x="516" d="M242 -5T197 14T115 69Q80 103 60 149T40 247Q40 298 60 344T115 425Q151 460 196 479T294 499Q347 499 393 479T476 422L435 398Q407 425 371 439T294 453Q252 453 215 437T148 393Q119 365 103 327T86
247Q86 205 102 167T148 101Q177 73 214 57T294 41Q335 41 371 55T435 96L476 72Q440 35 394 15T294 -5Q242 -5 197 14Z" />
<glyph unicode="d" glyph-name="d" horiz-adv-x="597" d="M242 -5T195 15T114 69Q79 104 60 149T40 245Q40 295 59 340T114 421Q148 455 195 475T293 495Q366 495 417 469T503 382V664H547V0H503V104Q470 45 417 20T293 -5Q242 -5 195 15ZM251 449T213 433T147
389Q118 360 102 323T86 245Q86 204 102 166T147 100Q175 72 213 56T293 40Q335 40 373 56T440 100Q468 128 484 166T501 245Q501 286 485 323T439 389Q410 417 373 433T293 449Q251 449 213 433Z" />
<glyph unicode="e" glyph-name="e" horiz-adv-x="585" d="M87 224Q103 141 160 91Q216 41 292 41Q344 41 387 64T460 127L500 105Q464 54 410 25T292 -5Q241 -5 195 14T114 69Q79 104 60 150T40 247Q40 298 59 344T114 426Q148 461 194 480T292 499Q343 499 389
480T470 426Q502 393 523 341T545 240L544 224H87ZM216 454T160 404Q103 354 87 271H497Q481 354 424 404Q368 454 292 454Q216 454 160 404Z" />
<glyph unicode="f" glyph-name="f" horiz-adv-x="315" d="M156 452V0H108V452H50V496H107Q107 571 158 617T285 670V625Q231 619 194 585T156 496H275V452H156Z" />
<glyph unicode="g" glyph-name="g" horiz-adv-x="594" d="M237 -213T189 -192T105 -132L146 -108Q174 -137 211 -152T292 -168Q334 -168 372 -153T438 -109Q466 -82 482 -45T498 34V115Q422 2 291 2Q241 2 195 22T114 79Q79 115 60 161T40 256Q40 306 59 351T114
430Q148 463 194 481T291 500Q360 500 414 470T498 385V487H544V34Q544 -16 525 -61T470 -140Q436 -174 390 -193T292 -213Q237 -213 189 -192ZM250 454T212 439T145 395Q117 368 101 329T84 249Q84 208 100 172T145 106Q173 78 211 62T291 46Q332 46 369 62T436
106Q464 134 480 171T497 249Q497 290 481 329T436 395Q408 423 370 438T291 454Q250 454 212 439Z" />
<glyph unicode="h" glyph-name="h" horiz-adv-x="497" d="M400 0V305Q400 335 389 362T356 410Q335 430 307 441T249 453Q185 453 142 410Q121 389 109 362T97 305V0H50V667H97V417Q137 463 172 480T249 498Q290 498 326 484T389 442Q417 414 432 379T447 305V0H400Z" />
<glyph unicode="i" glyph-name="i" horiz-adv-x="160" d="M66 553T58 561T50 583Q50 596 58 604T79 613Q92 613 101 605T110 583Q110 570 101 562T79 553Q66 553 58 561ZM56 0V500H102V0H56Z" />
<glyph unicode="j" glyph-name="j" horiz-adv-x="244" d="M144 555T136 563T128 585Q128 598 136 606T157 615Q170 615 179 607T188 585Q188 572 179 564T157 555Q144 555 136 563ZM2 -168H0Q28 -166 52 -155T95 -125Q134 -88 134 -37V500H181V-37Q181 -71 167
-102T129 -157Q76 -207 2 -213V-168Z" />
<glyph unicode="k" glyph-name="k" horiz-adv-x="416" d="M314 0L97 243V0H50V665H97V323L293 493H364L122 284L376 0H314Z" />
<glyph unicode="l" glyph-name="l" horiz-adv-x="146" d="M50 0V665H96V0H50Z" />
<glyph unicode="m" glyph-name="m" horiz-adv-x="765" d="M670 0V319Q670 346 660 371T631 415Q613 433 589 443T538 454Q483 454 444 415Q426 397 416 373T405 321V0H360V321Q360 348 350 372T321 415Q303 433 279 443T227 454Q201 454 177 444T134 414Q116 395
106 370T95 317V0H50V486H95V422Q116 462 153 481T227 500Q318 500 382 410Q448 500 538 500Q574 500 606 487T663 448Q688 423 701 390T715 319V0H670Z" />
<glyph unicode="n" glyph-name="n" horiz-adv-x="487" d="M400 0V305Q400 335 389 362T356 410Q335 431 307 442T248 454Q208 454 173 434T117 380T96 305V0H50V486H96V418Q124 462 164 481T248 500Q288 500 324 485T389 443Q416 416 431 380T447 305V0H400Z" />
<glyph unicode="o" glyph-name="o" horiz-adv-x="588" d="M242 -5T196 15T115 70Q80 105 60 151T40 248Q40 300 60 347T115 429Q150 464 196 483T293 503Q345 503 392 484T474 429Q509 394 528 347T548 248Q548 197 529 151T474 70Q439 35 392 15T293 -5Q242 -5
196 15ZM251 458T214 442T147 397Q118 368 102 329T85 248Q85 206 101 168T147 101Q176 72 213 56T293 39Q335 39 374 55T441 101Q470 130 486 168T502 248Q502 290 486 329T441 397Q413 426 374 442T293 458Q251 458 214 442Z" />
<glyph unicode="p" glyph-name="p" horiz-adv-x="597" d="M355 494T402 474T483 420Q518 385 537 340T557 244Q557 194 538 149T483 68Q449 34 402 14T304 -6Q231 -6 180 20T94 107V-175H50V489H94V385Q127 444 180 469T304 494Q355 494 402 474ZM346 40T384 56T450
100Q479 129 495 166T511 244Q511 285 495 323T450 389Q422 417 384 433T304 449Q262 449 224 433T157 389Q129 361 113 323T96 244Q96 203 112 166T158 100Q187 72 224 56T304 40Q346 40 384 56Z" />
<glyph unicode="q" glyph-name="q" horiz-adv-x="597" d="M364 494T417 469T503 385V489H547V-175H503V107Q469 47 418 21T293 -6Q242 -6 195 14T114 68Q79 103 60 148T40 244Q40 294 59 339T114 420Q148 454 195 474T293 494Q364 494 417 469ZM335 40T372 56T439
100Q468 128 484 165T501 244Q501 285 485 323T440 389Q412 417 374 433T293 449Q251 449 213 433T147 389Q119 361 103 323T86 244Q86 203 102 166T147 100Q175 72 213 56T293 40Q335 40 372 56Z" />
<glyph unicode="r" glyph-name="r" horiz-adv-x="375" d="M285 450Q258 459 236 459Q179 459 138 420Q119 401 108 376T97 325V0H50V325Q50 378 78 420T157 487Q193 504 236 504Q291 504 335 477L285 450Z" />
<glyph unicode="s" glyph-name="s" horiz-adv-x="430" d="M297 -5T219 -5Q132 -5 84 40Q52 71 41 116H90Q102 79 137 60T216 40Q273 40 309 69Q342 96 342 136Q342 192 303 212Q271 227 209 227Q148 227 120 239T72 274Q41 311 41 362Q41 396 55 426T95 475Q140
506 212 506Q273 506 314 482Q342 466 363 434Q378 410 384 383H335Q329 403 323 412Q293 458 218 461Q172 461 145 450Q118 438 103 415T88 365Q88 350 92 338Q104 294 144 282Q163 275 186 274T214 273Q253 271 277 267T327 250Q389 218 389 135Q388 80 345 39Q297
-5 219 -5Z" />
<glyph unicode="t" glyph-name="t" horiz-adv-x="315" d="M181 455V0H135V455H40V500H135V665H181V500H275V455H181Z" />
<glyph unicode="u" glyph-name="u" horiz-adv-x="487" d="M391 5V74Q355 30 318 13T239 -4Q198 -4 162 11T98 54Q71 81 56 116T40 191V500H87V191Q87 161 99 134T132 86Q175 41 239 41Q269 41 297 53T346 86Q367 107 379 134T391 191V500H437V5H391Z" />
<glyph unicode="v" glyph-name="v" horiz-adv-x="535" d="M297 0H238L40 498H89L268 51L446 498H495L297 0Z" />
<glyph unicode="w" glyph-name="w" horiz-adv-x="814" d="M580 0H523L408 295L293 0H236L40 500H89L264 51L384 356L328 500H376L552 51L726 500H774L580 0Z" />
<glyph unicode="x" glyph-name="x" horiz-adv-x="449" d="M251 244L404 0H349L225 201L100 0H46L199 244L40 500H95L225 285L354 500H409L251 244Z" />
<glyph unicode="y" glyph-name="y" horiz-adv-x="524" d="M204 -213T159 -190T82 -127L123 -104Q146 -134 181 -151T257 -168Q327 -168 378 -119Q403 -94 415 -69T428 -10V78Q386 29 347 13T257 -3Q214 -3 175 13T105 57Q74 86 57 123T40 202V500H86V209Q86 140
136 90Q159 67 190 54T257 41Q329 41 378 90Q428 140 428 209V500H474V-10Q474 -52 458 -86T411 -151Q381 -181 341 -197T257 -213Q204 -213 159 -190Z" />
<glyph unicode="z" glyph-name="z" horiz-adv-x="485" d="M40 0V54L390 450H40V496H445V441L97 45H445V0H40Z" />
<glyph unicode="{" glyph-name="braceleft" horiz-adv-x="329" d="M212 -124Q172 -124 143 -97Q129 -85 122 -69T114 -34V116Q114 146 110 172T97 204Q87 217 50 232V309Q87 324 97 337Q105 343 109 369T114 425V575Q114 612 143 639Q172 665 212 665H299V621H212Q191
621 177 608T162 575V427V403Q162 366 149 332Q141 313 131 304T98 282Q91 279 86 276T75 269L112 249Q125 241 134 232T149 208Q160 179 162 138V113V-34Q162 -53 176 -66T212 -80H299V-124H212Z" />
<glyph unicode="|" glyph-name="bar" horiz-adv-x="148" d="M50 0V665H98V0H50Z" />
<glyph unicode="}" glyph-name="braceright" horiz-adv-x="329" d="M50 -80H137Q158 -80 172 -67T187 -34V113V138Q189 179 200 208Q206 223 215 232T237 249L274 269Q269 272 264 275T251 282Q229 295 219 304T200 332Q187 366 187 403V427V575Q187 594 173 607T137
621H50V665H137Q177 665 206 639Q235 612 235 575V425Q235 395 239 369T252 337Q262 324 299 309V232Q262 217 252 204Q244 198 240 172T235 116V-34Q235 -52 228 -68T206 -97Q177 -124 137 -124H50V-80Z" />
<glyph unicode="~" glyph-name="asciitilde" horiz-adv-x="579" d="M378 290T342 307Q317 319 279 341Q244 362 223 372T176 382Q123 382 80 309L40 336Q96 435 172 435H175Q207 435 233 424T301 387Q341 363 365 353T420 342Q441 342 460 361T500 415L539 389Q487
290 418 290Q378 290 342 307Z" />
<glyph unicode="&#xa0;" glyph-name="uni00A0" horiz-adv-x="450" />
<glyph unicode="&#xa1;" glyph-name="exclamdown" horiz-adv-x="160" d="M92 500T101 491T110 470Q110 458 101 449T79 440Q67 440 59 449T50 470Q50 482 58 491T79 500Q92 500 101 491ZM105 -168H57V345H105V-168Z" />
<glyph unicode="&#xa2;" glyph-name="cent" horiz-adv-x="518" d="M309 22H263V73Q215 81 174 103T103 159Q40 228 40 322Q40 416 103 485Q132 518 173 540T263 572V624H309V573Q414 563 478 496L436 473Q372 527 294 527Q252 527 214 511T147 467Q118 438 102
401T86 322Q86 281 102 243T147 177Q175 149 213 133T294 117Q372 117 436 171L477 148Q415 81 309 71V22Z" />
<glyph unicode="&#xa3;" glyph-name="sterling" horiz-adv-x="398" d="M40 0V46H113V382H55V427H113V512Q113 548 127 580T167 638Q192 662 226 676T298 690H358V644H299Q270 644 245 634T200 605Q181 587 170 563T159 512V427H285V382H159V46H358V0H40Z" />
<glyph unicode="&#xa4;" glyph-name="currency" horiz-adv-x="586" d="M534 43L501 10L455 56Q379 -2 293 -2Q207 -2 131 56L85 10L53 43L99 89Q40 166 40 250Q40 335 99 412L53 458L85 491L131 445Q207 503 293 503Q379 503 455 445L501 491L534 458L488 412Q546
336 546 250Q546 165 488 89L534 43ZM438 404T410 422Q355 458 293 458Q229 458 177 422Q116 378 96 313Q86 284 86 250Q86 186 122 134Q166 73 232 53Q259 43 293 43Q355 43 410 79Q438 97 464 134Q500 186 500 250Q500 315 464 367Q438 404 410 422Z" />
<glyph unicode="&#xa5;" glyph-name="yen" horiz-adv-x="547" d="M325 302H459V257H297V161H459V115H297V0H250V115H88V161H250V245L244 257H88V302H221L40 668H92L273 302L455 668H507L325 302Z" />
<glyph unicode="&#xa6;" glyph-name="brokenbar" horiz-adv-x="148" d="M50 419V666H98V419H50ZM50 0V247H98V0H50Z" />
<glyph unicode="&#xa7;" glyph-name="section" horiz-adv-x="430" d="M60 452T50 477T40 529Q40 541 41 547Q49 606 93 637T215 669Q268 669 312 647Q340 631 361 601Q374 583 384 548H335Q332 560 321 577Q291 624 216 624Q173 624 143 613Q104 597 93 563Q86
548 86 528Q86 492 109 469L120 460Q144 440 192 440Q283 440 328 417Q390 386 390 305Q390 278 380 254T350 213Q370 194 379 167T389 113Q389 99 388 93Q380 34 336 3T215 -29Q160 -29 119 -6Q85 11 69 39Q56 57 46 92H95Q100 77 109 63Q139 16 214 16Q286 16
320 48Q330 58 334 69T340 88T343 100L344 112Q344 143 322 170L310 180Q286 200 238 200Q147 200 102 223Q40 254 40 326Q40 369 49 388Q59 409 80 435Q60 452 50 477ZM150 395T119 411Q87 384 87 335Q87 280 128 261Q146 252 172 249T238 245Q272 245 305 234Q343
266 343 305Q343 334 333 352T303 380Q270 395 192 395Q150 395 119 411Z" />
<glyph unicode="&#xa8;" glyph-name="dieresis" horiz-adv-x="600" d="M17 572T9 581T0 602Q0 615 8 623T29 632Q42 632 51 624T60 602Q60 590 51 581T29 572Q17 572 9 581ZM214 572T206 581T197 602Q197 615 205 623T227 632Q240 632 248 624T257 602Q257 590
249 581T227 572Q214 572 206 581Z" />
<glyph unicode="&#xa9;" glyph-name="copyright" horiz-adv-x="750" d="M307 -4T246 22T139 94Q92 140 66 201T40 331Q40 399 66 460T139 568Q185 614 246 640T375 666Q443 666 504 640T612 568Q658 521 684 460T710 331Q710 263 684 202T612 94Q566 48 505 22T375
-4Q307 -4 246 22ZM316 620T264 598T171 535Q131 495 109 443T86 331Q86 272 108 219T171 126Q211 86 263 64T375 41Q434 41 487 63T580 126Q620 166 642 219T665 331Q665 390 643 442T580 535Q540 575 487 597T375 620Q316 620 264 598ZM349 154T317 168T260 207Q235
231 221 264T207 333Q207 369 221 402T260 459Q284 483 317 497T385 511Q422 511 455 497T513 457L479 428Q439 466 385 466Q358 466 334 456T292 427Q274 409 264 385T253 333Q253 278 292 239Q310 221 334 211T385 200Q441 200 479 237L513 208Q488 182 455 168T385
154Q349 154 317 168Z" />
<glyph unicode="&#xaa;" glyph-name="ordfeminine" horiz-adv-x="356" d="M316 665V391H271V428Q231 391 177 391Q140 391 109 409T59 459T40 528Q40 565 58 596T108 646T177 665Q231 665 271 628V665H316ZM215 436T242 463T269 528Q269 566 242 593T177 620Q139
620 112 593T85 528Q85 490 112 463T177 436Q215 436 242 463Z" />
<glyph unicode="&#xab;" glyph-name="guillemotleft" horiz-adv-x="541" d="M226 87L40 278L216 471H278L104 280L290 87H226ZM436 87L250 278L426 471H489L314 280L501 87H436Z" />
<glyph unicode="&#xac;" glyph-name="logicalnot" horiz-adv-x="581" d="M496 110V286H40V332L541 333V110H496Z" />
<glyph unicode="&#xad;" glyph-name="uni00AD" horiz-adv-x="432" d="M40 257V303H392V257H40Z" />
<glyph unicode="&#xae;" glyph-name="registered" horiz-adv-x="540" d="M223 209T182 227T108 277Q76 309 58 350T40 439Q40 485 58 527T108 602Q140 634 181 651T270 669Q317 669 359 652T433 602Q465 570 482 528T500 439Q500 392 483 351T433 277Q401 245
359 227T270 209Q223 209 182 227ZM231 632T196 617T134 575Q108 548 93 513T77 439Q77 400 92 365T134 303Q161 276 196 261T270 245Q309 245 344 260T406 303Q432 330 447 365T463 439Q463 478 448 513T406 575Q379 601 344 616T270 632Q231 632 196 617ZM303
330L238 398V330H202V571H269Q303 571 326 548T350 489Q350 454 330 433T276 408L351 330H303ZM238 534V442H270Q289 442 302 455T316 489Q316 508 303 521T270 534H238Z" />
<glyph unicode="&#xaf;" glyph-name="overscore" horiz-adv-x="600" d="M-1 582V622H280V582H-1Z" />
<glyph unicode="&#xb0;" glyph-name="degree" horiz-adv-x="355" d="M120 428T80 468Q40 508 40 565Q40 593 50 618T80 662Q120 702 177 702Q205 702 230 692T275 662Q294 643 304 618T315 565Q315 510 275 468Q256 449 231 439T177 428Q120 428 80 468ZM138 656T113
629Q86 604 86 565Q86 526 113 501Q138 474 177 474Q216 474 241 501Q268 526 268 565Q268 604 241 629Q216 656 177 656Q138 656 113 629Z" />
<glyph unicode="&#xb1;" glyph-name="plusminus" horiz-adv-x="550" d="M298 327V194H252V327H40V373H252V506H298V373H510V327H298ZM40 76V122H510V76H40Z" />
<glyph unicode="&#xb2;" glyph-name="uni00B2" horiz-adv-x="308" d="M39 366T66 396T136 437Q178 448 205 465Q244 494 244 538Q244 581 214 608Q200 622 181 630T141 638H42V677H141Q200 677 243 637Q263 617 274 591T285 538Q285 486 242 444Q207 413 146 399Q85
386 69 310Q63 287 63 249H260V210H27Q23 230 23 257Q23 288 29 318Q39 366 66 396Z" />
<glyph unicode="&#xb3;" glyph-name="uni00B3" horiz-adv-x="285" d="M24 206V245H130Q168 245 195 270Q222 297 222 332Q222 367 195 394Q183 406 166 413T130 420H94V458H130Q148 458 165 465T195 484Q222 511 222 546Q222 582 195 607Q183 619 166 626T130
633H24V673H130Q184 673 223 636Q241 619 251 596T261 546Q261 483 201 439Q261 396 261 332Q261 279 223 243Q184 206 130 206H24Z" />
<glyph unicode="&#xb4;" glyph-name="acute" horiz-adv-x="600" d="M37 549H0L35 665H79L37 549Z" />
<glyph unicode="&#xb5;" glyph-name="uni00B5" horiz-adv-x="487" d="M437 500V5H391V74Q355 30 318 13T239 -4Q198 -4 162 11T98 54L88 65V-85H39L40 269V500H87V183Q90 126 132 86Q175 41 239 41Q269 41 297 53T346 86Q367 107 379 134T391 191V500H437Z" />
<glyph unicode="&#xb6;" glyph-name="paragraph" horiz-adv-x="493" d="M260 0V366H193Q131 366 85 410Q64 431 52 458T40 516Q40 546 52 573T85 621Q131 665 193 665H305V0H260ZM397 0V665H443V0H397Z" />
<glyph unicode="&#xb7;" glyph-name="middot" horiz-adv-x="160" d="M67 276T59 285T50 306Q50 319 58 327T79 336Q92 336 101 328T110 306Q110 294 101 285T79 276Q67 276 59 285Z" />
<glyph unicode="&#xb8;" glyph-name="cedilla" horiz-adv-x="600" d="M18 -17L34 15H72L57 -21Q86 -21 108 -34T142 -70T154 -116Q154 -158 125 -184T55 -210Q25 -210 0 -194L25 -166Q42 -174 61 -174Q87 -174 103 -158T119 -116Q119 -90 98 -74T48 -57Q43 -57
31 -59L18 -17Z" />
<glyph unicode="&#xb9;" glyph-name="uni00B9" horiz-adv-x="210" d="M138 210V630L82 551H33L120 673H180V210H138Z" />
<glyph unicode="&#xba;" glyph-name="ordmasculine" horiz-adv-x="355" d="M120 393T80 433Q40 473 40 530Q40 558 50 583T80 627Q120 667 177 667Q205 667 230 657T275 627Q294 608 304 583T315 530Q315 473 275 433Q256 414 231 404T177 393Q120 393 80 433ZM139
628T108 599Q94 586 87 568T79 530Q79 492 108 461Q121 447 139 440T177 432Q215 432 246 461Q260 474 267 492T275 530Q275 568 246 599Q233 613 215 620T177 628Q139 628 108 599Z" />
<glyph unicode="&#xbb;" glyph-name="guillemotright" horiz-adv-x="541" d="M227 280L52 471H115L291 278L105 87H40L227 280ZM437 280L263 471H325L501 278L315 87H251L437 280Z" />
<glyph unicode="&#xbc;" glyph-name="onequarter" horiz-adv-x="854" d="M138 210V630L82 551H33L120 673H180V210H138ZM267 0H219L586 666H634L267 0ZM759 122V-5H720V122H526L672 462H715L584 161H720V236H759V161H824V122H759Z" />
<glyph unicode="&#xbd;" glyph-name="onehalf" horiz-adv-x="866" d="M138 210V630L82 551H33L120 673H180V210H138ZM232 0H184L551 666H599L232 0ZM590 156T617 186T687 227Q729 238 756 255Q795 284 795 328Q795 371 765 398Q751 412 732 420T692 428H593V467H692Q751
467 794 427Q814 407 825 381T836 328Q836 276 793 234Q758 203 697 189Q636 176 620 100Q614 77 614 39H811V0H578Q574 20 574 47Q574 78 580 108Q590 156 617 186Z" />
<glyph unicode="&#xbe;" glyph-name="threequarters" horiz-adv-x="853" d="M24 206V245H130Q168 245 195 270Q222 297 222 332Q222 367 195 394Q183 406 166 413T130 420H94V458H130Q148 458 165 465T195 484Q222 511 222 546Q222 582 195 607Q183 619 166 626T130
633H24V673H130Q184 673 223 636Q241 619 251 596T261 546Q261 483 201 439Q261 396 261 332Q261 279 223 243Q184 206 130 206H24ZM269 0H221L588 666H636L269 0ZM764 122V-5H725V122H531L677 462H720L589 161H725V236H764V161H829V122H764Z" />
<glyph unicode="&#xbf;" glyph-name="questiondown" horiz-adv-x="509" d="M248 504T256 495T265 474Q265 462 257 453T236 444Q223 444 214 453T205 474Q205 486 214 495T236 504Q248 504 256 495ZM213 239V346H259V218L158 136Q121 106 104 74T86 1Q86 -32 99
-62T135 -115Q158 -137 189 -150T254 -163Q287 -163 316 -152T369 -120Q417 -75 423 -12H469Q466 -53 449 -89T402 -152Q372 -179 334 -194T254 -209Q210 -209 172 -193T103 -148Q73 -119 57 -80T40 1Q40 100 129 171L213 239Z" />
<glyph unicode="&#xc0;" glyph-name="Agrave" horiz-adv-x="622" d="M533 -1L443 255H181L89 -1H40L275 663H347L582 -1H533ZM311 626L194 296L428 295L311 626ZM327 729H290L248 845H292L327 729Z" />
<glyph unicode="&#xc1;" glyph-name="Aacute" horiz-adv-x="622" d="M533 -1L443 255H181L89 -1H40L275 663H347L582 -1H533ZM311 626L194 296L428 295L311 626ZM317 731H280L315 847H359L317 731Z" />
<glyph unicode="&#xc2;" glyph-name="Acircumflex" horiz-adv-x="622" d="M533 -1L443 255H181L89 -1H40L275 663H347L582 -1H533ZM311 626L194 296L428 295L311 626ZM372 716L312 784L251 716H200L313 841L421 716H372Z" />
<glyph unicode="&#xc3;" glyph-name="Atilde" horiz-adv-x="622" d="M533 -1L443 255H181L89 -1H40L275 663H347L582 -1H533ZM311 626L194 296L428 295L311 626ZM162 757Q169 771 183 788Q210 819 242 819Q258 819 284 808L321 787Q343 774 355 768T377 762Q395
762 407 776T433 818L461 792Q444 761 427 745T390 723Q386 722 378 722Q357 722 331 736Q322 740 304 752Q284 764 275 768Q256 777 241 778Q227 778 213 764T189 731L162 757Z" />
<glyph unicode="&#xc4;" glyph-name="Adieresis" horiz-adv-x="622" d="M533 -1L443 255H181L89 -1H40L275 663H347L582 -1H533ZM311 626L194 296L428 295L311 626ZM199 728T191 737T182 758Q182 771 190 779T211 788Q224 788 233 780T242 758Q242 746 233 737T211
728Q199 728 191 737ZM396 728T388 737T379 758Q379 771 387 779T409 788Q422 788 430 780T439 758Q439 746 431 737T409 728Q396 728 388 737Z" />
<glyph unicode="&#xc5;" glyph-name="Aring" horiz-adv-x="622" d="M533 -1L443 255H181L89 -1H40L275 663H347L582 -1H533ZM311 626L194 296L428 295L311 626ZM272 711T246 738T220 802Q220 840 247 866T313 892Q351 892 376 864T402 801Q402 764 375 738T311
711Q272 711 246 738ZM333 746T350 762T367 802Q367 824 351 840T311 857Q286 857 271 842T255 802Q255 780 271 763T310 746Q333 746 350 762Z" />
<glyph unicode="&#xc6;" glyph-name="AE" horiz-adv-x="815" d="M457 354H671V310H457V45H775V0H411V254H178L89 1H40L275 665H775V620H457V354ZM411 620H315L194 298H411V620Z" />
<glyph unicode="&#xc7;" glyph-name="Ccedilla" horiz-adv-x="666" d="M439 42T494 65T591 133L625 104Q577 52 513 24T378 -4H367L358 -25Q387 -25 409 -38T443 -74T455 -120Q455 -162 426 -188T356 -214Q326 -214 301 -198L326 -170Q343 -178 362 -178Q388 -178
404 -162T420 -120Q420 -94 399 -78T349 -61Q344 -61 332 -63L319 -21L329 0Q275 7 226 32T139 95Q92 141 66 202T40 332Q40 400 66 461T139 570Q186 616 248 642T378 668Q450 668 514 641T626 560L591 531Q549 575 494 598T378 622Q319 622 266 600T172 537Q131
497 109 444T86 332Q86 273 108 220T172 127Q212 87 265 65T378 42Q439 42 494 65Z" />
<glyph unicode="&#xc8;" glyph-name="Egrave" horiz-adv-x="464" d="M50 0V665H414V620H96V354H310V310H96V45H414V0H50ZM248 729H211L169 845H213L248 729Z" />
<glyph unicode="&#xc9;" glyph-name="Eacute" horiz-adv-x="464" d="M50 0V665H414V620H96V354H310V310H96V45H414V0H50ZM238 731H201L236 847H280L238 731Z" />
<glyph unicode="&#xca;" glyph-name="Ecircumflex" horiz-adv-x="464" d="M50 0V665H414V620H96V354H310V310H96V45H414V0H50ZM293 716L233 784L172 716H121L234 841L342 716H293Z" />
<glyph unicode="&#xcb;" glyph-name="Edieresis" horiz-adv-x="464" d="M50 0V665H414V620H96V354H310V310H96V45H414V0H50ZM120 728T112 737T103 758Q103 771 111 779T132 788Q145 788 154 780T163 758Q163 746 154 737T132 728Q120 728 112 737ZM317 728T309
737T300 758Q300 771 308 779T330 788Q343 788 351 780T360 758Q360 746 352 737T330 728Q317 728 309 737Z" />
<glyph unicode="&#xcc;" glyph-name="Igrave" horiz-adv-x="172" d="M76 0V665H122V0H76ZM119 729H82L40 845H84L119 729Z" />
<glyph unicode="&#xcd;" glyph-name="Iacute" horiz-adv-x="188" d="M58 0V665H104V0H58ZM96 720H59L94 836H138L96 720Z" />
<glyph unicode="&#xce;" glyph-name="Icircumflex" horiz-adv-x="301" d="M128 0V665H174V0H128ZM212 710L152 778L91 710H40L153 835L261 710H212Z" />
<glyph unicode="&#xcf;" glyph-name="Idieresis" horiz-adv-x="297" d="M126 0V665H172V0H126ZM37 699T29 708T20 729Q20 742 28 750T49 759Q62 759 71 751T80 729Q80 717 71 708T49 699Q37 699 29 708ZM234 699T226 708T217 729Q217 742 225 750T247 759Q260
759 268 751T277 729Q277 717 269 708T247 699Q234 699 226 708Z" />
<glyph unicode="&#xd0;" glyph-name="Eth" horiz-adv-x="620" d="M528 522T554 462T580 333Q580 265 554 205T481 98Q434 51 373 26T243 0H79V313H40V353H79V666H243Q312 666 373 641T481 569Q528 522 554 462ZM490 169T512 221T535 333Q535 392 513 444T450 537Q410
577 356 599T243 621H125V353H429V313H125V45H243Q302 45 356 67T450 129Q490 169 512 221Z" />
<glyph unicode="&#xd1;" glyph-name="Ntilde" horiz-adv-x="585" d="M470 0L96 590V0H50V665H105L490 59V665H535V0H470ZM144 757Q151 771 165 788Q192 819 224 819Q240 819 266 808L303 787Q325 774 337 768T359 762Q377 762 389 776T415 818L443 792Q426 761
409 745T372 723Q368 722 360 722Q339 722 313 736Q304 740 286 752Q266 764 257 768Q238 777 223 778Q209 778 195 764T171 731L144 757Z" />
<glyph unicode="&#xd2;" glyph-name="Ograve" horiz-adv-x="747" d="M305 -5T245 20T138 93Q91 139 66 199T40 328Q40 396 66 457T138 564Q184 610 244 636T373 662Q441 662 502 636T609 564Q655 518 681 457T707 328Q707 260 681 200T609 93Q563 47 502 21T373
-5Q305 -5 245 20ZM314 616T262 594T169 532Q129 492 107 440T85 328Q85 269 107 217T169 124Q209 84 261 62T373 40Q432 40 484 62T577 124Q617 164 639 216T661 328Q661 387 639 439T577 532Q537 572 485 594T373 616Q314 616 262 594ZM390 729H353L311 845H355L390
729Z" />
<glyph unicode="&#xd3;" glyph-name="Oacute" horiz-adv-x="747" d="M305 -5T245 20T138 93Q91 139 66 199T40 328Q40 396 66 457T138 564Q184 610 244 636T373 662Q441 662 502 636T609 564Q655 518 681 457T707 328Q707 260 681 200T609 93Q563 47 502 21T373
-5Q305 -5 245 20ZM314 616T262 594T169 532Q129 492 107 440T85 328Q85 269 107 217T169 124Q209 84 261 62T373 40Q432 40 484 62T577 124Q617 164 639 216T661 328Q661 387 639 439T577 532Q537 572 485 594T373 616Q314 616 262 594ZM380 731H343L378 847H422L380
731Z" />
<glyph unicode="&#xd4;" glyph-name="Ocircumflex" horiz-adv-x="747" d="M305 -5T245 20T138 93Q91 139 66 199T40 328Q40 396 66 457T138 564Q184 610 244 636T373 662Q441 662 502 636T609 564Q655 518 681 457T707 328Q707 260 681 200T609 93Q563 47 502
21T373 -5Q305 -5 245 20ZM314 616T262 594T169 532Q129 492 107 440T85 328Q85 269 107 217T169 124Q209 84 261 62T373 40Q432 40 484 62T577 124Q617 164 639 216T661 328Q661 387 639 439T577 532Q537 572 485 594T373 616Q314 616 262 594ZM435 716L375 784L314
716H263L376 841L484 716H435Z" />
<glyph unicode="&#xd5;" glyph-name="Otilde" horiz-adv-x="747" d="M305 -5T245 20T138 93Q91 139 66 199T40 328Q40 396 66 457T138 564Q184 610 244 636T373 662Q441 662 502 636T609 564Q655 518 681 457T707 328Q707 260 681 200T609 93Q563 47 502 21T373
-5Q305 -5 245 20ZM314 616T262 594T169 532Q129 492 107 440T85 328Q85 269 107 217T169 124Q209 84 261 62T373 40Q432 40 484 62T577 124Q617 164 639 216T661 328Q661 387 639 439T577 532Q537 572 485 594T373 616Q314 616 262 594ZM225 757Q232 771 246 788Q273
819 305 819Q321 819 347 808L384 787Q406 774 418 768T440 762Q458 762 470 776T496 818L524 792Q507 761 490 745T453 723Q449 722 441 722Q420 722 394 736Q385 740 367 752Q347 764 338 768Q319 777 304 778Q290 778 276 764T252 731L225 757Z" />
<glyph unicode="&#xd6;" glyph-name="Odieresis" horiz-adv-x="747" d="M305 -5T245 20T138 93Q91 139 66 199T40 328Q40 396 66 457T138 564Q184 610 244 636T373 662Q441 662 502 636T609 564Q655 518 681 457T707 328Q707 260 681 200T609 93Q563 47 502 21T373
-5Q305 -5 245 20ZM314 616T262 594T169 532Q129 492 107 440T85 328Q85 269 107 217T169 124Q209 84 261 62T373 40Q432 40 484 62T577 124Q617 164 639 216T661 328Q661 387 639 439T577 532Q537 572 485 594T373 616Q314 616 262 594ZM262 728T254 737T245 758Q245
771 253 779T274 788Q287 788 296 780T305 758Q305 746 296 737T274 728Q262 728 254 737ZM459 728T451 737T442 758Q442 771 450 779T472 788Q485 788 493 780T502 758Q502 746 494 737T472 728Q459 728 451 737Z" />
<glyph unicode="&#xd7;" glyph-name="multiply" horiz-adv-x="449" d="M377 96L225 248L73 95L40 128L192 280L40 432L73 465L225 312L377 464L409 432L257 280L409 128L377 96Z" />
<glyph unicode="&#xd8;" glyph-name="Oslash" horiz-adv-x="747" d="M655 518T681 457T707 328Q707 260 681 200T609 93Q563 47 502 21T373 -5Q297 -5 232 26L217 0H165L192 49Q160 70 138 93Q91 139 66 199T40 328Q40 396 66 457T138 564Q184 610 244 636T373
662Q445 662 511 632L530 666H582L551 610Q583 590 609 564Q655 518 681 457ZM192 101T213 88L489 592Q433 616 373 616Q314 616 262 594T169 532Q129 492 107 440T85 328Q85 269 107 217T169 124Q192 101 213 88ZM617 164T639 216T661 328Q661 387 639 439T577
532Q555 554 530 570L253 66Q308 40 373 40Q432 40 484 62T577 124Q617 164 639 216Z" />
<glyph unicode="&#xd9;" glyph-name="Ugrave" horiz-adv-x="564" d="M235 -7T193 11T118 60Q86 91 68 133T50 221V663H97V221Q97 146 153 90Q204 39 282 39Q359 39 413 90Q469 144 469 221V663H514V221Q514 175 496 133T446 60Q414 29 372 11T282 -7Q235 -7 193
11ZM298 729H261L219 845H263L298 729Z" />
<glyph unicode="&#xda;" glyph-name="Uacute" horiz-adv-x="564" d="M235 -7T193 11T118 60Q86 91 68 133T50 221V663H97V221Q97 146 153 90Q204 39 282 39Q359 39 413 90Q469 144 469 221V663H514V221Q514 175 496 133T446 60Q414 29 372 11T282 -7Q235 -7 193
11ZM288 731H251L286 847H330L288 731Z" />
<glyph unicode="&#xdb;" glyph-name="Ucircumflex" horiz-adv-x="564" d="M235 -7T193 11T118 60Q86 91 68 133T50 221V663H97V221Q97 146 153 90Q204 39 282 39Q359 39 413 90Q469 144 469 221V663H514V221Q514 175 496 133T446 60Q414 29 372 11T282 -7Q235
-7 193 11ZM343 716L283 784L222 716H171L284 841L392 716H343Z" />
<glyph unicode="&#xdc;" glyph-name="Udieresis" horiz-adv-x="564" d="M235 -7T193 11T118 60Q86 91 68 133T50 221V663H97V221Q97 146 153 90Q204 39 282 39Q359 39 413 90Q469 144 469 221V663H514V221Q514 175 496 133T446 60Q414 29 372 11T282 -7Q235 -7
193 11ZM170 728T162 737T153 758Q153 771 161 779T182 788Q195 788 204 780T213 758Q213 746 204 737T182 728Q170 728 162 737ZM367 728T359 737T350 758Q350 771 358 779T380 788Q393 788 401 780T410 758Q410 746 402 737T380 728Q367 728 359 737Z" />
<glyph unicode="&#xdd;" glyph-name="Yacute" horiz-adv-x="544" d="M296 245V0H249V243L40 665H91L272 300L453 665H504L296 245ZM278 731H241L276 847H320L278 731Z" />
<glyph unicode="&#xde;" glyph-name="Thorn" horiz-adv-x="490" d="M417 442T433 404T450 324Q450 282 434 244T387 177Q356 148 317 132T235 116H97V-30H50V681H97V532H235Q279 532 318 516T387 471Q417 442 433 404ZM377 230T390 260T403 324Q403 358 390 387T354
439Q304 486 235 486H97V160H235Q303 160 354 208Q377 230 390 260Z" />
<glyph unicode="&#xdf;" glyph-name="germandbls" horiz-adv-x="493" d="M192 0V45H270Q297 45 322 55T367 84Q386 102 396 126T407 177Q407 204 397 229T367 272Q348 290 323 300T270 311H96V0H50V666L245 667Q281 667 315 653T374 615Q399 590 413 558T427 489Q427
406 348 340Q400 310 426 269T453 177Q453 141 439 109T400 52Q375 27 342 14T270 0H192ZM96 621V355H245Q272 355 297 365T341 394Q360 413 370 437T381 489Q381 515 371 539T341 582Q322 600 297 610T245 621H96Z" />
<glyph unicode="&#xe0;" glyph-name="agrave" horiz-adv-x="595" d="M499 0V115Q461 53 410 24T292 -5Q240 -5 195 14T114 68Q79 102 60 148T40 246Q40 297 59 343T114 425Q149 460 194 479T292 498Q364 498 416 470T499 387V486H545V0H499ZM250 453T212 437T145
393Q117 365 101 327T85 246Q85 204 101 166T145 100Q173 72 211 56T292 40Q333 40 371 56T437 100Q465 128 481 166T498 246Q498 288 482 326T438 393Q410 421 372 437T292 453Q250 453 212 437ZM308 562H271L229 678H273L308 562Z" />
<glyph unicode="&#xe1;" glyph-name="aacute" horiz-adv-x="595" d="M499 0V115Q461 53 410 24T292 -5Q240 -5 195 14T114 68Q79 102 60 148T40 246Q40 297 59 343T114 425Q149 460 194 479T292 498Q364 498 416 470T499 387V486H545V0H499ZM250 453T212 437T145
393Q117 365 101 327T85 246Q85 204 101 166T145 100Q173 72 211 56T292 40Q333 40 371 56T437 100Q465 128 481 166T498 246Q498 288 482 326T438 393Q410 421 372 437T292 453Q250 453 212 437ZM298 564H261L296 680H340L298 564Z" />
<glyph unicode="&#xe2;" glyph-name="acircumflex" horiz-adv-x="595" d="M499 0V115Q461 53 410 24T292 -5Q240 -5 195 14T114 68Q79 102 60 148T40 246Q40 297 59 343T114 425Q149 460 194 479T292 498Q364 498 416 470T499 387V486H545V0H499ZM250 453T212
437T145 393Q117 365 101 327T85 246Q85 204 101 166T145 100Q173 72 211 56T292 40Q333 40 371 56T437 100Q465 128 481 166T498 246Q498 288 482 326T438 393Q410 421 372 437T292 453Q250 453 212 437ZM353 549L293 617L232 549H181L294 674L402 549H353Z" />
<glyph unicode="&#xe3;" glyph-name="atilde" horiz-adv-x="595" d="M499 0V115Q461 53 410 24T292 -5Q240 -5 195 14T114 68Q79 102 60 148T40 246Q40 297 59 343T114 425Q149 460 194 479T292 498Q364 498 416 470T499 387V486H545V0H499ZM250 453T212 437T145
393Q117 365 101 327T85 246Q85 204 101 166T145 100Q173 72 211 56T292 40Q333 40 371 56T437 100Q465 128 481 166T498 246Q498 288 482 326T438 393Q410 421 372 437T292 453Q250 453 212 437ZM143 590Q150 604 164 621Q191 652 223 652Q239 652 265 641L302
620Q324 607 336 601T358 595Q376 595 388 609T414 651L442 625Q425 594 408 578T371 556Q367 555 359 555Q338 555 312 569Q303 573 285 585Q265 597 256 601Q237 610 222 611Q208 611 194 597T170 564L143 590Z" />
<glyph unicode="&#xe4;" glyph-name="adieresis" horiz-adv-x="595" d="M499 0V115Q461 53 410 24T292 -5Q240 -5 195 14T114 68Q79 102 60 148T40 246Q40 297 59 343T114 425Q149 460 194 479T292 498Q364 498 416 470T499 387V486H545V0H499ZM250 453T212 437T145
393Q117 365 101 327T85 246Q85 204 101 166T145 100Q173 72 211 56T292 40Q333 40 371 56T437 100Q465 128 481 166T498 246Q498 288 482 326T438 393Q410 421 372 437T292 453Q250 453 212 437ZM180 561T172 570T163 591Q163 604 171 612T192 621Q205 621 214
613T223 591Q223 579 214 570T192 561Q180 561 172 570ZM377 561T369 570T360 591Q360 604 368 612T390 621Q403 621 411 613T420 591Q420 579 412 570T390 561Q377 561 369 570Z" />
<glyph unicode="&#xe5;" glyph-name="aring" horiz-adv-x="595" d="M499 0V115Q461 53 410 24T292 -5Q240 -5 195 14T114 68Q79 102 60 148T40 246Q40 297 59 343T114 425Q149 460 194 479T292 498Q364 498 416 470T499 387V486H545V0H499ZM250 453T212 437T145
393Q117 365 101 327T85 246Q85 204 101 166T145 100Q173 72 211 56T292 40Q333 40 371 56T437 100Q465 128 481 166T498 246Q498 288 482 326T438 393Q410 421 372 437T292 453Q250 453 212 437ZM253 544T227 571T201 635Q201 673 228 699T294 725Q332 725 357
697T383 634Q383 597 356 571T292 544Q253 544 227 571ZM314 579T331 595T348 635Q348 657 332 673T292 690Q267 690 252 675T236 635Q236 613 252 596T291 579Q314 579 331 595Z" />
<glyph unicode="&#xe6;" glyph-name="ae" horiz-adv-x="1043" d="M960 393T981 341T1003 240L1002 224H545Q561 141 618 91Q674 41 750 41Q802 41 845 64T918 127L958 105Q922 54 868 25T750 -5Q699 -5 653 14T572 69Q558 83 545 101V0H499V115Q461 53 410 24T292
-5Q240 -5 195 14T114 68Q79 102 60 148T40 246Q40 297 59 343T114 425Q149 460 194 479T292 498Q364 498 416 470T499 387V486H545V394Q558 412 572 426Q606 461 652 480T750 499Q801 499 847 480T928 426Q960 393 981 341ZM955 271Q939 354 882 404Q826 454 750
454Q674 454 618 404Q561 354 545 271H955ZM465 128T481 166T498 246Q498 288 482 326T438 393Q410 421 372 437T292 453Q250 453 212 437T145 393Q117 365 101 327T85 246Q85 204 101 166T145 100Q173 72 211 56T292 40Q333 40 371 56T437 100Q465 128 481 166Z"
/>
<glyph unicode="&#xe7;" glyph-name="ccedilla" horiz-adv-x="516" d="M335 41T371 55T435 96L476 72Q443 38 400 18T308 -5L301 -21Q330 -21 352 -34T386 -70T398 -116Q398 -158 369 -184T299 -210Q269 -210 244 -194L269 -166Q286 -174 305 -174Q331 -174 347
-158T363 -116Q363 -90 342 -74T292 -57Q287 -57 275 -59L262 -17L269 -4Q179 5 115 69Q80 103 60 149T40 247Q40 298 60 344T115 425Q151 460 196 479T294 499Q347 499 393 479T476 422L435 398Q407 425 371 439T294 453Q252 453 215 437T148 393Q119 365 103
327T86 247Q86 205 102 167T148 101Q177 73 214 57T294 41Q335 41 371 55Z" />
<glyph unicode="&#xe8;" glyph-name="egrave" horiz-adv-x="585" d="M87 224Q103 141 160 91Q216 41 292 41Q344 41 387 64T460 127L500 105Q464 54 410 25T292 -5Q241 -5 195 14T114 69Q79 104 60 150T40 247Q40 298 59 344T114 426Q148 461 194 480T292 499Q343
499 389 480T470 426Q502 393 523 341T545 240L544 224H87ZM216 454T160 404Q103 354 87 271H497Q481 354 424 404Q368 454 292 454Q216 454 160 404ZM308 564H271L229 680H273L308 564Z" />
<glyph unicode="&#xe9;" glyph-name="eacute" horiz-adv-x="585" d="M87 224Q103 141 160 91Q216 41 292 41Q344 41 387 64T460 127L500 105Q464 54 410 25T292 -5Q241 -5 195 14T114 69Q79 104 60 150T40 247Q40 298 59 344T114 426Q148 461 194 480T292 499Q343
499 389 480T470 426Q502 393 523 341T545 240L544 224H87ZM216 454T160 404Q103 354 87 271H497Q481 354 424 404Q368 454 292 454Q216 454 160 404ZM298 566H261L296 682H340L298 566Z" />
<glyph unicode="&#xea;" glyph-name="ecircumflex" horiz-adv-x="585" d="M87 224Q103 141 160 91Q216 41 292 41Q344 41 387 64T460 127L500 105Q464 54 410 25T292 -5Q241 -5 195 14T114 69Q79 104 60 150T40 247Q40 298 59 344T114 426Q148 461 194 480T292
499Q343 499 389 480T470 426Q502 393 523 341T545 240L544 224H87ZM216 454T160 404Q103 354 87 271H497Q481 354 424 404Q368 454 292 454Q216 454 160 404ZM353 551L293 619L232 551H181L294 676L402 551H353Z" />
<glyph unicode="&#xeb;" glyph-name="edieresis" horiz-adv-x="585" d="M87 224Q103 141 160 91Q216 41 292 41Q344 41 387 64T460 127L500 105Q464 54 410 25T292 -5Q241 -5 195 14T114 69Q79 104 60 150T40 247Q40 298 59 344T114 426Q148 461 194 480T292 499Q343
499 389 480T470 426Q502 393 523 341T545 240L544 224H87ZM216 454T160 404Q103 354 87 271H497Q481 354 424 404Q368 454 292 454Q216 454 160 404ZM180 563T172 572T163 593Q163 606 171 614T192 623Q205 623 214 615T223 593Q223 581 214 572T192 563Q180 563
172 572ZM377 563T369 572T360 593Q360 606 368 614T390 623Q403 623 411 615T420 593Q420 581 412 572T390 563Q377 563 369 572Z" />
<glyph unicode="&#xec;" glyph-name="igrave" horiz-adv-x="159" d="M329 0V500H375V0H329ZM119 564H82L40 680H84L119 564Z" />
<glyph unicode="&#xed;" glyph-name="iacute" horiz-adv-x="169" d="M304 0V500H350V0H304ZM93 566H56L91 682H135L93 566Z" />
<glyph unicode="&#xee;" glyph-name="icircumflex" horiz-adv-x="301" d="M128 0V500H174V0H128ZM212 575L152 643L91 575H40L153 700L261 575H212Z" />
<glyph unicode="&#xef;" glyph-name="idieresis" horiz-adv-x="277" d="M27 534T19 543T10 564Q10 577 18 585T40 594Q53 594 61 586T70 564Q70 552 62 543T40 534Q27 534 19 543ZM225 534T216 543T207 564Q207 577 216 585T238 594Q250 594 258 586T267 564Q267
552 259 543T238 534Q225 534 216 543ZM115 500H161V0H115V500Z" />
<glyph unicode="&#xf0;" glyph-name="eth" horiz-adv-x="484" d="M444 235T444 193Q444 153 429 118T385 54Q358 27 321 12T242 -4Q201 -4 164 11T99 54Q71 82 56 117T40 193Q40 233 55 269T99 333Q126 360 163 375T242 391Q260 391 279 387T333 370L259 540L183
518L172 555L244 576L205 665H255L289 588L357 608L368 571L304 553L427 274Q444 235 444 193ZM398 129T398 193Q398 256 353 301Q331 322 303 333T242 345Q210 345 182 334T132 301Q86 255 86 193Q86 130 132 86Q153 65 181 54T242 42Q274 42 302 53T353 86Q398
129 398 193Z" />
<glyph unicode="&#xf1;" glyph-name="ntilde" horiz-adv-x="487" d="M400 0V305Q400 335 389 362T356 410Q335 431 307 442T248 454Q208 454 173 434T117 380T96 305V0H50V486H96V418Q124 462 164 481T248 500Q288 500 324 485T389 443Q416 416 431 380T447 305V0H400ZM95
592Q102 606 116 623Q143 654 175 654Q191 654 217 643L254 622Q276 609 288 603T310 597Q328 597 340 611T366 653L394 627Q377 596 360 580T323 558Q319 557 311 557Q290 557 264 571Q255 575 237 587Q217 599 208 603Q189 612 174 613Q160 613 146 599T122 566L95
592Z" />
<glyph unicode="&#xf2;" glyph-name="ograve" horiz-adv-x="588" d="M242 -5T196 15T115 70Q80 105 60 151T40 248Q40 300 60 347T115 429Q150 464 196 483T293 503Q345 503 392 484T474 429Q509 394 528 347T548 248Q548 197 529 151T474 70Q439 35 392 15T293
-5Q242 -5 196 15ZM251 458T214 442T147 397Q118 368 102 329T85 248Q85 206 101 168T147 101Q176 72 213 56T293 39Q335 39 374 55T441 101Q470 130 486 168T502 248Q502 290 486 329T441 397Q413 426 374 442T293 458Q251 458 214 442ZM310 564H273L231 680H275L310
564Z" />
<glyph unicode="&#xf3;" glyph-name="oacute" horiz-adv-x="588" d="M242 -5T196 15T115 70Q80 105 60 151T40 248Q40 300 60 347T115 429Q150 464 196 483T293 503Q345 503 392 484T474 429Q509 394 528 347T548 248Q548 197 529 151T474 70Q439 35 392 15T293
-5Q242 -5 196 15ZM251 458T214 442T147 397Q118 368 102 329T85 248Q85 206 101 168T147 101Q176 72 213 56T293 39Q335 39 374 55T441 101Q470 130 486 168T502 248Q502 290 486 329T441 397Q413 426 374 442T293 458Q251 458 214 442ZM300 566H263L298 682H342L300
566Z" />
<glyph unicode="&#xf4;" glyph-name="ocircumflex" horiz-adv-x="588" d="M242 -5T196 15T115 70Q80 105 60 151T40 248Q40 300 60 347T115 429Q150 464 196 483T293 503Q345 503 392 484T474 429Q509 394 528 347T548 248Q548 197 529 151T474 70Q439 35 392
15T293 -5Q242 -5 196 15ZM251 458T214 442T147 397Q118 368 102 329T85 248Q85 206 101 168T147 101Q176 72 213 56T293 39Q335 39 374 55T441 101Q470 130 486 168T502 248Q502 290 486 329T441 397Q413 426 374 442T293 458Q251 458 214 442ZM355 551L295 619L234
551H183L296 676L404 551H355Z" />
<glyph unicode="&#xf5;" glyph-name="otilde" horiz-adv-x="588" d="M242 -5T196 15T115 70Q80 105 60 151T40 248Q40 300 60 347T115 429Q150 464 196 483T293 503Q345 503 392 484T474 429Q509 394 528 347T548 248Q548 197 529 151T474 70Q439 35 392 15T293
-5Q242 -5 196 15ZM251 458T214 442T147 397Q118 368 102 329T85 248Q85 206 101 168T147 101Q176 72 213 56T293 39Q335 39 374 55T441 101Q470 130 486 168T502 248Q502 290 486 329T441 397Q413 426 374 442T293 458Q251 458 214 442ZM145 592Q152 606 166 623Q193
654 225 654Q241 654 267 643L304 622Q326 609 338 603T360 597Q378 597 390 611T416 653L444 627Q427 596 410 580T373 558Q369 557 361 557Q340 557 314 571Q305 575 287 587Q267 599 258 603Q239 612 224 613Q210 613 196 599T172 566L145 592Z" />
<glyph unicode="&#xf6;" glyph-name="odieresis" horiz-adv-x="588" d="M242 -5T196 15T115 70Q80 105 60 151T40 248Q40 300 60 347T115 429Q150 464 196 483T293 503Q345 503 392 484T474 429Q509 394 528 347T548 248Q548 197 529 151T474 70Q439 35 392 15T293
-5Q242 -5 196 15ZM251 458T214 442T147 397Q118 368 102 329T85 248Q85 206 101 168T147 101Q176 72 213 56T293 39Q335 39 374 55T441 101Q470 130 486 168T502 248Q502 290 486 329T441 397Q413 426 374 442T293 458Q251 458 214 442ZM182 563T174 572T165 593Q165
606 173 614T194 623Q207 623 216 615T225 593Q225 581 216 572T194 563Q182 563 174 572ZM379 563T371 572T362 593Q362 606 370 614T392 623Q405 623 413 615T422 593Q422 581 414 572T392 563Q379 563 371 572Z" />
<glyph unicode="&#xf7;" glyph-name="divide" horiz-adv-x="549" d="M262 396T254 405T245 426Q245 439 253 447T274 456Q287 456 296 448T305 426Q305 414 296 405T274 396Q262 396 254 405ZM40 258V304H509V258H40ZM262 115T254 124T245 145Q245 158 253 166T274
175Q287 175 296 167T305 145Q305 133 296 124T274 115Q262 115 254 124Z" />
<glyph unicode="&#xf8;" glyph-name="oslash" horiz-adv-x="588" d="M509 394T528 347T548 248Q548 197 529 151T474 70Q439 35 392 15T293 -5Q241 -5 192 17L137 -83H85L152 39Q133 53 115 70Q80 105 60 151T40 248Q40 300 60 347T115 429Q150 464 196 483T293
503Q349 503 395 482L450 583H502L435 461Q455 448 474 429Q509 394 528 347ZM159 89T173 78L373 442Q333 458 293 458Q251 458 214 442T147 397Q118 368 102 329T85 248Q85 206 101 168T147 101Q159 89 173 78ZM470 130T486 168T502 248Q502 290 486 329T441 397Q431
409 413 421L213 56Q252 39 293 39Q335 39 374 55T441 101Q470 130 486 168Z" />
<glyph unicode="&#xf9;" glyph-name="ugrave" horiz-adv-x="487" d="M391 5V74Q355 30 318 13T239 -4Q198 -4 162 11T98 54Q71 81 56 116T40 191V500H87V191Q87 161 99 134T132 86Q175 41 239 41Q269 41 297 53T346 86Q367 107 379 134T391 191V500H437V5H391ZM255
564H218L176 680H220L255 564Z" />
<glyph unicode="&#xfa;" glyph-name="uacute" horiz-adv-x="487" d="M391 5V74Q355 30 318 13T239 -4Q198 -4 162 11T98 54Q71 81 56 116T40 191V500H87V191Q87 161 99 134T132 86Q175 41 239 41Q269 41 297 53T346 86Q367 107 379 134T391 191V500H437V5H391ZM245
566H208L243 682H287L245 566Z" />
<glyph unicode="&#xfb;" glyph-name="ucircumflex" horiz-adv-x="487" d="M391 5V74Q355 30 318 13T239 -4Q198 -4 162 11T98 54Q71 81 56 116T40 191V500H87V191Q87 161 99 134T132 86Q175 41 239 41Q269 41 297 53T346 86Q367 107 379 134T391 191V500H437V5H391ZM300
551L240 619L179 551H128L241 676L349 551H300Z" />
<glyph unicode="&#xfc;" glyph-name="udieresis" horiz-adv-x="487" d="M391 5V74Q355 30 318 13T239 -4Q198 -4 162 11T98 54Q71 81 56 116T40 191V500H87V191Q87 161 99 134T132 86Q175 41 239 41Q269 41 297 53T346 86Q367 107 379 134T391 191V500H437V5H391ZM127
563T119 572T110 593Q110 606 118 614T139 623Q152 623 161 615T170 593Q170 581 161 572T139 563Q127 563 119 572ZM324 563T316 572T307 593Q307 606 315 614T337 623Q350 623 358 615T367 593Q367 581 359 572T337 563Q324 563 316 572Z" />
<glyph unicode="&#xfd;" glyph-name="yacute" horiz-adv-x="524" d="M204 -213T159 -190T82 -127L123 -104Q146 -134 181 -151T257 -168Q327 -168 378 -119Q403 -94 415 -69T428 -10V78Q386 29 347 13T257 -3Q214 -3 175 13T105 57Q74 86 57 123T40 202V500H86V209Q86
140 136 90Q159 67 190 54T257 41Q329 41 378 90Q428 140 428 209V500H474V-10Q474 -52 458 -86T411 -151Q381 -181 341 -197T257 -213Q204 -213 159 -190ZM268 566H231L266 682H310L268 566Z" />
<glyph unicode="&#xfe;" glyph-name="thorn" horiz-adv-x="595" d="M235 6T179 35T95 113V-160H50V665H95V383Q126 447 182 474T303 502Q354 502 400 483T481 430Q516 395 535 350T555 254Q555 204 536 159T481 79Q447 45 401 26T303 6Q235 6 179 35ZM262 456T224
441T157 397Q129 369 113 332T96 254Q96 213 112 176T157 110Q185 82 223 66T303 50Q345 50 383 66T449 110Q477 138 493 175T509 254Q509 295 493 332T449 397Q421 425 383 440T303 456Q262 456 224 441Z" />
<glyph unicode="&#xff;" glyph-name="ydieresis" horiz-adv-x="524" d="M204 -213T159 -190T82 -127L123 -104Q146 -134 181 -151T257 -168Q327 -168 378 -119Q403 -94 415 -69T428 -10V78Q386 29 347 13T257 -3Q214 -3 175 13T105 57Q74 86 57 123T40 202V500H86V209Q86
140 136 90Q159 67 190 54T257 41Q329 41 378 90Q428 140 428 209V500H474V-10Q474 -52 458 -86T411 -151Q381 -181 341 -197T257 -213Q204 -213 159 -190ZM150 563T142 572T133 593Q133 606 141 614T162 623Q175 623 184 615T193 593Q193 581 184 572T162 563Q150
563 142 572ZM347 563T339 572T330 593Q330 606 338 614T360 623Q373 623 381 615T390 593Q390 581 382 572T360 563Q347 563 339 572Z" />
<glyph unicode="&#x2013;" glyph-name="endash" horiz-adv-x="550" d="M40 257V303H510V257H40Z" />
<glyph unicode="&#x2014;" glyph-name="emdash" horiz-adv-x="705" d="M40 257V303H665V257H40Z" />
<glyph unicode="&#x2018;" glyph-name="quoteleft" horiz-adv-x="211" d="M121 479L46 688H102L166 479H121Z" />
<glyph unicode="&#x2019;" glyph-name="quoteright" horiz-adv-x="160" d="M85 479H40L104 688H160L85 479Z" />
<glyph unicode="&#x201a;" glyph-name="quotesinglbase" horiz-adv-x="211" d="M90 -102H45L109 107H165L90 -102Z" />
<glyph unicode="&#x201c;" glyph-name="quotedblleft" horiz-adv-x="346" d="M112 479L45 688H95L153 479H112ZM261 479L194 688H244L302 479H261Z" />
<glyph unicode="&#x201d;" glyph-name="quotedblright" horiz-adv-x="346" d="M85 479H44L102 688H152L85 479ZM234 479H193L251 688H301L234 479Z" />
<glyph unicode="&#x201e;" glyph-name="quotedblbase" horiz-adv-x="355" d="M85 -102H44L102 107H151L85 -102ZM243 -102H203L260 107H310L243 -102Z" />
<glyph unicode="&#x2022;" glyph-name="bullet" horiz-adv-x="280" d="M98 200T69 229Q40 258 40 300Q40 342 69 371Q98 400 139 400Q159 400 177 393T210 371Q240 339 240 300Q240 261 210 229Q196 215 178 208T139 200Q98 200 69 229Z" />
<glyph unicode="&#x2039;" glyph-name="guilsinglleft" horiz-adv-x="365" d="M239 87L45 278L228 471H294L111 280L306 87H239Z" />
<glyph unicode="&#x203a;" glyph-name="guilsinglright" horiz-adv-x="365" d="M240 280L57 471H123L306 278L112 87H45L240 280Z" />
</font>
</defs>
</svg>
